{
.appVersion = "1131";
DisplayStrings = (
"/dvKA/dvVA  o /o.alt/n.alt/e.alt  i/i.alt  \012nean no can \012/c.alt/a.alt/n.alt  /n.alt/a.alt/o.alt  /dvKA/dvVA  /e.alt/o.alt/n.alt",
"/a.alt/c.alt/e.alt/o.alt"
);
classes = (
{
code = "dvmI.a01 dvmI.a02 dvmI.a03 dvmI.a04 dvmI.a05 dvmI.a06 dvmI.a07 dvmI.a08 dvmI.a09 dvmI.a10 dvmI.a11 dvmI.a12 dvmI.a13 dvmI.a14 dvmI.a15 dvmI.a16 dvmI.a17 dvmI.a18 dvmI.a19 dvmI.a20 dvmI.a21 dvmI.a22 dvmI.a23 dvmI.a24 dvmI.a25 dvmI.a26 dvmI.a27 dvmI.a28 dvmI.a29 dvmI.a30 dvmI.a31 dvmI.a32";
name = mI_ALTS;
},
{
code = "dvKA dvPHA dvKxA dvPHxA dvK_RA dvPH_RA dvKx_RA dvPHx_RA dvK_KA dvKx_KxA dvK_TA dvK_PHA dvKx_PHA dvKx_PHxA dvJ_KA dvT_KA dvT_K_RA dvT_PHA dvN_KA dvN_PHA dvN_PH_RA dvP_PHA dvPH_PHA dvPHx_PHxA dvL_KA dvL_PHA dvSH_KA dvSH_KxA dvSS_KA dvSS_K_RA dvSS_PHA dvS_KA dvS_K_RA dvS_PHA";
name = mII_BASES;
},
{

glyphs = (
{
glyphname = breve;
lastChange = "2018-05-04 04:01:28 +0000";
layers = (
{
layerId = UUID0;
paths = (
{
closed = 1;
nodes = (
"17 679 OFFCURVE",
"120 546 OFFCURVE",
"167 545 CURVE SMOOTH",
"242 544 OFFCURVE",
"356 657 OFFCURVE",
"356 657 CURVE",
"286 719 LINE",
"286 719 OFFCURVE",
"192 615 OFFCURVE",
"146 617 CURVE SMOOTH",
"108 619 OFFCURVE",
"44 710 OFFCURVE",
"44 710 CURVE",
"17 679 LINE"
);
}
);
width = 353;
},
{
layerId = "F3BFA7D7-9187-4567-9958-41DFD36DE2A0";
width = 600;
},
{
layerId = "B0A33A77-4F7C-4BAD-AD90-E13C10AC4CE8";
width = 600;
}
);
unicode = 02D8;
},
{
glyphname = dotaccent;
lastChange = "2018-05-04 04:01:28 +0000";
layers = (
{
layerId = UUID0;
paths = (
{
closed = 1;
nodes = (
"123 589 OFFCURVE",
"147 617 OFFCURVE",
"156 640 CURVE",
"147 658 OFFCURVE",
"126 691 OFFCURVE",
"81 711 CURVE",
"60 706 OFFCURVE",
"9 664 OFFCURVE",
"6 641 CURVE",
"23 607 OFFCURVE",
"54 581 OFFCURVE",
"82 568 CURVE"
);
}
);
width = 156;
},
{
layerId = "F3BFA7D7-9187-4567-9958-41DFD36DE2A0";
width = 600;
},
{
layerId = "B0A33A77-4F7C-4BAD-AD90-E13C10AC4CE8";
width = 600;
}
);
unicode = 02D9;
},
{
glyphname = ring;
lastChange = "2018-05-04 04:01:28 +0000";
layers = (
{
layerId = UUID0;
paths = (
{
closed = 1;
nodes = (
"222 690 OFFCURVE",
"166 572 OFFCURVE",
"105 603 CURVE SMOOTH",
"39 637 OFFCURVE",
"105 762 OFFCURVE",
"165 725 CURVE SMOOTH"
);
},
{
closed = 1;
nodes = (
"202 754 OFFCURVE",
"183 765 OFFCURVE",
"150 782 CURVE SMOOTH",
"63 826 OFFCURVE",
"-51 672 OFFCURVE",
"50 590 CURVE SMOOTH",
"63 579 OFFCURVE",
"74 571 OFFCURVE",
"103 556 CURVE SMOOTH",
"218 499 OFFCURVE",
"303 670 OFFCURVE",
"226 735 CURVE SMOOTH"
);
}
);
width = 260;
},
{
layerId = "F3BFA7D7-9187-4567-9958-41DFD36DE2A0";
width = 600;
},
{
layerId = "B0A33A77-4F7C-4BAD-AD90-E13C10AC4CE8";
width = 600;
}
);
unicode = 02DA;
},
{
glyphname = hungarumlaut;
lastChange = "2018-05-04 04:01:28 +0000";
layers = (
{
layerId = UUID0;
paths = (
{
closed = 1;
nodes = (
"318 607 OFFCURVE",
"316 599 OFFCURVE",
"349 677 CURVE",
"342 691 OFFCURVE",
"235 753 OFFCURVE",
"234 730 CURVE",
"227 658 OFFCURVE",
"232 625 OFFCURVE",
"226 562 CURVE",
"276 548 LINE"
);
},
{
closed = 1;
nodes = (
"147 607 OFFCURVE",
"145 599 OFFCURVE",
"178 677 CURVE",
"171 691 OFFCURVE",
"64 753 OFFCURVE",
"63 730 CURVE",
"56 658 OFFCURVE",
"61 625 OFFCURVE",
"55 562 CURVE",
"105 548 LINE"
);
}
);
width = 374;
},
{
layerId = "F3BFA7D7-9187-4567-9958-41DFD36DE2A0";
width = 600;
},
{
layerId = "B0A33A77-4F7C-4BAD-AD90-E13C10AC4CE8";
width = 600;
}
);
unicode = 02DD;
},
{
glyphname = ogonek;
lastChange = "2018-05-04 04:01:28 +0000";
layers = (
{
layerId = UUID0;
paths = (
{
closed = 1;
nodes = (
"9 -66 OFFCURVE",
"17 -123 OFFCURVE",
"48 -161 CURVE SMOOTH",
"77 -196 OFFCURVE",
"138 -236 OFFCURVE",
"168 -245 CURVE SMOOTH",
"213 -258 OFFCURVE",
"236 -246 OFFCURVE",
"316 -195 CURVE",
"316 -195 OFFCURVE",
"249 -125 OFFCURVE",
"248 -126 CURVE SMOOTH",
"191 -170 OFFCURVE",
"159 -181 OFFCURVE",
"136 -172 CURVE SMOOTH",
"87 -153 OFFCURVE",
"149 -69 OFFCURVE",
"229 3 CURVE",
"136 49 LINE"
);
}
);
width = 263;
},
{
layerId = "F3BFA7D7-9187-4567-9958-41DFD36DE2A0";
width = 600;
},
{
layerId = "B0A33A77-4F7C-4BAD-AD90-E13C10AC4CE8";
width = 600;
}
);
unicode = 02DB;
},
{
glyphname = caron;
lastChange = "2018-05-04 04:01:28 +0000";
layers = (
{
layerId = UUID0;
paths = (
{
closed = 1;
nodes = (
"17 655 LINE",
"139 523 LINE",
"205 523 LINE",
"356 633 LINE",
"285 704 LINE",
"154 582 LINE",
"55 699 LINE"
);
}
);
width = 350;
},
{
layerId = "F3BFA7D7-9187-4567-9958-41DFD36DE2A0";
width = 600;
},
{
layerId = "B0A33A77-4F7C-4BAD-AD90-E13C10AC4CE8";
width = 600;
}
);
unicode = 02C7;
},
{
glyphname = dotlessi;
lastChange = "2018-05-04 04:01:28 +0000";
layers = (
{
anchors = (
{
name = ogonek;
position = "{34, 7}";
},
{
name = top;
position = "{164, 507}";
}
);
layerId = UUID0;
paths = (
{
closed = 1;
nodes = (
"63 478 LINE",
"63 -1 LINE",
"178 -29 LINE",
"178 450 LINE"
);
}
);
width = 241;
},
{
layerId = "F3BFA7D7-9187-4567-9958-41DFD36DE2A0";
width = 600;
},
{
layerId = "B0A33A77-4F7C-4BAD-AD90-E13C10AC4CE8";
width = 600;
}
);
unicode = 0131;
},
{
glyphname = fraction;
lastChange = "2018-05-04 04:01:28 +0000";
layers = (
{
layerId = UUID0;
paths = (
{
closed = 1;
nodes = (
"429 713 LINE",
"18 1 LINE",
"108 -30 LINE",
"521 680 LINE"
);
}
);
width = 538;
},
{
layerId = "F3BFA7D7-9187-4567-9958-41DFD36DE2A0";
width = 600;
},
{
layerId = "B0A33A77-4F7C-4BAD-AD90-E13C10AC4CE8";
width = 600;
}
);
unicode = 2044;
},
{
glyphname = fi;
lastChange = "2018-05-04 04:01:28 +0000";
layers = (
{
layerId = UUID0;
paths = (
{
closed = 1;
nodes = (
"140 408 LINE",
"140 287 OFFCURVE",
"140 176 OFFCURVE",
"141 -1 CURVE",
"266 -29 LINE",
"261 408 LINE",
"481 408 LINE",
"481 -1 LINE",
"606 -29 LINE",
"606 450 LINE",
"483 477 LINE",
"483 478 LINE",
"261 478 LINE",
"263 571 OFFCURVE",
"277 666 OFFCURVE",
"462 602 CURVE",
"479 568 OFFCURVE",
"510 542 OFFCURVE",
"538 529 CURVE",
"579 550 OFFCURVE",
"603 578 OFFCURVE",
"612 601 CURVE",
"603 619 OFFCURVE",
"582 652 OFFCURVE",
"537 672 CURVE",
"522 668 OFFCURVE",
"491 646 OFFCURVE",
"474 625 CURVE",
"434 658 OFFCURVE",
"380 689 OFFCURVE",
"354 704 CURVE SMOOTH",
"290 740 OFFCURVE",
"140 626 OFFCURVE",
"140 565 CURVE SMOOTH",
"140 478 LINE",
"36 478 LINE",
"66 408 LINE"
);
}
);
width = 631;
},
{
layerId = "F3BFA7D7-9187-4567-9958-41DFD36DE2A0";
width = 600;
},
{
layerId = "B0A33A77-4F7C-4BAD-AD90-E13C10AC4CE8";
width = 600;
}
);
unicode = FB01;
},
{
glyphname = fl;
lastChange = "2018-05-04 04:01:28 +0000";
layers = (
{
layerId = UUID0;
paths = (
{
closed = 1;
nodes = (
"169 408 LINE",
"169 287 OFFCURVE",
"169 176 OFFCURVE",
"170 -1 CURVE",
"295 -29 LINE",
"290 408 LINE",
"422 408 LINE",
"392 478 LINE",
"290 478 LINE",
"292 571 OFFCURVE",
"320 679 OFFCURVE",
"520 632 CURVE",
"520 -1 LINE",
"645 -29 LINE",
"645 651 LINE",
"520 679 LINE",
"468 692 OFFCURVE",
"410 707 OFFCURVE",
"378 710 CURVE SMOOTH",
"305 716 OFFCURVE",
"169 626 OFFCURVE",
"169 565 CURVE SMOOTH",
"169 478 LINE",
"65 478 LINE",
"95 408 LINE"
);
}
);
width = 700;
},
{
layerId = "F3BFA7D7-9187-4567-9958-41DFD36DE2A0";
width = 600;
},
{
layerId = "B0A33A77-4F7C-4BAD-AD90-E13C10AC4CE8";
width = 600;
}
);
unicode = FB02;
},
{
glyphname = Lslash;
lastChange = "2018-05-04 04:01:28 +0000";
layers = (
{
anchors = (
{
name = top;
position = "{307, 657}";
}
);
components = (
{
name = L;
transform = "{1, 0, 0, 1, 14, 0}";
}
);
layerId = UUID0;
paths = (
{
closed = 1;
nodes = (
"339 452 LINE",
"19 334 LINE",
"34 277 LINE",
"375 375 LINE"
);
}
);
width = 670;
},
{
layerId = "F3BFA7D7-9187-4567-9958-41DFD36DE2A0";
width = 600;
},
{
layerId = "B0A33A77-4F7C-4BAD-AD90-E13C10AC4CE8";
width = 600;
}
);
unicode = 0141;
},
{
glyphname = L;
lastChange = "2018-05-04 04:01:28 +0000";
layers = (
{
anchors = (
{
name = top;
position = "{323, 743}";
}
);
layerId = UUID0;
paths = (
{
closed = 1;
nodes = (
"70 667 LINE",
"70 29 LINE",
"210 0 LINE",
"597 0 LINE",
"517 90 LINE",
"209 90 LINE",
"208 626 LINE"
);
}
);
width = 607;
},
{
layerId = "F3BFA7D7-9187-4567-9958-41DFD36DE2A0";
width = 600;
},
{
layerId = "B0A33A77-4F7C-4BAD-AD90-E13C10AC4CE8";
width = 600;
}
);
unicode = 004C;
},
{
glyphname = lslash;
lastChange = "2018-05-04 04:01:28 +0000";
layers = (
{
anchors = (
{
name = top;
position = "{249, 733}";
}
);
components = (
{
name = l;
transform = "{1, 0, 0, 1, 40, 0}";
}
);
layerId = UUID0;
paths = (
{
closed = 1;
nodes = (
"296 474 LINE",
"19 364 LINE",
"34 307 LINE",
"332 397 LINE"
);
}
);
width = 350;
},
{
layerId = "F3BFA7D7-9187-4567-9958-41DFD36DE2A0";
width = 600;
},
{
layerId = "B0A33A77-4F7C-4BAD-AD90-E13C10AC4CE8";
width = 600;
}
);
unicode = 0142;
},
{
glyphname = Z;
lastChange = "2018-05-04 04:01:28 +0000";
layers = (
{
anchors = (
{
name = top;
position = "{460, 743}";
}
);
layerId = UUID0;
paths = (
{
closed = 1;
nodes = (
"531 577 LINE",
"82 90 LINE",
"81 89 LINE",
"83 88 LINE",
"162 0 LINE",
"778 0 LINE",
"698 90 LINE",
"274 90 LINE",
"732 577 LINE",
"652 667 LINE",
"52 667 LINE",
"132 577 LINE"
);
}
);
width = 835;
},
{
layerId = "F3BFA7D7-9187-4567-9958-41DFD36DE2A0";
width = 600;
},
{
layerId = "B0A33A77-4F7C-4BAD-AD90-E13C10AC4CE8";
width = 600;
}
);
unicode = 005A;
},
{
glyphname = z;
lastChange = "2018-05-04 04:01:28 +0000";
layers = (
{
anchors = (
{
name = top;
position = "{226, 507}";
}
);
layerId = UUID0;
paths = (
{
closed = 1;
nodes = (
"442 405 LINE",
"447 405 LINE",
"417 478 LINE",
"10 478 LINE",
"40 405 LINE",
"301 405 LINE",
"139 197 LINE",
"146 194 LINE",
"147 194 LINE",
"177 182 OFFCURVE",
"279 141 OFFCURVE",
"315 117 CURVE SMOOTH",
"392 64 OFFCURVE",
"290 -219 OFFCURVE",
"91 -141 CURVE SMOOTH",
"74 -134 OFFCURVE",
"54 -122 OFFCURVE",
"35 -109 CURVE",
"12 -133 LINE",
"67 -187 OFFCURVE",
"151 -241 OFFCURVE",
"192 -248 CURVE SMOOTH",
"358 -276 OFFCURVE",
"585 36 OFFCURVE",
"403 128 CURVE",
"277 188 LINE",
"447 404 LINE"
);
}
);
width = 489;
},
{
layerId = "F3BFA7D7-9187-4567-9958-41DFD36DE2A0";
width = 600;
},
{
layerId = "B0A33A77-4F7C-4BAD-AD90-E13C10AC4CE8";
width = 600;
}
);
unicode = 007A;
},
{
glyphname = exclam;
lastChange = "2018-05-04 04:01:28 +0000";
layers = (
{
layerId = UUID0;
paths = (
{
closed = 1;
nodes = (
"183 -1 OFFCURVE",
"207 27 OFFCURVE",
"216 50 CURVE",
"207 68 OFFCURVE",
"186 101 OFFCURVE",
"141 121 CURVE",
"120 116 OFFCURVE",
"69 74 OFFCURVE",
"66 51 CURVE",
"83 17 OFFCURVE",
"114 -9 OFFCURVE",
"142 -22 CURVE"
);
},
{
closed = 1;
nodes = (
"89 710 LINE",
"94 194 LINE",
"183 175 LINE",
"215 682 LINE"
);
}
);
width = 270;
},
{
layerId = "F3BFA7D7-9187-4567-9958-41DFD36DE2A0";
width = 600;
},
{
layerId = "B0A33A77-4F7C-4BAD-AD90-E13C10AC4CE8";
width = 600;
}
);
unicode = 0021;
},
{
glyphname = quotedbl;
lastChange = "2018-05-04 04:01:28 +0000";
layers = (
{
layerId = UUID0;
paths = (
{
closed = 1;
nodes = (
"384 629 OFFCURVE",
"413 701 OFFCURVE",
"408 782 CURVE",
"399 794 OFFCURVE",
"282 835 OFFCURVE",
"285 812 CURVE",
"292 740 OFFCURVE",
"282 646 OFFCURVE",
"283 578 CURVE",
"335 573 LINE"
);
},
{
closed = 1;
nodes = (
"159 629 OFFCURVE",
"188 701 OFFCURVE",
"183 782 CURVE",
"174 794 OFFCURVE",
"57 835 OFFCURVE",
"60 812 CURVE",
"67 740 OFFCURVE",
"57 646 OFFCURVE",
"58 578 CURVE",
"110 573 LINE"
);
}
);
width = 484;
},
{
layerId = "F3BFA7D7-9187-4567-9958-41DFD36DE2A0";
width = 600;
},
{
layerId = "B0A33A77-4F7C-4BAD-AD90-E13C10AC4CE8";
width = 600;
}
);
unicode = 0022;
},
{
glyphname = numbersign;
lastChange = "2018-05-04 04:01:28 +0000";
layers = (
{
layerId = UUID0;
paths = (
{
closed = 1;
nodes = (
"471 710 LINE",
"471 519 LINE",
"330 519 LINE",
"330 682 LINE",
"215 710 LINE",
"215 519 LINE",
"34 519 LINE",
"114 429 LINE",
"215 429 LINE",
"215 255 LINE",
"34 255 LINE",
"114 165 LINE",
"215 165 LINE",
"215 -1 LINE",
"330 -29 LINE",
"330 165 LINE",
"471 165 LINE",
"471 -1 LINE",
"586 -29 LINE",
"586 165 LINE",
"762 165 LINE",
"682 255 LINE",
"586 255 LINE",
"586 429 LINE",
"762 429 LINE",
"682 519 LINE",
"586 519 LINE",
"586 682 LINE"
);
},
{
closed = 1;
nodes = (
"471 429 LINE",
"471 255 LINE",
"330 255 LINE",
"330 429 LINE"
);
}
);
width = 797;
},
{
layerId = "F3BFA7D7-9187-4567-9958-41DFD36DE2A0";
width = 600;
},
{
layerId = "B0A33A77-4F7C-4BAD-AD90-E13C10AC4CE8";
width = 600;
}
);
unicode = 0023;
},
{
glyphname = dollar;
lastChange = "2018-05-04 04:01:28 +0000";
layers = (
{
layerId = UUID0;
paths = (
{
closed = 1;
nodes = (
"465 515 OFFCURVE",
"416 543 OFFCURVE",
"375 561 CURVE",
"374 683 LINE",
"276 724 LINE",
"276 576 LINE",
"190 560 OFFCURVE",
"75 495 OFFCURVE",
"98 394 CURVE SMOOTH",
"106 359 OFFCURVE",
"166 297 OFFCURVE",
"202 270 CURVE SMOOTH",
"253 232 OFFCURVE",
"477 310 OFFCURVE",
"470 292 CURVE SMOOTH",
"397 101 OFFCURVE",
"169 198 OFFCURVE",
"123 223 CURVE",
"98 186 LINE",
"154 145 OFFCURVE",
"208 97 OFFCURVE",
"276 77 CURVE",
"276 -59 LINE",
"376 -88 LINE",
"374 69 LINE",
"530 87 OFFCURVE",
"626 242 OFFCURVE",
"464 382 CURVE SMOOTH",
"433 408 OFFCURVE",
"191 364 OFFCURVE",
"194 378 CURVE SMOOTH",
"227 511 OFFCURVE",
"363 496 OFFCURVE",
"474 452 CURVE",
"501 492 LINE"
);
}
);
width = 623;
},
{
layerId = "F3BFA7D7-9187-4567-9958-41DFD36DE2A0";
width = 600;
},
{
layerId = "B0A33A77-4F7C-4BAD-AD90-E13C10AC4CE8";
width = 600;
}
);
unicode = 0024;
},
{
glyphname = percent;
lastChange = "2018-05-04 04:01:28 +0000";
layers = (
{
layerId = UUID0;
paths = (
{
closed = 1;
nodes = (
"611 715 LINE",
"533 646 OFFCURVE",
"404 617 OFFCURVE",
"238 689 CURVE",
"218 700 LINE",
"88 765 OFFCURVE",
"-98 542 OFFCURVE",
"69 414 CURVE SMOOTH",
"90 398 OFFCURVE",
"106 385 OFFCURVE",
"149 362 CURVE SMOOTH",
"321 270 OFFCURVE",
"445 512 OFFCURVE",
"342 618 CURVE",
"404 593 OFFCURVE",
"466 580 OFFCURVE",
"535 594 CURVE",
"163 1 LINE",
"275 -30 LINE",
"713 682 LINE"
);
},
{
closed = 1;
nodes = (
"765 290 OFFCURVE",
"736 307 OFFCURVE",
"687 332 CURVE SMOOTH",
"557 397 OFFCURVE",
"371 174 OFFCURVE",
"538 46 CURVE SMOOTH",
"559 30 OFFCURVE",
"575 17 OFFCURVE",
"618 -6 CURVE SMOOTH",
"796 -101 OFFCURVE",
"923 161 OFFCURVE",
"800 261 CURVE SMOOTH"
);
},
{
closed = 1;
nodes = (
"813 198 OFFCURVE",
"711 -8 OFFCURVE",
"611 51 CURVE SMOOTH",
"511 109 OFFCURVE",
"623 322 OFFCURVE",
"717 260 CURVE SMOOTH"
);
},
{
closed = 1;
nodes = (
"344 566 OFFCURVE",
"242 360 OFFCURVE",
"142 419 CURVE SMOOTH",
"42 477 OFFCURVE",
"154 690 OFFCURVE",
"248 628 CURVE SMOOTH"
);
}
);
width = 855;
},
{
layerId = "F3BFA7D7-9187-4567-9958-41DFD36DE2A0";
width = 600;
},
{
layerId = "B0A33A77-4F7C-4BAD-AD90-E13C10AC4CE8";
width = 600;
}
);
unicode = 0025;
},
{
glyphname = ampersand;
lastChange = "2018-05-04 04:01:28 +0000";
layers = (
{
layerId = UUID0;
paths = (
{
closed = 1;
nodes = (
"473 560 OFFCURVE",
"316 674 OFFCURVE",
"290 674 CURVE SMOOTH",
"188 674 OFFCURVE",
"66 525 OFFCURVE",
"98 474 CURVE SMOOTH",
"109 455 OFFCURVE",
"153 409 OFFCURVE",
"210 352 CURVE",
"117 280 OFFCURVE",
"24 214 OFFCURVE",
"70 151 CURVE SMOOTH",
"117 85 OFFCURVE",
"159 43 OFFCURVE",
"229 -11 CURVE SMOOTH",
"287 -57 OFFCURVE",
"388 -2 OFFCURVE",
"484 89 CURVE",
"610 -29 LINE",
"671 22 LINE",
"636 52 OFFCURVE",
"587 96 OFFCURVE",
"536 143 CURVE",
"572 183 OFFCURVE",
"606 227 OFFCURVE",
"635 271 CURVE",
"539 364 LINE",
"505 316 OFFCURVE",
"470 274 OFFCURVE",
"435 236 CURVE",
"359 307 LINE",
"438 381 OFFCURVE",
"509 457 OFFCURVE",
"497 491 CURVE SMOOTH"
);
},
{
closed = 1;
nodes = (
"299 102 OFFCURVE",
"220 57 OFFCURVE",
"193 99 CURVE SMOOTH",
"162 147 OFFCURVE",
"227 191 OFFCURVE",
"305 258 CURVE",
"384 184 LINE"
);
},
{
closed = 1;
nodes = (
"158 517 OFFCURVE",
"300 608 OFFCURVE",
"361 573 CURVE SMOOTH",
"412 543 OFFCURVE",
"352 472 OFFCURVE",
"265 397 CURVE",
"262 400 OFFCURVE",
"259 403 OFFCURVE",
"258 405 CURVE SMOOTH"
);
}
);
width = 679;
},
{
layerId = "F3BFA7D7-9187-4567-9958-41DFD36DE2A0";
width = 600;
},
{
layerId = "B0A33A77-4F7C-4BAD-AD90-E13C10AC4CE8";
width = 600;
}
);
unicode = 0026;
},
{
glyphname = quotesingle;
lastChange = "2018-05-04 04:01:28 +0000";
layers = (
{
layerId = UUID0;
paths = (
{
closed = 1;
nodes = (
"159 629 OFFCURVE",
"188 701 OFFCURVE",
"183 782 CURVE",
"174 794 OFFCURVE",
"57 835 OFFCURVE",
"60 812 CURVE",
"67 740 OFFCURVE",
"57 646 OFFCURVE",
"58 578 CURVE",
"110 573 LINE"
);
}
);
width = 157;
},
{
layerId = "F3BFA7D7-9187-4567-9958-41DFD36DE2A0";
width = 600;
},
{
layerId = "B0A33A77-4F7C-4BAD-AD90-E13C10AC4CE8";
width = 600;
}
);
unicode = 0027;
},
{
glyphname = parenleft;
lastChange = "2018-05-04 04:01:28 +0000";
layers = (
{
layerId = UUID0;
paths = (
{
closed = 1;
nodes = (
"189 698 OFFCURVE",
"-30 317 OFFCURVE",
"99 147 CURVE SMOOTH",
"165 60 OFFCURVE",
"354 -48 OFFCURVE",
"420 -94 CURVE",
"452 -56 LINE",
"384 -11 OFFCURVE",
"315 38 OFFCURVE",
"289 60 CURVE SMOOTH",
"37 273 OFFCURVE",
"318 599 OFFCURVE",
"474 721 CURVE",
"389 814 LINE"
);
}
);
width = 524;
},
{
layerId = "F3BFA7D7-9187-4567-9958-41DFD36DE2A0";
width = 600;
},
{
layerId = "B0A33A77-4F7C-4BAD-AD90-E13C10AC4CE8";
width = 600;
}
);
unicode = 0028;
},
{
glyphname = parenright;
lastChange = "2018-05-04 04:01:28 +0000";
layers = (
{
layerId = UUID0;
paths = (
{
closed = 1;
nodes = (
"303 29 OFFCURVE",
"507 313 OFFCURVE",
"397 477 CURVE SMOOTH",
"329 578 OFFCURVE",
"150 766 OFFCURVE",
"84 812 CURVE",
"57 761 LINE",
"125 716 OFFCURVE",
"205 605 OFFCURVE",
"227 572 CURVE SMOOTH",
"411 300 OFFCURVE",
"195 108 OFFCURVE",
"50 -42 CURVE",
"135 -135 LINE"
);
}
);
width = 489;
},
{
layerId = "F3BFA7D7-9187-4567-9958-41DFD36DE2A0";
width = 600;
},
{
layerId = "B0A33A77-4F7C-4BAD-AD90-E13C10AC4CE8";
width = 600;
}
);
unicode = 0029;
},
{
glyphname = asterisk;
lastChange = "2018-05-04 04:01:28 +0000";
layers = (
{
layerId = UUID0;
paths = (
{
closed = 1;
nodes = (
"110 489 LINE",
"165 529 LINE",
"167 448 LINE",
"213 436 LINE",
"212 559 LINE",
"304 493 LINE",
"337 533 LINE",
"248 590 LINE",
"337 655 LINE",
"270 710 LINE",
"211 668 LINE",
"211 745 LINE",
"160 753 LINE",
"162 644 LINE",
"79 698 LINE",
"53 673 LINE",
"135 614 LINE",
"40 547 LINE"
);
}
);
width = 367;
},
{
layerId = "F3BFA7D7-9187-4567-9958-41DFD36DE2A0";
width = 600;
},
{
layerId = "B0A33A77-4F7C-4BAD-AD90-E13C10AC4CE8";
width = 600;
}
);
unicode = 002A;
},
{
glyphname = plus;
lastChange = "2018-05-04 04:01:28 +0000";
layers = (
{
layerId = UUID0;
paths = (
{
closed = 1;
nodes = (
"233 285 LINE",
"233 91 LINE",
"348 63 LINE",
"348 285 LINE",
"537 285 LINE",
"507 358 LINE",
"348 358 LINE",
"348 542 LINE",
"233 570 LINE",
"233 358 LINE",
"34 358 LINE",
"64 285 LINE"
);
}
);
width = 600;
},
{
layerId = "F3BFA7D7-9187-4567-9958-41DFD36DE2A0";
width = 600;
},
{
layerId = "B0A33A77-4F7C-4BAD-AD90-E13C10AC4CE8";
width = 600;
}
);
unicode = 002B;
},
{
glyphname = comma;
lastChange = "2018-05-04 04:01:28 +0000";
layers = (
{
layerId = UUID0;
paths = (
{
closed = 1;
nodes = (
"159 -114 OFFCURVE",
"208 -12 OFFCURVE",
"216 39 CURVE",
"218 67 OFFCURVE",
"173 106 OFFCURVE",
"141 121 CURVE",
"120 116 OFFCURVE",
"69 74 OFFCURVE",
"66 51 CURVE",
"76 31 OFFCURVE",
"95 10 OFFCURVE",
"111 -4 CURVE",
"113 -25 OFFCURVE",
"101 -82 OFFCURVE",
"89 -120 CURVE",
"130 -147 LINE"
);
}
);
width = 263;
},
{
layerId = "F3BFA7D7-9187-4567-9958-41DFD36DE2A0";
width = 600;
},
{
layerId = "B0A33A77-4F7C-4BAD-AD90-E13C10AC4CE8";
width = 600;
}
);
unicode = 002C;
},
{
glyphname = hyphen;
lastChange = "2018-05-04 04:01:28 +0000";
layers = (
{
layerId = UUID0;
paths = (
{
closed = 1;
nodes = (
"444 277 LINE",
"413 358 LINE",
"30 358 LINE",
"61 277 LINE"
);
}
);
width = 474;
},
{
layerId = "F3BFA7D7-9187-4567-9958-41DFD36DE2A0";
width = 600;
},
{
layerId = "B0A33A77-4F7C-4BAD-AD90-E13C10AC4CE8";
width = 600;
}
);
unicode = 002D;
},
{
glyphname = period;
lastChange = "2018-05-04 04:01:28 +0000";
layers = (
{
layerId = UUID0;
paths = (
{
closed = 1;
nodes = (
"183 -1 OFFCURVE",
"207 27 OFFCURVE",
"216 50 CURVE",
"207 68 OFFCURVE",
"186 101 OFFCURVE",
"141 121 CURVE",
"120 116 OFFCURVE",
"69 74 OFFCURVE",
"66 51 CURVE",
"83 17 OFFCURVE",
"114 -9 OFFCURVE",
"142 -22 CURVE"
);
}
);
width = 237;
},
{
layerId = "F3BFA7D7-9187-4567-9958-41DFD36DE2A0";
width = 600;
},
{
layerId = "B0A33A77-4F7C-4BAD-AD90-E13C10AC4CE8";
width = 600;
}
);
unicode = 002E;
},
{
glyphname = slash;
lastChange = "2018-05-04 04:01:28 +0000";
layers = (
{
layerId = UUID0;
paths = (
{
closed = 1;
nodes = (
"298 714 LINE",
"30 0 LINE",
"160 -29 LINE",
"426 673 LINE"
);
}
);
width = 436;
},
{
layerId = "F3BFA7D7-9187-4567-9958-41DFD36DE2A0";
width = 600;
},
{
layerId = "B0A33A77-4F7C-4BAD-AD90-E13C10AC4CE8";
width = 600;
}
);
unicode = 002F;
},
{
glyphname = zero;
lastChange = "2018-05-04 04:01:28 +0000";
layers = (
{
anchors = (
{
name = top;
position = "{404, 723}";
}
);
layerId = UUID0;
paths = (
{
closed = 1;
nodes = (
"530 519 OFFCURVE",
"384 -7 OFFCURVE",
"230 54 CURVE SMOOTH",
"82 113 OFFCURVE",
"229 648 OFFCURVE",
"390 579 CURVE SMOOTH"
);
},
{
closed = 1;
nodes = (
"448 628 OFFCURVE",
"425 631 OFFCURVE",
"356 658 CURVE SMOOTH",
"121 749 OFFCURVE",
"-97 193 OFFCURVE",
"139 28 CURVE SMOOTH",
"176 2 OFFCURVE",
"230 -24 OFFCURVE",
"278 -29 CURVE SMOOTH",
"546 -55 OFFCURVE",
"674 440 OFFCURVE",
"492 591 CURVE SMOOTH"
);
}
);
width = 613;
},
{
layerId = "F3BFA7D7-9187-4567-9958-41DFD36DE2A0";
width = 600;
},
{
layerId = "B0A33A77-4F7C-4BAD-AD90-E13C10AC4CE8";
width = 600;
}
);
unicode = 0030;
},
{
glyphname = one;
lastChange = "2018-05-04 04:00:54 +0000";
layers = (
{
layerId = UUID0;
paths = (
{
closed = 1;
nodes = (
"240 653 LINE",
"213 662 LINE",
"23 475 LINE",
"122 438 LINE",
"216 530 LINE",
"216 -6 LINE",
"339 -29 LINE",
"337 625 LINE"
);
}
);
width = 394;
},
{
layerId = "F3BFA7D7-9187-4567-9958-41DFD36DE2A0";
width = 600;
},
{
layerId = "B0A33A77-4F7C-4BAD-AD90-E13C10AC4CE8";
width = 600;
}
);
unicode = 0031;
},
{
glyphname = two;
lastChange = "2018-05-04 04:00:54 +0000";
layers = (
{
layerId = UUID0;
paths = (
{
closed = 1;
nodes = (
"433 553 OFFCURVE",
"383 603 OFFCURVE",
"326 651 CURVE SMOOTH",
"255 710 OFFCURVE",
"79 574 OFFCURVE",
"52 541 CURVE",
"133 440 LINE",
"170 474 OFFCURVE",
"310 597 OFFCURVE",
"369 529 CURVE SMOOTH",
"434 455 OFFCURVE",
"340 369 OFFCURVE",
"245 273 CURVE SMOOTH",
"198 225 OFFCURVE",
"38 106 OFFCURVE",
"30 100 CURVE",
"120 0 LINE",
"554 0 LINE",
"464 100 LINE",
"234 100 LINE",
"375 199 OFFCURVE",
"578 374 OFFCURVE",
"485 489 CURVE SMOOTH"
);
}
);
width = 574;
},
{
layerId = "F3BFA7D7-9187-4567-9958-41DFD36DE2A0";
width = 600;
},
{
layerId = "B0A33A77-4F7C-4BAD-AD90-E13C10AC4CE8";
width = 600;
}
);
unicode = 0032;
},
{
glyphname = three;
lastChange = "2018-05-04 04:01:28 +0000";
layers = (
{
layerId = UUID0;
paths = (
{
closed = 1;
nodes = (
"418 551 OFFCURVE",
"381 595 OFFCURVE",
"322 646 CURVE SMOOTH",
"249 708 OFFCURVE",
"123 625 OFFCURVE",
"71 594 CURVE",
"140 505 LINE",
"375 701 OFFCURVE",
"501 385 OFFCURVE",
"174 366 CURVE",
"225 273 LINE",
"273 275 OFFCURVE",
"320 285 OFFCURVE",
"360 302 CURVE",
"494 166 OFFCURVE",
"243 -22 OFFCURVE",
"71 188 CURVE",
"29 160 LINE",
"79 90 OFFCURVE",
"117 53 OFFCURVE",
"166 20 CURVE SMOOTH",
"346 -101 OFFCURVE",
"596 140 OFFCURVE",
"502 238 CURVE SMOOTH",
"477 264 OFFCURVE",
"439 293 OFFCURVE",
"402 323 CURVE",
"478 368 OFFCURVE",
"514 433 OFFCURVE",
"469 489 CURVE SMOOTH"
);
}
);
width = 568;
},
{
layerId = "F3BFA7D7-9187-4567-9958-41DFD36DE2A0";
width = 600;
},
{
layerId = "B0A33A77-4F7C-4BAD-AD90-E13C10AC4CE8";
width = 600;
}
);
unicode = 0033;
},
{
glyphname = four;
lastChange = "2018-05-04 04:01:28 +0000";
layers = (
{
layerId = UUID0;
paths = (
{
closed = 1;
nodes = (
"377 170 LINE",
"377 0 LINE",
"517 -29 LINE",
"515 625 LINE",
"377 666 LINE",
"377 270 LINE",
"172 270 LINE",
"301 551 LINE",
"170 588 LINE",
"15 270 LINE",
"105 170 LINE"
);
}
);
width = 572;
},
{
layerId = "F3BFA7D7-9187-4567-9958-41DFD36DE2A0";
width = 600;
},
{
layerId = "B0A33A77-4F7C-4BAD-AD90-E13C10AC4CE8";
width = 600;
}
);
unicode = 0034;
},
{
glyphname = five;
lastChange = "2018-05-04 04:01:28 +0000";
layers = (
{
layerId = UUID0;
paths = (
{
closed = 1;
nodes = (
"59 127 OFFCURVE",
"204 -29 OFFCURVE",
"359 -30 CURVE SMOOTH",
"561 -31 OFFCURVE",
"590 183 OFFCURVE",
"560 229 CURVE SMOOTH",
"531 274 OFFCURVE",
"448 348 OFFCURVE",
"400 388 CURVE SMOOTH",
"386 400 OFFCURVE",
"259 362 OFFCURVE",
"212 366 CURVE",
"207 401 OFFCURVE",
"217 468 OFFCURVE",
"225 525 CURVE",
"513 525 LINE",
"423 625 LINE",
"96 625 LINE",
"97 623 LINE",
"95 624 LINE",
"92 541 OFFCURVE",
"82 373 OFFCURVE",
"91 362 CURVE SMOOTH",
"126 319 OFFCURVE",
"152 276 OFFCURVE",
"200 235 CURVE SMOOTH",
"236 204 OFFCURVE",
"423 312 OFFCURVE",
"447 278 CURVE SMOOTH",
"471 244 OFFCURVE",
"438 83 OFFCURVE",
"311 84 CURVE SMOOTH",
"170 85 OFFCURVE",
"89 182 OFFCURVE",
"56 205 CURVE",
"35 161 LINE"
);
}
);
width = 612;
},
{
layerId = "F3BFA7D7-9187-4567-9958-41DFD36DE2A0";
width = 600;
},
{
layerId = "B0A33A77-4F7C-4BAD-AD90-E13C10AC4CE8";
width = 600;
}
);
unicode = 0035;
},
{
glyphname = six;
lastChange = "2018-05-04 04:00:54 +0000";
layers = (
{
layerId = UUID0;
paths = (
{
closed = 1;
nodes = (
"67 536 OFFCURVE",
"-3 206 OFFCURVE",
"71 127 CURVE SMOOTH",
"122 72 OFFCURVE",
"198 18 OFFCURVE",
"273 -18 CURVE SMOOTH",
"373 -66 OFFCURVE",
"576 141 OFFCURVE",
"483 262 CURVE SMOOTH",
"460 292 OFFCURVE",
"411 329 OFFCURVE",
"346 379 CURVE SMOOTH",
"327 393 OFFCURVE",
"264 386 OFFCURVE",
"224 379 CURVE",
"268 460 OFFCURVE",
"341 538 OFFCURVE",
"448 583 CURVE",
"342 672 LINE"
);
},
{
closed = 1;
nodes = (
"169 113 OFFCURVE",
"159 186 OFFCURVE",
"181 271 CURVE",
"594 401 OFFCURVE",
"331 2 OFFCURVE",
"205 89 CURVE SMOOTH"
);
}
);
width = 547;
},
{
layerId = "F3BFA7D7-9187-4567-9958-41DFD36DE2A0";
width = 600;
},
{
layerId = "B0A33A77-4F7C-4BAD-AD90-E13C10AC4CE8";
width = 600;
}
);
unicode = 0036;
},
{
glyphname = seven;
lastChange = "2018-05-04 04:01:28 +0000";
layers = (
{
layerId = UUID0;
paths = (
{
closed = 1;
nodes = (
"10 618 LINE",
"100 518 LINE",
"351 518 LINE",
"164 0 LINE",
"304 -29 LINE",
"504 518 LINE",
"414 618 LINE"
);
}
);
width = 534;
},
{
layerId = "F3BFA7D7-9187-4567-9958-41DFD36DE2A0";
width = 600;
},
{
layerId = "B0A33A77-4F7C-4BAD-AD90-E13C10AC4CE8";
width = 600;
}
);
unicode = 0037;
},
{
glyphname = eight;
lastChange = "2018-05-04 04:01:28 +0000";
layers = (
{
layerId = UUID0;
paths = (
{
closed = 1;
nodes = (
"81 467 OFFCURVE",
"260 645 OFFCURVE",
"354 556 CURVE SMOOTH",
"406 507 OFFCURVE",
"313 419 OFFCURVE",
"249 379 CURVE"
);
},
{
closed = 1;
nodes = (
"94 107 OFFCURVE",
"198 241 OFFCURVE",
"306 281 CURVE",
"494 162 OFFCURVE",
"284 14 OFFCURVE",
"204 53 CURVE SMOOTH"
);
},
{
closed = 1;
nodes = (
"455 536 OFFCURVE",
"320 667 OFFCURVE",
"295 668 CURVE SMOOTH",
"140 676 OFFCURVE",
"50 518 OFFCURVE",
"67 465 CURVE SMOOTH",
"77 434 OFFCURVE",
"144 386 OFFCURVE",
"201 350 CURVE",
"82 301 OFFCURVE",
"7 186 OFFCURVE",
"65 92 CURVE SMOOTH",
"82 63 OFFCURVE",
"267 -36 OFFCURVE",
"292 -37 CURVE SMOOTH",
"447 -45 OFFCURVE",
"530 143 OFFCURVE",
"499 190 CURVE SMOOTH",
"488 207 OFFCURVE",
"420 274 OFFCURVE",
"354 317 CURVE",
"464 394 OFFCURVE",
"512 454 OFFCURVE",
"474 508 CURVE SMOOTH"
);
}
);
width = 544;
},
{
layerId = "F3BFA7D7-9187-4567-9958-41DFD36DE2A0";
width = 600;
},
{
layerId = "B0A33A77-4F7C-4BAD-AD90-E13C10AC4CE8";
width = 600;
}
);
unicode = 0038;
},
{
glyphname = nine;
lastChange = "2018-05-04 04:01:28 +0000";
layers = (
{
layerId = UUID0;
paths = (
{
closed = 1;
nodes = (
"473 108 OFFCURVE",
"543 438 OFFCURVE",
"469 517 CURVE SMOOTH",
"418 572 OFFCURVE",
"342 626 OFFCURVE",
"267 662 CURVE SMOOTH",
"167 710 OFFCURVE",
"-36 503 OFFCURVE",
"57 382 CURVE SMOOTH",
"80 352 OFFCURVE",
"129 315 OFFCURVE",
"194 265 CURVE SMOOTH",
"212 251 OFFCURVE",
"275 257 OFFCURVE",
"316 265 CURVE",
"271 183 OFFCURVE",
"198 105 OFFCURVE",
"92 61 CURVE",
"198 -28 LINE"
);
},
{
closed = 1;
nodes = (
"370 530 OFFCURVE",
"380 457 OFFCURVE",
"359 373 CURVE",
"-54 243 OFFCURVE",
"208 641 OFFCURVE",
"335 555 CURVE"
);
}
);
width = 538;
},
{
layerId = "F3BFA7D7-9187-4567-9958-41DFD36DE2A0";
width = 600;
},
{
layerId = "B0A33A77-4F7C-4BAD-AD90-E13C10AC4CE8";
width = 600;
}
);
unicode = 0039;
},
{
glyphname = colon;
lastChange = "2018-05-04 04:01:28 +0000";
layers = (
{
layerId = UUID0;
paths = (
{
closed = 1;
nodes = (
"183 357 OFFCURVE",
"207 385 OFFCURVE",
"216 408 CURVE",
"207 426 OFFCURVE",
"186 459 OFFCURVE",
"141 479 CURVE",
"120 474 OFFCURVE",
"69 432 OFFCURVE",
"66 409 CURVE",
"83 375 OFFCURVE",
"114 349 OFFCURVE",
"142 336 CURVE"
);
},
{
closed = 1;
nodes = (
"183 -1 OFFCURVE",
"207 27 OFFCURVE",
"216 50 CURVE",
"207 68 OFFCURVE",
"186 101 OFFCURVE",
"141 121 CURVE",
"120 116 OFFCURVE",
"69 74 OFFCURVE",
"66 51 CURVE",
"83 17 OFFCURVE",
"114 -9 OFFCURVE",
"142 -22 CURVE"
);
}
);
width = 246;
},
{
layerId = "F3BFA7D7-9187-4567-9958-41DFD36DE2A0";
width = 600;
},
{
layerId = "B0A33A77-4F7C-4BAD-AD90-E13C10AC4CE8";
width = 600;
}
);
unicode = 003A;
},
{
glyphname = semicolon;
lastChange = "2018-05-04 04:01:28 +0000";
layers = (
{
layerId = UUID0;
paths = (
{
closed = 1;
nodes = (
"159 -114 OFFCURVE",
"208 -12 OFFCURVE",
"216 39 CURVE",
"218 67 OFFCURVE",
"173 106 OFFCURVE",
"141 121 CURVE",
"120 116 OFFCURVE",
"69 74 OFFCURVE",
"66 51 CURVE",
"76 31 OFFCURVE",
"95 10 OFFCURVE",
"111 -4 CURVE",
"113 -25 OFFCURVE",
"101 -82 OFFCURVE",
"89 -120 CURVE",
"130 -147 LINE"
);
},
{
closed = 1;
nodes = (
"183 357 OFFCURVE",
"207 385 OFFCURVE",
"216 408 CURVE",
"207 426 OFFCURVE",
"186 459 OFFCURVE",
"141 479 CURVE",
"120 474 OFFCURVE",
"69 432 OFFCURVE",
"66 409 CURVE",
"83 375 OFFCURVE",
"114 349 OFFCURVE",
"142 336 CURVE"
);
}
);
width = 306;
},
{
layerId = "F3BFA7D7-9187-4567-9958-41DFD36DE2A0";
width = 600;
},
{
layerId = "B0A33A77-4F7C-4BAD-AD90-E13C10AC4CE8";
width = 600;
}
);
unicode = 003B;
},
{
glyphname = less;
lastChange = "2018-05-04 04:01:28 +0000";
layers = (
{
layerId = UUID0;
paths = (
{
closed = 1;
nodes = (
"366 75 LINE",
"421 139 LINE",
"194 316 LINE",
"459 520 LINE",
"362 582 LINE",
"43 341 LINE"
);
}
);
width = 499;
},
{
layerId = "F3BFA7D7-9187-4567-9958-41DFD36DE2A0";
width = 600;
},
{
layerId = "B0A33A77-4F7C-4BAD-AD90-E13C10AC4CE8";
width = 600;
}
);
unicode = 003C;
},
{
glyphname = equal;
lastChange = "2018-05-04 04:01:28 +0000";
layers = (
{
layerId = UUID0;
paths = (
{
closed = 1;
nodes = (
"571 216 LINE",
"541 289 LINE",
"118 289 LINE",
"148 216 LINE"
);
},
{
closed = 1;
nodes = (
"571 377 LINE",
"541 450 LINE",
"118 450 LINE",
"148 377 LINE"
);
}
);
width = 672;
},
{
layerId = "F3BFA7D7-9187-4567-9958-41DFD36DE2A0";
width = 600;
},
{
layerId = "B0A33A77-4F7C-4BAD-AD90-E13C10AC4CE8";
width = 600;
}
);
unicode = 003D;
},
{
glyphname = greater;
lastChange = "2018-05-04 04:01:28 +0000";
layers = (
{
layerId = UUID0;
paths = (
{
closed = 1;
nodes = (
"136 75 LINE",
"459 341 LINE",
"140 582 LINE",
"43 520 LINE",
"308 316 LINE",
"81 139 LINE"
);
}
);
width = 499;
},
{
layerId = "F3BFA7D7-9187-4567-9958-41DFD36DE2A0";
width = 600;
},
{
layerId = "B0A33A77-4F7C-4BAD-AD90-E13C10AC4CE8";
width = 600;
}
);
unicode = 003E;
},
{
glyphname = question;
lastChange = "2018-05-04 04:01:28 +0000";
layers = (
{
layerId = UUID0;
paths = (
{
closed = 1;
nodes = (
"280 -1 OFFCURVE",
"304 27 OFFCURVE",
"313 50 CURVE",
"304 68 OFFCURVE",
"283 101 OFFCURVE",
"238 121 CURVE",
"217 116 OFFCURVE",
"166 74 OFFCURVE",
"163 51 CURVE",
"180 17 OFFCURVE",
"211 -9 OFFCURVE",
"239 -22 CURVE"
);
},
{
closed = 1;
nodes = (
"149 587 OFFCURVE",
"266 640 OFFCURVE",
"317 590 CURVE SMOOTH",
"404 505 OFFCURVE",
"155 276 OFFCURVE",
"144 265 CURVE",
"238 184 LINE",
"329 284 OFFCURVE",
"467 419 OFFCURVE",
"435 509 CURVE SMOOTH",
"423 542 OFFCURVE",
"327 656 OFFCURVE",
"258 698 CURVE SMOOTH",
"204 731 OFFCURVE",
"72 683 OFFCURVE",
"29 627 CURVE",
"107 543 LINE"
);
}
);
width = 475;
},
{
layerId = "F3BFA7D7-9187-4567-9958-41DFD36DE2A0";
width = 600;
},
{
layerId = "B0A33A77-4F7C-4BAD-AD90-E13C10AC4CE8";
width = 600;
}
);
unicode = 003F;
},
{
glyphname = at;
lastChange = "2018-05-04 04:01:28 +0000";
layers = (
{
layerId = UUID0;
paths = (
{
closed = 1;
nodes = (
"313 184 OFFCURVE",
"528 473 OFFCURVE",
"647 391 CURVE SMOOTH",
"666 378 OFFCURVE",
"660 261 OFFCURVE",
"644 183 CURVE",
"629 151 OFFCURVE",
"500 53 OFFCURVE",
"438 97 CURVE SMOOTH"
);
},
{
closed = 1;
nodes = (
"852 546 OFFCURVE",
"785 583 OFFCURVE",
"655 668 CURVE SMOOTH",
"369 856 OFFCURVE",
"-157 372 OFFCURVE",
"163 52 CURVE SMOOTH",
"211 4 OFFCURVE",
"348 -110 OFFCURVE",
"421 -166 CURVE SMOOTH",
"477 -209 OFFCURVE",
"675 -234 OFFCURVE",
"761 -120 CURVE",
"649 -25 LINE",
"580 -98 OFFCURVE",
"488 -98 OFFCURVE",
"416 -59 CURVE SMOOTH",
"-90 214 OFFCURVE",
"431 793 OFFCURVE",
"759 525 CURVE SMOOTH",
"968 354 OFFCURVE",
"824 81 OFFCURVE",
"755 170 CURVE SMOOTH",
"740 189 OFFCURVE",
"779 351 OFFCURVE",
"754 378 CURVE SMOOTH",
"711 423 OFFCURVE",
"678 436 OFFCURVE",
"632 462 CURVE SMOOTH",
"429 577 OFFCURVE",
"193 216 OFFCURVE",
"329 106 CURVE SMOOTH",
"395 53 OFFCURVE",
"413 39 OFFCURVE",
"459 11 CURVE SMOOTH",
"541 -39 OFFCURVE",
"650 32 OFFCURVE",
"700 96 CURVE",
"728 55 OFFCURVE",
"747 37 OFFCURVE",
"770 20 CURVE SMOOTH",
"881 -64 OFFCURVE",
"1122 276 OFFCURVE",
"915 483 CURVE SMOOTH"
);
}
);
width = 1054;
},
{
layerId = "F3BFA7D7-9187-4567-9958-41DFD36DE2A0";
width = 600;
},
{
layerId = "B0A33A77-4F7C-4BAD-AD90-E13C10AC4CE8";
width = 600;
}
);
unicode = 0040;
},
{
glyphname = A;
lastChange = "2018-05-04 04:00:54 +0000";
layers = (
{
anchors = (
{
name = ogonek;
position = "{403, 8}";
},
{
name = top;
position = "{338, 743}";
}
);
layerId = UUID0;
paths = (
{
closed = 1;
nodes = (
"252 666 LINE",
"10 0 LINE",
"150 -29 LINE",
"222 167 LINE",
"458 183 LINE",
"528 0 LINE",
"657 -29 LINE",
"389 622 LINE",
"390 625 LINE"
);
},
{
closed = 1;
nodes = (
"426 266 LINE",
"254 254 LINE",
"340 490 LINE"
);
}
);
width = 657;
},
{
layerId = "F3BFA7D7-9187-4567-9958-41DFD36DE2A0";
width = 600;
},
{
layerId = "B0A33A77-4F7C-4BAD-AD90-E13C10AC4CE8";
width = 600;
}
);
unicode = 0041;
},
{
glyphname = B;
lastChange = "2018-05-04 04:01:28 +0000";
layers = (
{
layerId = UUID0;
paths = (
{
closed = 1;
nodes = (
"594 -92 OFFCURVE",
"699 161 OFFCURVE",
"644 226 CURVE SMOOTH",
"614 260 OFFCURVE",
"562 302 OFFCURVE",
"512 331 CURVE",
"591 391 OFFCURVE",
"609 488 OFFCURVE",
"580 523 CURVE SMOOTH",
"545 564 OFFCURVE",
"459 649 OFFCURVE",
"414 678 CURVE SMOOTH",
"378 701 OFFCURVE",
"184 700 OFFCURVE",
"70 669 CURVE",
"70 666 LINE",
"70 30 LINE",
"210 -1 LINE"
);
},
{
closed = 1;
nodes = (
"573 225 OFFCURVE",
"512 21 OFFCURVE",
"210 52 CURVE",
"209 301 LINE",
"316 269 OFFCURVE",
"399 275 OFFCURVE",
"460 301 CURVE"
);
},
{
closed = 1;
nodes = (
"491 537 OFFCURVE",
"481 350 OFFCURVE",
"209 351 CURVE",
"208 576 LINE",
"305 605 OFFCURVE",
"416 618 OFFCURVE",
"456 575 CURVE SMOOTH"
);
}
);
width = 694;
},
{
layerId = "F3BFA7D7-9187-4567-9958-41DFD36DE2A0";
width = 600;
},
{
layerId = "B0A33A77-4F7C-4BAD-AD90-E13C10AC4CE8";
width = 600;
}
);
unicode = 0042;
},
{
glyphname = C;
lastChange = "2018-05-04 04:01:28 +0000";
layers = (
{
anchors = (
{
name = cedilla;
position = "{188, 8}";
},
{
name = top;
position = "{418, 743}";
}
);
layerId = UUID0;
paths = (
{
closed = 1;
nodes = (
"634 527 OFFCURVE",
"683 580 OFFCURVE",
"683 581 CURVE",
"614 616 OFFCURVE",
"572 636 OFFCURVE",
"447 693 CURVE SMOOTH",
"222 796 OFFCURVE",
"-112 379 OFFCURVE",
"141 146 CURVE SMOOTH",
"209 84 OFFCURVE",
"251 52 OFFCURVE",
"331 5 CURVE SMOOTH",
"451 -66 OFFCURVE",
"606 -6 OFFCURVE",
"705 78 CURVE",
"584 167 LINE",
"505 107 OFFCURVE",
"396 39 OFFCURVE",
"295 106 CURVE SMOOTH",
"56 264 OFFCURVE",
"305 677 OFFCURVE",
"488 598 CURVE SMOOTH",
"560 567 OFFCURVE",
"604 543 OFFCURVE",
"634 527 CURVE"
);
}
);
width = 706;
},
{
layerId = "F3BFA7D7-9187-4567-9958-41DFD36DE2A0";
width = 600;
},
{
layerId = "B0A33A77-4F7C-4BAD-AD90-E13C10AC4CE8";
width = 600;
}
);
unicode = 0043;
},
{
glyphname = D;
lastChange = "2018-05-04 04:01:28 +0000";
layers = (
{
anchors = (
{
name = top;
position = "{375, 683}";
}
);
layerId = UUID0;
paths = (
{
closed = 1;
nodes = (
"306 -21 OFFCURVE",
"442 -25 OFFCURVE",
"516 4 CURVE SMOOTH",
"747 93 OFFCURVE",
"729 359 OFFCURVE",
"697 395 CURVE SMOOTH",
"615 489 OFFCURVE",
"514 599 OFFCURVE",
"422 663 CURVE SMOOTH",
"377 694 OFFCURVE",
"120 682 OFFCURVE",
"71 666 CURVE",
"71 665 LINE",
"70 666 LINE",
"70 30 LINE",
"209 1 LINE",
"210 1 LINE"
);
},
{
closed = 1;
nodes = (
"667 376 OFFCURVE",
"496 22 OFFCURVE",
"210 61 CURVE",
"208 562 LINE",
"301 574 OFFCURVE",
"413 588 OFFCURVE",
"512 506 CURVE SMOOTH"
);
}
);
width = 766;
},
{
layerId = "F3BFA7D7-9187-4567-9958-41DFD36DE2A0";
width = 600;
},
{
layerId = "B0A33A77-4F7C-4BAD-AD90-E13C10AC4CE8";
width = 600;
}
);
unicode = 0044;
},
{
glyphname = E;
lastChange = "2018-05-04 04:01:28 +0000";
layers = (
{
anchors = (
{
name = ogonek;
position = "{425, 101}";
},
{
name = top;
position = "{327, 743}";
}
);
layerId = UUID0;
paths = (
{
closed = 1;
nodes = (
"617 0 LINE",
"537 90 LINE",
"209 90 LINE",
"209 295 LINE",
"537 295 LINE",
"457 385 LINE",
"208 385 LINE",
"208 577 LINE",
"577 577 LINE",
"497 667 LINE",
"70 667 LINE",
"70 29 LINE",
"198 2 LINE",
"200 0 LINE"
);
}
);
width = 632;
},
{
layerId = "F3BFA7D7-9187-4567-9958-41DFD36DE2A0";
width = 600;
},
{
layerId = "B0A33A77-4F7C-4BAD-AD90-E13C10AC4CE8";
width = 600;
}
);
unicode = 0045;
},
{
glyphname = F;
lastChange = "2018-05-04 04:01:28 +0000";
layers = (
{
layerId = UUID0;
paths = (
{
closed = 1;
nodes = (
"457 355 LINE",
"208 355 LINE",
"208 577 LINE",
"577 577 LINE",
"497 667 LINE",
"70 667 LINE",
"71 665 LINE",
"70 666 LINE",
"70 0 LINE",
"210 -29 LINE",
"209 265 LINE",
"537 265 LINE"
);
}
);
width = 582;
},
{
layerId = "F3BFA7D7-9187-4567-9958-41DFD36DE2A0";
width = 600;
},
{
layerId = "B0A33A77-4F7C-4BAD-AD90-E13C10AC4CE8";
width = 600;
}
);
unicode = 0046;
},
{
glyphname = G;
lastChange = "2018-05-04 04:01:28 +0000";
layers = (
{
anchors = (
{
name = top;
position = "{442, 723}";
}
);
layerId = UUID0;
paths = (
{
closed = 1;
nodes = (
"606 248 LINE",
"537 171 OFFCURVE",
"422 31 OFFCURVE",
"298 103 CURVE SMOOTH",
"79 230 OFFCURVE",
"270 677 OFFCURVE",
"495 588 CURVE SMOOTH",
"558 563 OFFCURVE",
"606 545 OFFCURVE",
"636 531 CURVE",
"636 531 OFFCURVE",
"679 583 OFFCURVE",
"679 584 CURVE",
"610 619 OFFCURVE",
"571 636 OFFCURVE",
"446 693 CURVE SMOOTH",
"221 796 OFFCURVE",
"-129 385 OFFCURVE",
"159 120 CURVE SMOOTH",
"192 90 OFFCURVE",
"254 48 OFFCURVE",
"330 5 CURVE SMOOTH",
"444 -59 OFFCURVE",
"537 4 OFFCURVE",
"619 75 CURVE",
"622 30 LINE SMOOTH",
"629 -76 OFFCURVE",
"735 -136 OFFCURVE",
"828 -111 CURVE",
"758 -91 OFFCURVE",
"743 -56 OFFCURVE",
"743 47 CURVE SMOOTH",
"743 76 OFFCURVE",
"741 297 OFFCURVE",
"741 297 CURVE",
"603 338 LINE",
"370 338 LINE",
"450 248 LINE"
);
}
);
width = 813;
},
{
layerId = "F3BFA7D7-9187-4567-9958-41DFD36DE2A0";
width = 600;
},
{
layerId = "B0A33A77-4F7C-4BAD-AD90-E13C10AC4CE8";
width = 600;
}
);
unicode = 0047;
},
{
glyphname = H;
lastChange = "2018-05-04 04:01:28 +0000";
layers = (
{
layerId = UUID0;
paths = (
{
closed = 1;
nodes = (
"70 666 LINE",
"70 0 LINE",
"210 -29 LINE",
"209 261 LINE",
"532 279 LINE",
"532 0 LINE",
"672 -29 LINE",
"672 626 LINE",
"532 666 LINE",
"532 364 LINE",
"209 346 LINE",
"208 626 LINE"
);
}
);
width = 742;
},
{
layerId = "F3BFA7D7-9187-4567-9958-41DFD36DE2A0";
width = 600;
},
{
layerId = "B0A33A77-4F7C-4BAD-AD90-E13C10AC4CE8";
width = 600;
}
);
unicode = 0048;
},
{
glyphname = I;
lastChange = "2018-05-04 04:01:28 +0000";
layers = (
{
anchors = (
{
name = ogonek;
position = "{102, 8}";
},
{
name = top;
position = "{259, 743}";
}
);
layerId = UUID0;
paths = (
{
closed = 1;
nodes = (
"70 666 LINE",
"70 0 LINE",
"220 -29 LINE",
"218 625 LINE"
);
}
);
width = 290;
},
{
layerId = "F3BFA7D7-9187-4567-9958-41DFD36DE2A0";
width = 600;
},
{
layerId = "B0A33A77-4F7C-4BAD-AD90-E13C10AC4CE8";
width = 600;
}
);
unicode = 0049;
},
{
glyphname = J;
lastChange = "2018-05-04 04:01:28 +0000";
layers = (
{
layerId = UUID0;
paths = (
{
closed = 1;
nodes = (
"144 667 LINE",
"144 83 LINE SMOOTH",
"144 -37 OFFCURVE",
"76 -167 OFFCURVE",
"-150 -87 CURVE",
"-175 -105 LINE",
"-100 -169 OFFCURVE",
"-20 -192 OFFCURVE",
"38 -192 CURVE SMOOTH",
"178 -192 OFFCURVE",
"283 -56 OFFCURVE",
"283 15 CURVE SMOOTH",
"283 626 LINE"
);
}
);
width = 353;
},
{
layerId = "F3BFA7D7-9187-4567-9958-41DFD36DE2A0";
width = 600;
},
{
layerId = "B0A33A77-4F7C-4BAD-AD90-E13C10AC4CE8";
width = 600;
}
);
unicode = 004A;
},
{
glyphname = K;
lastChange = "2018-05-04 04:01:28 +0000";
layers = (
{
layerId = UUID0;
paths = (
{
closed = 1;
nodes = (
"73 666 LINE",
"73 131 LINE",
"70 127 LINE",
"73 126 LINE",
"73 0 LINE",
"213 -29 LINE",
"212 115 LINE",
"350 288 LINE",
"540 0 LINE",
"670 -29 LINE",
"408 361 LINE",
"627 637 LINE",
"497 666 LINE",
"212 306 LINE",
"211 625 LINE"
);
}
);
width = 680;
},
{
layerId = "F3BFA7D7-9187-4567-9958-41DFD36DE2A0";
width = 600;
},
{
layerId = "B0A33A77-4F7C-4BAD-AD90-E13C10AC4CE8";
width = 600;
}
);
unicode = 004B;
},
{
glyphname = M;
lastChange = "2018-05-04 04:01:28 +0000";
layers = (
{
layerId = UUID0;
paths = (
{
closed = 1;
nodes = (
"70 666 LINE",
"70 0 LINE",
"210 -29 LINE",
"208 394 LINE",
"366 1 LINE",
"367 2 LINE",
"366 0 LINE",
"496 -29 LINE",
"661 337 LINE",
"661 0 LINE",
"801 -29 LINE",
"799 626 LINE",
"661 666 LINE",
"418 117 LINE",
"208 626 LINE"
);
}
);
width = 871;
},
{
layerId = "F3BFA7D7-9187-4567-9958-41DFD36DE2A0";
width = 600;
},
{
layerId = "B0A33A77-4F7C-4BAD-AD90-E13C10AC4CE8";
width = 600;
}
);
unicode = 004D;
},
{
glyphname = N;
lastChange = "2018-05-04 04:01:28 +0000";
layers = (
{
anchors = (
{
name = top;
position = "{406, 743}";
}
);
layerId = UUID0;
paths = (
{
closed = 1;
nodes = (
"532 666 LINE",
"532 173 LINE",
"208 626 LINE",
"70 666 LINE",
"70 0 LINE",
"210 -29 LINE",
"208 458 LINE",
"532 0 LINE",
"672 -29 LINE",
"672 626 LINE"
);
}
);
width = 742;
},
{
layerId = "F3BFA7D7-9187-4567-9958-41DFD36DE2A0";
width = 600;
},
{
layerId = "B0A33A77-4F7C-4BAD-AD90-E13C10AC4CE8";
width = 600;
}
);
unicode = 004E;
},
{
glyphname = O;
lastChange = "2018-05-04 04:01:28 +0000";
layers = (
{
anchors = (
{
name = top;
position = "{482, 743}";
}
);
layerId = UUID0;
paths = (
{
closed = 1;
nodes = (
"736 430 OFFCURVE",
"520 -39 OFFCURVE",
"284 102 CURVE SMOOTH",
"59 236 OFFCURVE",
"285 728 OFFCURVE",
"521 572 CURVE SMOOTH"
);
},
{
closed = 1;
nodes = (
"616 582 OFFCURVE",
"554 629 OFFCURVE",
"454 683 CURVE SMOOTH",
"191 825 OFFCURVE",
"-82 346 OFFCURVE",
"121 152 CURVE SMOOTH",
"213 63 OFFCURVE",
"258 44 OFFCURVE",
"330 4 CURVE SMOOTH",
"619 -160 OFFCURVE",
"887 319 OFFCURVE",
"677 523 CURVE SMOOTH"
);
}
);
width = 803;
},
{
layerId = "F3BFA7D7-9187-4567-9958-41DFD36DE2A0";
width = 600;
},
{
layerId = "B0A33A77-4F7C-4BAD-AD90-E13C10AC4CE8";
width = 600;
}
);
unicode = 004F;
},
{
glyphname = P;
lastChange = "2018-05-04 04:01:28 +0000";
layers = (
{
layerId = UUID0;
paths = (
{
closed = 1;
nodes = (
"210 -29 LINE",
"209 233 LINE",
"516 137 OFFCURVE",
"648 446 OFFCURVE",
"598 506 CURVE SMOOTH",
"563 547 OFFCURVE",
"452 657 OFFCURVE",
"415 690 CURVE SMOOTH",
"384 719 OFFCURVE",
"184 700 OFFCURVE",
"70 669 CURVE",
"70 0 LINE"
);
},
{
closed = 1;
nodes = (
"510 519 OFFCURVE",
"463 252 OFFCURVE",
"209 280 CURVE",
"208 599 LINE",
"297 616 OFFCURVE",
"411 630 OFFCURVE",
"458 578 CURVE SMOOTH"
);
}
);
width = 649;
},
{
layerId = "F3BFA7D7-9187-4567-9958-41DFD36DE2A0";
width = 600;
},
{
layerId = "B0A33A77-4F7C-4BAD-AD90-E13C10AC4CE8";
width = 600;
}
);
unicode = 0050;
},
{
glyphname = Q;
lastChange = "2018-05-04 04:01:28 +0000";
layers = (
{
layerId = UUID0;
paths = (
{
closed = 1;
nodes = (
"616 582 OFFCURVE",
"554 629 OFFCURVE",
"454 683 CURVE SMOOTH",
"191 825 OFFCURVE",
"-82 346 OFFCURVE",
"121 152 CURVE SMOOTH",
"213 63 OFFCURVE",
"258 44 OFFCURVE",
"330 4 CURVE SMOOTH",
"345 -4 OFFCURVE",
"359 -11 OFFCURVE",
"374 -16 CURVE",
"371 -44 OFFCURVE",
"369 -73 OFFCURVE",
"369 -101 CURVE SMOOTH",
"367 -207 OFFCURVE",
"471 -281 OFFCURVE",
"576 -236 CURVE",
"463 -245 OFFCURVE",
"478 -153 OFFCURVE",
"483 -56 CURVE SMOOTH",
"483 -46 OFFCURVE",
"484 -36 OFFCURVE",
"485 -26 CURVE",
"701 8 OFFCURVE",
"848 356 OFFCURVE",
"677 523 CURVE SMOOTH"
);
},
{
closed = 1;
nodes = (
"663 478 OFFCURVE",
"616 240 OFFCURVE",
"500 131 CURVE",
"501 170 OFFCURVE",
"498 200 OFFCURVE",
"484 212 CURVE SMOOTH",
"455 236 OFFCURVE",
"335 354 OFFCURVE",
"288 358 CURVE SMOOTH",
"271 359 OFFCURVE",
"230 347 OFFCURVE",
"195 335 CURVE",
"221 504 OFFCURVE",
"369 672 OFFCURVE",
"521 572 CURVE SMOOTH"
);
},
{
closed = 1;
nodes = (
"387 228 OFFCURVE",
"388 159 OFFCURVE",
"382 76 CURVE",
"350 74 OFFCURVE",
"317 82 OFFCURVE",
"284 102 CURVE SMOOTH",
"239 128 OFFCURVE",
"212 170 OFFCURVE",
"199 217 CURVE",
"240 284 OFFCURVE",
"315 274 OFFCURVE",
"346 255 CURVE SMOOTH"
);
}
);
width = 803;
},
{
layerId = "F3BFA7D7-9187-4567-9958-41DFD36DE2A0";
width = 600;
},
{
layerId = "B0A33A77-4F7C-4BAD-AD90-E13C10AC4CE8";
width = 600;
}
);
unicode = 0051;
},
{
glyphname = R;
lastChange = "2018-05-04 04:01:28 +0000";
layers = (
{
anchors = (
{
name = top;
position = "{392, 743}";
}
);
layerId = UUID0;
paths = (
{
closed = 1;
nodes = (
"496 167 OFFCURVE",
"495 101 OFFCURVE",
"498 53 CURVE SMOOTH",
"504 -53 OFFCURVE",
"581 -115 OFFCURVE",
"687 -94 CURVE",
"598 -66 OFFCURVE",
"619 -11 OFFCURVE",
"620 53 CURVE SMOOTH",
"621 109 OFFCURVE",
"637 174 OFFCURVE",
"600 228 CURVE",
"594 235 OFFCURVE",
"537 261 OFFCURVE",
"485 283 CURVE",
"593 350 OFFCURVE",
"629 468 OFFCURVE",
"598 506 CURVE SMOOTH",
"563 547 OFFCURVE",
"452 657 OFFCURVE",
"415 690 CURVE SMOOTH",
"384 719 OFFCURVE",
"184 700 OFFCURVE",
"70 669 CURVE",
"70 0 LINE",
"210 -29 LINE",
"209 249 LINE",
"298 229 OFFCURVE",
"372 235 OFFCURVE",
"431 257 CURVE",
"451 240 OFFCURVE",
"471 220 OFFCURVE",
"477 208 CURVE SMOOTH"
);
},
{
closed = 1;
nodes = (
"519 521 OFFCURVE",
"457 310 OFFCURVE",
"209 313 CURVE",
"208 593 LINE",
"295 611 OFFCURVE",
"407 627 OFFCURVE",
"460 577 CURVE SMOOTH"
);
}
);
width = 679;
},
{
layerId = "F3BFA7D7-9187-4567-9958-41DFD36DE2A0";
width = 600;
},
{
layerId = "B0A33A77-4F7C-4BAD-AD90-E13C10AC4CE8";
width = 600;
}
);
unicode = 0052;
},
{
glyphname = S;
lastChange = "2018-05-04 04:01:28 +0000";
layers = (
{
anchors = (
{
name = cedilla;
position = "{226, 0}";
},
{
name = top;
position = "{435, 743}";
}
);
layerId = UUID0;
paths = (
{
closed = 1;
nodes = (
"597 575 LINE",
"516 615 OFFCURVE",
"395 684 OFFCURVE",
"365 684 CURVE SMOOTH",
"191 684 OFFCURVE",
"14 502 OFFCURVE",
"112 395 CURVE SMOOTH",
"169 332 OFFCURVE",
"197 301 OFFCURVE",
"237 269 CURVE SMOOTH",
"295 221 OFFCURVE",
"570 301 OFFCURVE",
"568 278 CURVE SMOOTH",
"557 167 OFFCURVE",
"470 97 OFFCURVE",
"343 100 CURVE SMOOTH",
"254 102 OFFCURVE",
"152 155 OFFCURVE",
"65 201 CURVE",
"35 186 LINE",
"456 -271 OFFCURVE",
"736 133 OFFCURVE",
"685 227 CURVE SMOOTH",
"657 279 OFFCURVE",
"612 331 OFFCURVE",
"546 390 CURVE SMOOTH",
"511 421 OFFCURVE",
"212 368 OFFCURVE",
"216 395 CURVE SMOOTH",
"252 619 OFFCURVE",
"464 573 OFFCURVE",
"584 527 CURVE"
);
}
);
width = 726;
},
{
layerId = "F3BFA7D7-9187-4567-9958-41DFD36DE2A0";
width = 600;
},
{
layerId = "B0A33A77-4F7C-4BAD-AD90-E13C10AC4CE8";
width = 600;
}
);
unicode = 0053;
},
{
glyphname = T;
lastChange = "2018-05-04 04:01:28 +0000";
layers = (
{
anchors = (
{
name = cedilla;
position = "{248, 0}";
},
{
name = top;
position = "{420, 743}";
}
);
layerId = UUID0;
paths = (
{
closed = 1;
nodes = (
"268 577 LINE",
"268 0 LINE",
"408 -29 LINE",
"406 577 LINE",
"647 577 LINE",
"567 667 LINE",
"0 667 LINE",
"80 577 LINE"
);
}
);
width = 647;
},
{
layerId = "F3BFA7D7-9187-4567-9958-41DFD36DE2A0";
width = 600;
},
{
layerId = "B0A33A77-4F7C-4BAD-AD90-E13C10AC4CE8";
width = 600;
}
);
unicode = 0054;
},
{
glyphname = U;
lastChange = "2018-05-04 04:01:28 +0000";
layers = (
{
anchors = (
{
name = ogonek;
position = "{270, 23}";
},
{
name = top;
position = "{342, 743}";
}
);
layerId = UUID0;
paths = (
{
closed = 1;
nodes = (
"512 667 LINE",
"512 196 LINE",
"467 85 OFFCURVE",
"291 26 OFFCURVE",
"206 118 CURVE",
"201 124 OFFCURVE",
"205 626 OFFCURVE",
"205 626 CURVE",
"205 627 OFFCURVE",
"66 666 OFFCURVE",
"67 667 CURVE",
"67 667 OFFCURVE",
"61 181 OFFCURVE",
"70 171 CURVE SMOOTH",
"160 71 OFFCURVE",
"293 -30 OFFCURVE",
"376 -30 CURVE SMOOTH",
"516 -30 OFFCURVE",
"651 87 OFFCURVE",
"651 158 CURVE",
"651 626 LINE"
);
}
);
width = 721;
},
{
layerId = "F3BFA7D7-9187-4567-9958-41DFD36DE2A0";
width = 600;
},
{
layerId = "B0A33A77-4F7C-4BAD-AD90-E13C10AC4CE8";
width = 600;
}
);
unicode = 0055;
},
{
glyphname = V;
lastChange = "2018-05-04 04:01:28 +0000";
layers = (
{
layerId = UUID0;
paths = (
{
closed = 1;
nodes = (
"415 -29 LINE",
"657 637 LINE",
"507 666 LINE",
"325 171 LINE",
"139 637 LINE",
"0 666 LINE",
"268 14 LINE",
"267 12 LINE"
);
}
);
width = 647;
},
{
layerId = "F3BFA7D7-9187-4567-9958-41DFD36DE2A0";
width = 600;
},
{
layerId = "B0A33A77-4F7C-4BAD-AD90-E13C10AC4CE8";
width = 600;
}
);
unicode = 0056;
},
{
glyphname = W;
lastChange = "2018-05-04 04:01:28 +0000";
layers = (
{
layerId = UUID0;
paths = (
{
closed = 1;
nodes = (
"415 -29 LINE",
"579 465 LINE",
"766 14 LINE",
"765 12 LINE",
"913 -29 LINE",
"1135 637 LINE",
"985 666 LINE",
"821 177 LINE",
"637 637 LINE",
"487 666 LINE",
"323 177 LINE",
"139 637 LINE",
"0 666 LINE",
"268 14 LINE",
"267 12 LINE"
);
}
);
width = 1108;
},
{
layerId = "F3BFA7D7-9187-4567-9958-41DFD36DE2A0";
width = 600;
},
{
layerId = "B0A33A77-4F7C-4BAD-AD90-E13C10AC4CE8";
width = 600;
}
);
unicode = 0057;
},
{
glyphname = X;
lastChange = "2018-05-04 04:01:28 +0000";
layers = (
{
layerId = UUID0;
paths = (
{
closed = 1;
nodes = (
"42 667 LINE",
"287 345 LINE",
"30 0 LINE",
"169 -29 LINE",
"369 238 LINE",
"550 0 LINE",
"690 -29 LINE",
"426 314 LINE",
"667 637 LINE",
"527 666 LINE",
"344 421 LINE",
"177 638 LINE"
);
}
);
width = 710;
},
{
layerId = "F3BFA7D7-9187-4567-9958-41DFD36DE2A0";
width = 600;
},
{
layerId = "B0A33A77-4F7C-4BAD-AD90-E13C10AC4CE8";
width = 600;
}
);
unicode = 0058;
},
{
glyphname = Y;
lastChange = "2018-05-04 04:01:28 +0000";
layers = (
{
anchors = (
{
name = top;
position = "{328, 743}";
}
);
layerId = UUID0;
paths = (
{
closed = 1;
nodes = (
"0 667 LINE",
"246 275 LINE",
"246 0 LINE",
"386 -29 LINE",
"384 244 LINE",
"600 637 LINE",
"461 666 LINE",
"297 367 LINE",
"125 638 LINE"
);
}
);
width = 591;
},
{
layerId = "F3BFA7D7-9187-4567-9958-41DFD36DE2A0";
width = 600;
},
{
layerId = "B0A33A77-4F7C-4BAD-AD90-E13C10AC4CE8";
width = 600;
}
);
unicode = 0059;
},
{
glyphname = bracketleft;
lastChange = "2018-05-04 04:01:28 +0000";
layers = (
{
layerId = UUID0;
paths = (
{
closed = 1;
nodes = (
"402 0 LINE",
"322 90 LINE",
"215 90 LINE",
"213 619 LINE",
"362 619 LINE",
"282 709 LINE",
"85 709 LINE",
"86 707 LINE",
"85 708 LINE",
"85 90 LINE",
"165 0 LINE"
);
}
);
width = 463;
},
{
layerId = "F3BFA7D7-9187-4567-9958-41DFD36DE2A0";
width = 600;
},
{
layerId = "B0A33A77-4F7C-4BAD-AD90-E13C10AC4CE8";
width = 600;
}
);
unicode = 005B;
},
{
glyphname = backslash;
lastChange = "2018-05-04 04:01:28 +0000";
layers = (
{
layerId = UUID0;
paths = (
{
closed = 1;
nodes = (
"91 710 LINE",
"397 0 LINE",
"527 -29 LINE",
"221 670 LINE"
);
}
);
width = 600;
},
{
layerId = "F3BFA7D7-9187-4567-9958-41DFD36DE2A0";
width = 600;
},
{
layerId = "B0A33A77-4F7C-4BAD-AD90-E13C10AC4CE8";
width = 600;
}
);
unicode = 005C;
},
{
glyphname = bracketright;
lastChange = "2018-05-04 04:01:28 +0000";
layers = (
{
layerId = UUID0;
paths = (
{
closed = 1;
nodes = (
"85 709 LINE",
"165 619 LINE",
"272 619 LINE",
"274 90 LINE",
"125 90 LINE",
"205 0 LINE",
"402 0 LINE",
"401 1 LINE",
"402 1 LINE",
"402 619 LINE",
"322 709 LINE"
);
}
);
width = 521;
},
{
layerId = "F3BFA7D7-9187-4567-9958-41DFD36DE2A0";
width = 600;
},
{
layerId = "B0A33A77-4F7C-4BAD-AD90-E13C10AC4CE8";
width = 600;
}
);
unicode = 005D;
},
{
glyphname = asciicircum;
lastChange = "2018-05-04 04:01:28 +0000";
layers = (
{
layerId = UUID0;
paths = (
{
closed = 1;
nodes = (
"103 610 LINE",
"262 798 LINE",
"392 609 LINE",
"425 649 LINE",
"240 893 LINE",
"26 688 LINE"
);
}
);
width = 422;
},
{
layerId = "F3BFA7D7-9187-4567-9958-41DFD36DE2A0";
width = 600;
},
{
layerId = "B0A33A77-4F7C-4BAD-AD90-E13C10AC4CE8";
width = 600;
}
);
unicode = 005E;
},
{
glyphname = underscore;
lastChange = "2018-05-04 04:01:28 +0000";
layers = (
{
layerId = UUID0;
paths = (
{
closed = 1;
nodes = (
"597 0 LINE",
"567 73 LINE",
"34 73 LINE",
"64 0 LINE"
);
}
);
width = 619;
},
{
layerId = "F3BFA7D7-9187-4567-9958-41DFD36DE2A0";
width = 600;
},
{
layerId = "B0A33A77-4F7C-4BAD-AD90-E13C10AC4CE8";
width = 600;
}
);
unicode = 005F;
},
{
glyphname = grave;
lastChange = "2018-05-04 04:01:28 +0000";
layers = (
{
anchors = (
{
name = _top;
position = "{338, 546}";
}
);
layerId = UUID0;
paths = (
{
closed = 1;
nodes = (
"326 644 OFFCURVE",
"275 700 OFFCURVE",
"226 770 CURVE",
"211 772 OFFCURVE",
"144 691 OFFCURVE",
"162 676 CURVE SMOOTH",
"217 629 OFFCURVE",
"287 578 OFFCURVE",
"341 550 CURVE",
"364 591 LINE"
);
}
);
width = 338;
},
{
layerId = "F3BFA7D7-9187-4567-9958-41DFD36DE2A0";
width = 600;
},
{
layerId = "B0A33A77-4F7C-4BAD-AD90-E13C10AC4CE8";
width = 600;
}
);
unicode = 0060;
},
{
color = 9;
glyphname = a;
lastChange = "2018-05-05 06:19:46 +0000";
layers = (
{
anchors = (
{
name = ogonek;
position = "{388, 7}";
},
{
name = top;
position = "{418, 507}";
}
);
background = {
paths = (
{
closed = 1;
nodes = (
"259 397 OFFCURVE",
"380 435 OFFCURVE",
"378 348 CURVE SMOOTH",
"377 321 LINE",
"314 316 OFFCURVE",
"46 279 OFFCURVE",
"45 190 CURVE SMOOTH",
"45 144 OFFCURVE",
"172 -29 OFFCURVE",
"241 -30 CURVE SMOOTH",
"284 -30 OFFCURVE",
"339 17 OFFCURVE",
"373 51 CURVE",
"372 0 LINE",
"496 -29 LINE",
"492 56 OFFCURVE",
"510 300 OFFCURVE",
"492 327 CURVE SMOOTH",
"467 364 OFFCURVE",
"347 489 OFFCURVE",
"315 491 CURVE SMOOTH",
"283 493 OFFCURVE",
"136 463 OFFCURVE",
"52 442 CURVE",
"106 351 LINE"
);
},
{
closed = 1;
nodes = (
"112 168 OFFCURVE",
"311 226 OFFCURVE",
"376 245 CURVE",
"375 157 LINE",
"246 61 OFFCURVE",
"171 76 OFFCURVE",
"156 100 CURVE SMOOTH"
);
},
{
closed = 1;
nodes = (
"414 214 LINE",
"407 221 OFFCURVE",
"279 305 OFFCURVE",
"261 315 CURVE SMOOTH",
"187 356 OFFCURVE",
"133 306 OFFCURVE",
"92 248 CURVE SMOOTH",
"36 169 OFFCURVE",
"6 101 OFFCURVE",
"122 19 CURVE SMOOTH",
"263 -81 OFFCURVE",
"353 6 OFFCURVE",
"395 96 CURVE SMOOTH",
"403 113 OFFCURVE",
"409 141 OFFCURVE",
"417 157 CURVE",
"379 214 LINE",
"374 134 OFFCURVE",
"241 18 OFFCURVE",
"152 79 CURVE SMOOTH",
"123 99 OFFCURVE",
"138 152 OFFCURVE",
"169 193 CURVE SMOOTH",
"210 248 OFFCURVE",
"267 253 OFFCURVE",
"341 207 CURVE SMOOTH",
"354 199 OFFCURVE",
"376 183 OFFCURVE",
"387 176 CURVE"
);
}
);
};
guideLines = (
{
position = "{68, -28}";
},
{
angle = 234.6991;
position = "{323, 240}";
},
{
angle = 144.6852;
position = "{407, 429}";
},
{
angle = 144.6852;
position = "{313, 226}";
},
{
position = "{105, 495}";
},
{
angle = 144.6852;
position = "{153, 88}";
},
{
angle = 144.6852;
position = "{143, 23}";
}
);
layerId = UUID0;
paths = (
{
closed = 1;
nodes = (
"378 200 LINE",
"370 188 OFFCURVE",
"359 168 OFFCURVE",
"348 157 CURVE SMOOTH",
"289 98 OFFCURVE",
"206 46 OFFCURVE",
"162 81 CURVE SMOOTH",
"142 97 OFFCURVE",
"149 168 OFFCURVE",
"263 200 CURVE SMOOTH",
"306 212 OFFCURVE",
"396 236 OFFCURVE",
"406 238 CURVE",
"382 315 LINE",
"289 295 OFFCURVE",
"243 286 OFFCURVE",
"127 253 CURVE SMOOTH",
"69 237 OFFCURVE",
"28 116 OFFCURVE",
"102 55 CURVE SMOOTH",
"245 -64 OFFCURVE",
"307 -55 OFFCURVE",
"380 91 CURVE SMOOTH",
"388 108 OFFCURVE",
"393 123 OFFCURVE",
"399 137 CURVE"
);
},
{
closed = 1;
nodes = (
"55 395 OFFCURVE",
"125 318 OFFCURVE",
"131 318 CURVE SMOOTH",
"136 318 OFFCURVE",
"151 329 OFFCURVE",
"161 335 CURVE SMOOTH",
"226 374 OFFCURVE",
"293 419 OFFCURVE",
"342 384 CURVE SMOOTH",
"383 355 OFFCURVE",
"371 344 OFFCURVE",
"371 248 CURVE SMOOTH",
"371 122 OFFCURVE",
"370 5 OFFCURVE",
"372 2 CURVE SMOOTH",
"376 -4 OFFCURVE",
"486 -30 OFFCURVE",
"492 -27 CURVE SMOOTH",
"496 -25 OFFCURVE",
"493 124 OFFCURVE",
"493 280 CURVE SMOOTH",
"493 365 OFFCURVE",
"510 354 OFFCURVE",
"412 424 CURVE SMOOTH",
"274 523 OFFCURVE",
"245 517 OFFCURVE",
"92 423 CURVE SMOOTH",
"79 415 OFFCURVE",
"55 405 OFFCURVE",
"55 401 CURVE SMOOTH"
);
}
);
width = 556;
},
{
layerId = "B0A33A77-4F7C-4BAD-AD90-E13C10AC4CE8";
width = 600;
},
{
layerId = "F3BFA7D7-9187-4567-9958-41DFD36DE2A0";
width = 600;
}
);
unicode = 0061;
},
{
glyphname = b;
lastChange = "2018-05-04 04:01:28 +0000";
layers = (
{
layerId = UUID0;
paths = (
{
closed = 1;
nodes = (
"524 690 OFFCURVE",
"545 -20 OFFCURVE",
"188 42 CURVE",
"188 248 LINE"
);
},
{
closed = 1;
nodes = (
"63 709 LINE",
"63 52 LINE",
"126 14 OFFCURVE",
"207 -14 OFFCURVE",
"284 -29 CURVE SMOOTH",
"472 -66 OFFCURVE",
"663 228 OFFCURVE",
"501 376 CURVE SMOOTH",
"456 418 OFFCURVE",
"397 458 OFFCURVE",
"362 472 CURVE SMOOTH",
"291 500 OFFCURVE",
"255 488 OFFCURVE",
"188 428 CURVE",
"188 681 LINE"
);
}
);
width = 608;
},
{
layerId = "F3BFA7D7-9187-4567-9958-41DFD36DE2A0";
width = 600;
},
{
layerId = "B0A33A77-4F7C-4BAD-AD90-E13C10AC4CE8";
width = 600;
}
);
unicode = 0062;
},
{
color = 9;
glyphname = c;
lastChange = "2018-05-05 06:19:46 +0000";
layers = (
{
anchors = (
{
name = cedilla;
position = "{297, -43}";
},
{
name = top;
position = "{259, 507}";
}
);
background = {
paths = (
{
closed = 1;
nodes = (
"468 365 LINE",
"461 372 OFFCURVE",
"333 456 OFFCURVE",
"315 466 CURVE SMOOTH",
"241 507 OFFCURVE",
"187 457 OFFCURVE",
"146 399 CURVE SMOOTH",
"90 320 OFFCURVE",
"60 252 OFFCURVE",
"176 170 CURVE SMOOTH",
"317 70 OFFCURVE",
"407 157 OFFCURVE",
"449 247 CURVE SMOOTH",
"457 264 OFFCURVE",
"463 292 OFFCURVE",
"471 308 CURVE",
"433 365 LINE",
"428 285 OFFCURVE",
"295 169 OFFCURVE",
"206 230 CURVE SMOOTH",
"177 250 OFFCURVE",
"192 303 OFFCURVE",
"223 344 CURVE SMOOTH",
"264 399 OFFCURVE",
"321 404 OFFCURVE",
"395 358 CURVE SMOOTH",
"408 350 OFFCURVE",
"430 334 OFFCURVE",
"441 327 CURVE"
);
}
);
};
guideLines = (
{
position = "{68, -28}";
}
);
layerId = UUID0;
paths = (
{
closed = 1;
nodes = (
"465 312 OFFCURVE",
"496 350 OFFCURVE",
"496 354 CURVE SMOOTH",
"496 358 OFFCURVE",
"463 381 OFFCURVE",
"429 407 CURVE SMOOTH",
"290 512 OFFCURVE",
"208 515 OFFCURVE",
"99 372 CURVE SMOOTH",
"-10 229 OFFCURVE",
"24 144 OFFCURVE",
"154 45 CURVE SMOOTH",
"284 -54 OFFCURVE",
"359 -51 OFFCURVE",
"493 58 CURVE SMOOTH",
"498 62 OFFCURVE",
"507 68 OFFCURVE",
"507 72 CURVE SMOOTH",
"507 76 OFFCURVE",
"447 161 OFFCURVE",
"443 161 CURVE SMOOTH",
"439 161 OFFCURVE",
"434 156 OFFCURVE",
"430 153 CURVE SMOOTH",
"351 94 OFFCURVE",
"256 49 OFFCURVE",
"193 97 CURVE SMOOTH",
"130 145 OFFCURVE",
"133 234 OFFCURVE",
"187 305 CURVE SMOOTH",
"241 376 OFFCURVE",
"322 395 OFFCURVE",
"389 354 CURVE SMOOTH",
"415 338 OFFCURVE",
"457 312 OFFCURVE",
"461 312 CURVE SMOOTH"
);
}
);
width = 535;
},
{
layerId = "F3BFA7D7-9187-4567-9958-41DFD36DE2A0";
width = 600;
},
{
layerId = "B0A33A77-4F7C-4BAD-AD90-E13C10AC4CE8";
width = 600;
}
);
unicode = 0063;
},
{
glyphname = d;
lastChange = "2018-05-04 04:01:28 +0000";
layers = (
{
layerId = UUID0;
paths = (
{
closed = 1;
nodes = (
"99 104 OFFCURVE",
"199 405 OFFCURVE",
"315 394 CURVE SMOOTH",
"343 391 OFFCURVE",
"366 389 OFFCURVE",
"396 371 CURVE",
"396 90 LINE",
"328 42 OFFCURVE",
"263 22 OFFCURVE",
"205 51 CURVE SMOOTH"
);
},
{
closed = 1;
nodes = (
"396 425 LINE",
"359 449 OFFCURVE",
"330 473 OFFCURVE",
"292 485 CURVE SMOOTH",
"158 527 OFFCURVE",
"-112 164 OFFCURVE",
"167 12 CURVE SMOOTH",
"300 -61 OFFCURVE",
"416 -21 OFFCURVE",
"521 1 CURVE",
"527 7 OFFCURVE",
"521 682 OFFCURVE",
"521 682 CURVE",
"396 710 LINE"
);
}
);
width = 587;
},
{
layerId = "F3BFA7D7-9187-4567-9958-41DFD36DE2A0";
width = 600;
},
{
layerId = "B0A33A77-4F7C-4BAD-AD90-E13C10AC4CE8";
width = 600;
}
);
unicode = 0064;
},
{
color = 9;
glyphname = e;
lastChange = "2018-05-05 06:19:46 +0000";
layers = (
{
anchors = (
{
name = ogonek;
position = "{288, 43}";
},
{
name = top;
position = "{304, 523}";
}
);
background = {
paths = (
{
closed = 1;
nodes = (
"126 141 LINE",
"489 240 LINE",
"467 310 LINE",
"104 211 LINE"
);
},
{
closed = 1;
nodes = (
"-10 229 OFFCURVE",
"24 144 OFFCURVE",
"154 45 CURVE SMOOTH",
"284 -54 OFFCURVE",
"359 -51 OFFCURVE",
"493 58 CURVE SMOOTH",
"498 62 OFFCURVE",
"507 68 OFFCURVE",
"507 72 CURVE SMOOTH",
"507 76 OFFCURVE",
"447 161 OFFCURVE",
"443 161 CURVE SMOOTH",
"439 161 OFFCURVE",
"434 156 OFFCURVE",
"430 153 CURVE SMOOTH",
"351 94 OFFCURVE",
"256 49 OFFCURVE",
"193 97 CURVE SMOOTH",
"130 145 OFFCURVE",
"133 234 OFFCURVE",
"187 305 CURVE SMOOTH",
"238 370 OFFCURVE",
"321 404 OFFCURVE",
"389 354 CURVE SMOOTH",
"430 322 OFFCURVE",
"431 271 OFFCURVE",
"420 221 CURVE",
"455 231 OFFCURVE",
"525 247 OFFCURVE",
"526 250 CURVE SMOOTH",
"527 252 OFFCURVE",
"518 286 OFFCURVE",
"511 304 CURVE SMOOTH",
"498 338 OFFCURVE",
"475 372 OFFCURVE",
"429 407 CURVE SMOOTH",
"286 514 OFFCURVE",
"205 512 OFFCURVE",
"99 372 CURVE SMOOTH"
);
}
);
};
layerId = UUID0;
paths = (
{
closed = 1;
nodes = (
"-9 228 OFFCURVE",
"25 143 OFFCURVE",
"155 44 CURVE SMOOTH",
"285 -55 OFFCURVE",
"359 -51 OFFCURVE",
"494 57 CURVE SMOOTH",
"499 61 OFFCURVE",
"508 67 OFFCURVE",
"508 71 CURVE SMOOTH",
"508 75 OFFCURVE",
"448 160 OFFCURVE",
"444 160 CURVE SMOOTH",
"440 160 OFFCURVE",
"435 155 OFFCURVE",
"431 152 CURVE SMOOTH",
"352 93 OFFCURVE",
"258 49 OFFCURVE",
"194 96 CURVE SMOOTH",
"131 142 OFFCURVE",
"134 233 OFFCURVE",
"188 304 CURVE SMOOTH",
"238 370 OFFCURVE",
"324 406 OFFCURVE",
"367 372 CURVE SMOOTH",
"430 322 OFFCURVE",
"362 287 OFFCURVE",
"277 246 CURVE SMOOTH",
"190 204 OFFCURVE",
"128 190 OFFCURVE",
"113 190 CURVE",
"138 136 LINE",
"160 138 OFFCURVE",
"267 144 OFFCURVE",
"380 190 CURVE SMOOTH",
"480 231 OFFCURVE",
"562 272 OFFCURVE",
"417 400 CURVE SMOOTH",
"283 518 OFFCURVE",
"206 511 OFFCURVE",
"100 371 CURVE SMOOTH"
);
}
);
width = 553;
},
{
layerId = "F3BFA7D7-9187-4567-9958-41DFD36DE2A0";
width = 600;
},
{
layerId = "B0A33A77-4F7C-4BAD-AD90-E13C10AC4CE8";
width = 600;
}
);
unicode = 0065;
},
{
glyphname = f;
lastChange = "2018-05-04 04:01:28 +0000";
layers = (
{
layerId = UUID0;
paths = (
{
closed = 1;
nodes = (
"127 408 LINE",
"127 287 OFFCURVE",
"127 176 OFFCURVE",
"128 -1 CURVE",
"253 -29 LINE",
"248 408 LINE",
"380 408 LINE",
"350 478 LINE",
"248 478 LINE",
"250 571 OFFCURVE",
"294 681 OFFCURVE",
"430 598 CURVE",
"452 625 LINE",
"411 662 OFFCURVE",
"370 688 OFFCURVE",
"341 704 CURVE SMOOTH",
"277 740 OFFCURVE",
"127 626 OFFCURVE",
"127 565 CURVE SMOOTH",
"127 478 LINE",
"23 478 LINE",
"53 408 LINE"
);
}
);
width = 398;
},
{
layerId = "F3BFA7D7-9187-4567-9958-41DFD36DE2A0";
width = 600;
},
{
layerId = "B0A33A77-4F7C-4BAD-AD90-E13C10AC4CE8";
width = 600;
}
);
unicode = 0066;
},
{
glyphname = g;
lastChange = "2018-05-04 04:00:54 +0000";
layers = (
{
anchors = (
{
name = top;
position = "{343, 507}";
}
);
layerId = UUID0;
paths = (
{
closed = 1;
nodes = (
"162 42 OFFCURVE",
"602 77 OFFCURVE",
"442 362 CURVE",
"578 362 LINE",
"548 432 LINE",
"370 432 LINE",
"342 449 OFFCURVE",
"309 465 OFFCURVE",
"274 482 CURVE SMOOTH",
"174 529 OFFCURVE",
"-48 333 OFFCURVE",
"123 187 CURVE SMOOTH",
"158 157 OFFCURVE",
"168 147 OFFCURVE",
"192 132 CURVE",
"108 107 OFFCURVE",
"45 110 OFFCURVE",
"64 81 CURVE SMOOTH",
"76 62 OFFCURVE",
"113 1 OFFCURVE",
"142 -41 CURVE",
"88 -97 OFFCURVE",
"51 -122 OFFCURVE",
"57 -134 CURVE SMOOTH",
"73 -167 OFFCURVE",
"189 -255 OFFCURVE",
"302 -255 CURVE SMOOTH",
"452 -255 OFFCURVE",
"611 -92 OFFCURVE",
"460 54 CURVE SMOOTH",
"441 72 OFFCURVE",
"186 -5 OFFCURVE",
"174 19 CURVE SMOOTH"
);
},
{
closed = 1;
nodes = (
"444 306 OFFCURVE",
"294 121 OFFCURVE",
"209 179 CURVE SMOOTH",
"108 248 OFFCURVE",
"244 456 OFFCURVE",
"332 390 CURVE SMOOTH"
);
},
{
closed = 1;
nodes = (
"226 -134 OFFCURVE",
"444 -19 OFFCURVE",
"444 -38 CURVE SMOOTH",
"446 -115 OFFCURVE",
"262 -203 OFFCURVE",
"124 -134 CURVE",
"169 -79 LINE",
"174 -84 LINE SMOOTH"
);
}
);
width = 593;
},
{
layerId = "F3BFA7D7-9187-4567-9958-41DFD36DE2A0";
width = 600;
},
{
layerId = "B0A33A77-4F7C-4BAD-AD90-E13C10AC4CE8";
width = 600;
}
);
unicode = 0067;
},
{
glyphname = h;
lastChange = "2018-05-04 04:01:28 +0000";
layers = (
{
layerId = UUID0;
paths = (
{
closed = 1;
nodes = (
"63 710 LINE",
"63 -1 LINE",
"188 -29 LINE",
"188 246 LINE",
"260 334 OFFCURVE",
"384 431 OFFCURVE",
"422 362 CURVE SMOOTH",
"433 342 OFFCURVE",
"427 -1 OFFCURVE",
"427 -1 CURVE",
"427 -1 OFFCURVE",
"552 -29 OFFCURVE",
"551 -29 CURVE SMOOTH",
"551 -29 OFFCURVE",
"552 270 OFFCURVE",
"547 303 CURVE SMOOTH",
"541 339 OFFCURVE",
"393 485 OFFCURVE",
"349 488 CURVE SMOOTH",
"293 492 OFFCURVE",
"232 446 OFFCURVE",
"188 404 CURVE",
"188 682 LINE"
);
}
);
width = 597;
},
{
layerId = "F3BFA7D7-9187-4567-9958-41DFD36DE2A0";
width = 600;
},
{
layerId = "B0A33A77-4F7C-4BAD-AD90-E13C10AC4CE8";
width = 600;
}
);
unicode = 0068;
},
{
glyphname = i;
lastChange = "2018-05-04 04:01:28 +0000";
layers = (
{
anchors = (
{
name = ogonek;
position = "{58, 7}";
}
);
layerId = UUID0;
paths = (
{
closed = 1;
nodes = (
"180 560 OFFCURVE",
"204 588 OFFCURVE",
"213 611 CURVE",
"204 629 OFFCURVE",
"183 662 OFFCURVE",
"138 682 CURVE",
"117 677 OFFCURVE",
"66 635 OFFCURVE",
"63 612 CURVE",
"80 578 OFFCURVE",
"111 552 OFFCURVE",
"139 539 CURVE"
);
},
{
closed = 1;
nodes = (
"74 478 LINE",
"74 -1 LINE",
"199 -29 LINE",
"199 450 LINE"
);
}
);
width = 276;
},
{
layerId = "F3BFA7D7-9187-4567-9958-41DFD36DE2A0";
width = 600;
},
{
layerId = "B0A33A77-4F7C-4BAD-AD90-E13C10AC4CE8";
width = 600;
}
);
unicode = 0069;
},
{
glyphname = j;
lastChange = "2018-05-04 04:01:28 +0000";
layers = (
{
layerId = UUID0;
paths = (
{
closed = 1;
nodes = (
"173 560 OFFCURVE",
"197 588 OFFCURVE",
"206 611 CURVE",
"197 629 OFFCURVE",
"176 662 OFFCURVE",
"131 682 CURVE",
"110 677 OFFCURVE",
"59 635 OFFCURVE",
"56 612 CURVE",
"73 578 OFFCURVE",
"104 552 OFFCURVE",
"132 539 CURVE"
);
},
{
closed = 1;
nodes = (
"68 478 LINE",
"67 -8 LINE SMOOTH",
"67 -87 OFFCURVE",
"2 -211 OFFCURVE",
"-158 -132 CURVE",
"-176 -168 LINE",
"-110 -197 OFFCURVE",
"-47 -226 OFFCURVE",
"-17 -232 CURVE SMOOTH",
"55 -246 OFFCURVE",
"193 -136 OFFCURVE",
"193 -75 CURVE SMOOTH",
"193 450 LINE"
);
}
);
width = 252;
},
{
layerId = "F3BFA7D7-9187-4567-9958-41DFD36DE2A0";
width = 600;
},
{
layerId = "B0A33A77-4F7C-4BAD-AD90-E13C10AC4CE8";
width = 600;
}
);
unicode = 006A;
},
{
glyphname = k;
lastChange = "2018-05-04 04:01:28 +0000";
layers = (
{
layerId = UUID0;
paths = (
{
closed = 1;
nodes = (
"63 710 LINE",
"63 -1 LINE",
"188 -29 LINE",
"188 165 LINE",
"255 228 LINE",
"450 -30 LINE",
"520 16 LINE",
"309 279 LINE",
"492 451 LINE",
"377 479 LINE",
"188 301 LINE",
"188 682 LINE"
);
}
);
width = 565;
},
{
layerId = "F3BFA7D7-9187-4567-9958-41DFD36DE2A0";
width = 600;
},
{
layerId = "B0A33A77-4F7C-4BAD-AD90-E13C10AC4CE8";
width = 600;
}
);
unicode = 006B;
},
{
glyphname = l;
lastChange = "2018-05-04 04:01:28 +0000";
layers = (
{
anchors = (
{
name = top;
position = "{251, 733}";
}
);
layerId = UUID0;
paths = (
{
closed = 1;
nodes = (
"63 710 LINE",
"63 -1 LINE",
"188 -29 LINE",
"188 682 LINE"
);
}
);
width = 241;
},
{
layerId = "F3BFA7D7-9187-4567-9958-41DFD36DE2A0";
width = 600;
},
{
layerId = "B0A33A77-4F7C-4BAD-AD90-E13C10AC4CE8";
width = 600;
}
);
unicode = 006C;
},
{
glyphname = m;
lastChange = "2018-05-04 04:01:28 +0000";
layers = (
{
layerId = UUID0;
paths = (
{
closed = 1;
nodes = (
"63 478 LINE",
"63 -1 LINE",
"188 -29 LINE",
"188 259 LINE",
"256 344 OFFCURVE",
"356 428 OFFCURVE",
"392 363 CURVE SMOOTH",
"403 343 OFFCURVE",
"397 -1 OFFCURVE",
"397 -1 CURVE",
"397 -1 OFFCURVE",
"522 -29 OFFCURVE",
"521 -29 CURVE SMOOTH",
"521 -29 OFFCURVE",
"522 192 OFFCURVE",
"519 275 CURVE",
"586 353 OFFCURVE",
"676 424 OFFCURVE",
"710 363 CURVE SMOOTH",
"721 343 OFFCURVE",
"715 -1 OFFCURVE",
"715 -1 CURVE",
"715 -1 OFFCURVE",
"840 -29 OFFCURVE",
"839 -29 CURVE SMOOTH",
"839 -29 OFFCURVE",
"840 270 OFFCURVE",
"835 303 CURVE SMOOTH",
"829 339 OFFCURVE",
"681 485 OFFCURVE",
"637 488 CURVE SMOOTH",
"569 492 OFFCURVE",
"501 423 OFFCURVE",
"463 376 CURVE",
"415 428 OFFCURVE",
"346 486 OFFCURVE",
"319 488 CURVE SMOOTH",
"272 491 OFFCURVE",
"225 459 OFFCURVE",
"188 423 CURVE",
"188 450 LINE"
);
}
);
width = 885;
},
{
layerId = "F3BFA7D7-9187-4567-9958-41DFD36DE2A0";
width = 600;
},
{
layerId = "B0A33A77-4F7C-4BAD-AD90-E13C10AC4CE8";
width = 600;
}
);
unicode = 006D;
},
{
color = 9;
glyphname = n;
lastChange = "2018-05-05 06:19:46 +0000";
layers = (
{
anchors = (
{
name = top;
position = "{291, 507}";
}
);
background = {
paths = (
{
closed = 1;
nodes = (
"63 478 LINE",
"63 -1 LINE",
"193 -29 LINE",
"193 252 LINE",
"266 339 OFFCURVE",
"385 429 OFFCURVE",
"422 362 CURVE SMOOTH",
"433 342 OFFCURVE",
"427 -1 OFFCURVE",
"427 -1 CURVE",
"427 -1 OFFCURVE",
"552 -29 OFFCURVE",
"551 -29 CURVE SMOOTH",
"551 -29 OFFCURVE",
"552 270 OFFCURVE",
"547 303 CURVE SMOOTH",
"541 339 OFFCURVE",
"393 485 OFFCURVE",
"349 488 CURVE SMOOTH",
"295 491 OFFCURVE",
"237 450 OFFCURVE",
"193 409 CURVE",
"193 450 LINE"
);
}
);
};
guideLines = (
{
angle = 234.6991;
position = "{202, 405}";
},
{
angle = 144.6852;
position = "{479, 412}";
}
);
layerId = UUID0;
paths = (
{
closed = 1;
nodes = (
"97 283 OFFCURVE",
"193 243 OFFCURVE",
"198 246 CURVE SMOOTH",
"203 248 OFFCURVE",
"212 266 OFFCURVE",
"219 275 CURVE SMOOTH",
"260 338 OFFCURVE",
"345 419 OFFCURVE",
"394 384 CURVE SMOOTH",
"435 355 OFFCURVE",
"423 344 OFFCURVE",
"423 248 CURVE SMOOTH",
"423 122 OFFCURVE",
"422 5 OFFCURVE",
"424 2 CURVE SMOOTH",
"428 -4 OFFCURVE",
"538 -30 OFFCURVE",
"544 -27 CURVE SMOOTH",
"548 -25 OFFCURVE",
"545 124 OFFCURVE",
"545 280 CURVE SMOOTH",
"545 365 OFFCURVE",
"562 354 OFFCURVE",
"426 451 CURVE SMOOTH",
"326 523 OFFCURVE",
"215 475 OFFCURVE",
"149 373 CURVE SMOOTH",
"109 311 OFFCURVE",
"92 292 OFFCURVE",
"94 288 CURVE SMOOTH"
);
},
{
closed = 1;
nodes = (
"69 91 OFFCURVE",
"68 5 OFFCURVE",
"70 2 CURVE SMOOTH",
"74 -4 OFFCURVE",
"184 -30 OFFCURVE",
"190 -27 CURVE",
"192 -25 OFFCURVE",
"192 31 OFFCURVE",
"192 111 CURVE SMOOTH",
"192 215 OFFCURVE",
"193 458 OFFCURVE",
"191 461 CURVE",
"187 467 OFFCURVE",
"76 493 OFFCURVE",
"71 490 CURVE",
"69 488 OFFCURVE",
"69 275 OFFCURVE",
"69 195 CURVE SMOOTH"
);
}
);
width = 597;
},
{
layerId = "F3BFA7D7-9187-4567-9958-41DFD36DE2A0";
width = 600;
},
{
layerId = "B0A33A77-4F7C-4BAD-AD90-E13C10AC4CE8";
width = 600;
}
);
unicode = 006E;
},
{
color = 9;
glyphname = o;
lastChange = "2018-05-05 06:52:05 +0000";
layers = (
{
anchors = (
{
name = top;
position = "{370, 504}";
}
);
background = {
guideLines = (
{
position = "{54, -32}";
},
{
angle = 234.699;
position = "{309, 240}";
},
{
angle = 144.6852;
position = "{393, 435}";
},
{
angle = 144.6852;
position = "{168, 40}";
},
{
position = "{91, 495}";
}
);
paths = (
{
closed = 1;
nodes = (
"290 -54 OFFCURVE",
"381 -63 OFFCURVE",
"490 80 CURVE SMOOTH",
"599 223 OFFCURVE",
"573 302 OFFCURVE",
"435 407 CURVE SMOOTH",
"296 512 OFFCURVE",
"214 515 OFFCURVE",
"105 372 CURVE SMOOTH",
"-4 229 OFFCURVE",
"30 144 OFFCURVE",
"160 45 CURVE SMOOTH"
);
},
{
closed = 1;
nodes = (
"136 145 OFFCURVE",
"139 234 OFFCURVE",
"193 305 CURVE SMOOTH",
"247 376 OFFCURVE",
"332 402 OFFCURVE",
"395 354 CURVE SMOOTH",
"458 306 OFFCURVE",
"456 219 OFFCURVE",
"402 147 CURVE SMOOTH",
"348 74 OFFCURVE",
"262 49 OFFCURVE",
"199 97 CURVE SMOOTH"
);
}
);
};
guideLines = (
{
position = "{54, -28}";
},
{
angle = 234.6991;
position = "{309, 240}";
},
{
angle = 144.6852;
position = "{393, 435}";
},
{
angle = 144.6852;
position = "{299, 226}";
},
{
position = "{91, 495}";
},
{
angle = 144.6852;
position = "{168, 40}";
}
);
layerId = UUID0;
paths = (
{
closed = 1;
nodes = (
"277 -50 OFFCURVE",
"376 -34 OFFCURVE",
"471 90 CURVE SMOOTH",
"566 213 OFFCURVE",
"564 306 OFFCURVE",
"425 412 CURVE SMOOTH",
"287 518 OFFCURVE",
"199 496 OFFCURVE",
"103 373 CURVE SMOOTH",
"7 250 OFFCURVE",
"21 154 OFFCURVE",
"149 52 CURVE SMOOTH"
);
},
{
closed = 1;
nodes = (
"131 158 OFFCURVE",
"128 239 OFFCURVE",
"183 311 CURVE SMOOTH",
"237 382 OFFCURVE",
"315 399 OFFCURVE",
"378 351 CURVE SMOOTH",
"442 303 OFFCURVE",
"445 225 OFFCURVE",
"391 152 CURVE SMOOTH",
"337 79 OFFCURVE",
"257 63 OFFCURVE",
"193 111 CURVE SMOOTH"
);
}
);
width = 577;
},
{
guideLines = (
{
position = "{68, -32}";
},
{
angle = 234.6991;
position = "{323, 240}";
},
{
angle = 144.6852;
position = "{407, 435}";
},
{
angle = 144.6852;
position = "{313, 226}";
},
{
position = "{105, 495}";
},
{
angle = 144.6852;
position = "{182, 40}";
}
);
layerId = "F3BFA7D7-9187-4567-9958-41DFD36DE2A0";
paths = (
{
closed = 1;
nodes = (
"146 132 OFFCURVE",
"148 233 OFFCURVE",
"200 306 CURVE SMOOTH",
"253 380 OFFCURVE",
"337 423 OFFCURVE",
"411 364 CURVE SMOOTH",
"487 304 OFFCURVE",
"482 220 OFFCURVE",
"428 145 CURVE SMOOTH",
"375 71 OFFCURVE",
"286 31 OFFCURVE",
"213 84 CURVE SMOOTH"
);
},
{
closed = 1;
nodes = (
"344 -73 OFFCURVE",
"428 -9 OFFCURVE",
"501 93 CURVE SMOOTH",
"574 196 OFFCURVE",
"605 298 OFFCURVE",
"445 412 CURVE SMOOTH",
"280 529 OFFCURVE",
"194 466 OFFCURVE",
"121 363 CURVE SMOOTH",
"48 260 OFFCURVE",
"14 159 OFFCURVE",
"182 41 CURVE SMOOTH"
);
}
);
width = 600;
},
{
layerId = "B0A33A77-4F7C-4BAD-AD90-E13C10AC4CE8";
paths = (
{
closed = 1;
nodes = (
"169 135 OFFCURVE",
"190 204 OFFCURVE",
"242 277 CURVE SMOOTH",
"295 351 OFFCURVE",
"346 389 OFFCURVE",
"401 351 CURVE SMOOTH",
"456 313 OFFCURVE",
"444 251 OFFCURVE",
"390 176 CURVE SMOOTH",
"337 102 OFFCURVE",
"278 56 OFFCURVE",
"224 95 CURVE SMOOTH"
);
},
{
closed = 1;
nodes = (
"368 -89 OFFCURVE",
"440 -18 OFFCURVE",
"513 84 CURVE SMOOTH",
"586 187 OFFCURVE",
"622 288 OFFCURVE",
"445 412 CURVE SMOOTH",
"266 538 OFFCURVE",
"185 471 OFFCURVE",
"112 368 CURVE SMOOTH",
"39 265 OFFCURVE",
"2 167 OFFCURVE",
"182 41 CURVE SMOOTH"
);
}
);
width = 600;
}
);
unicode = 006F;
},
{
glyphname = p;
lastChange = "2018-05-04 04:01:28 +0000";
layers = (
{
layerId = UUID0;
paths = (
{
closed = 1;
nodes = (
"293 47 OFFCURVE",
"206 63 OFFCURVE",
"175 83 CURVE",
"177 366 LINE",
"395 528 OFFCURVE",
"481 291 OFFCURVE",
"354 125 CURVE SMOOTH"
);
},
{
closed = 1;
nodes = (
"439 -64 OFFCURVE",
"672 265 OFFCURVE",
"419 432 CURVE SMOOTH",
"291 516 OFFCURVE",
"192 493 OFFCURVE",
"52 453 CURVE",
"49 439 OFFCURVE",
"52 -226 OFFCURVE",
"52 -226 CURVE",
"177 -254 LINE",
"177 31 LINE",
"191 21 OFFCURVE",
"251 -16 OFFCURVE",
"287 -25 CURVE SMOOTH"
);
}
);
width = 578;
},
{
layerId = "F3BFA7D7-9187-4567-9958-41DFD36DE2A0";
width = 600;
},
{
layerId = "B0A33A77-4F7C-4BAD-AD90-E13C10AC4CE8";
width = 600;
}
);
unicode = 0070;
},
{
glyphname = q;
lastChange = "2018-05-04 04:01:28 +0000";
layers = (
{
layerId = UUID0;
paths = (
{
closed = 1;
nodes = (
"95 -227 OFFCURVE",
"25 497 OFFCURVE",
"414 377 CURVE",
"414 201 LINE"
);
},
{
closed = 1;
nodes = (
"539 -250 LINE",
"539 367 LINE",
"476 405 OFFCURVE",
"392 447 OFFCURVE",
"313 477 CURVE SMOOTH",
"134 546 OFFCURVE",
"-61 231 OFFCURVE",
"101 83 CURVE SMOOTH",
"146 41 OFFCURVE",
"205 1 OFFCURVE",
"240 -13 CURVE SMOOTH",
"311 -41 OFFCURVE",
"347 -29 OFFCURVE",
"414 31 CURVE",
"414 -222 LINE"
);
}
);
width = 604;
},
{
layerId = "F3BFA7D7-9187-4567-9958-41DFD36DE2A0";
width = 600;
},
{
layerId = "B0A33A77-4F7C-4BAD-AD90-E13C10AC4CE8";
width = 600;
}
);
unicode = 0071;
},
{
glyphname = r;
lastChange = "2018-05-04 04:01:28 +0000";
layers = (
{
anchors = (
{
name = top;
position = "{212, 507}";
}
);
layerId = UUID0;
paths = (
{
closed = 1;
nodes = (
"64 478 LINE",
"64 -1 LINE",
"189 -29 LINE",
"189 273 LINE",
"244 362 OFFCURVE",
"298 408 OFFCURVE",
"427 313 CURVE",
"496 413 LINE",
"445 447 OFFCURVE",
"347 491 OFFCURVE",
"313 491 CURVE SMOOTH",
"272 491 OFFCURVE",
"225 433 OFFCURVE",
"189 376 CURVE",
"189 450 LINE"
);
}
);
width = 493;
},
{
layerId = "F3BFA7D7-9187-4567-9958-41DFD36DE2A0";
width = 600;
},
{
layerId = "B0A33A77-4F7C-4BAD-AD90-E13C10AC4CE8";
width = 600;
}
);
unicode = 0072;
},
{
glyphname = s;
lastChange = "2018-05-04 04:01:28 +0000";
layers = (
{
anchors = (
{
name = cedilla;
position = "{269, 7}";
},
{
name = top;
position = "{360, 507}";
}
);
layerId = UUID0;
paths = (
{
closed = 1;
nodes = (
"351 462 OFFCURVE",
"266 489 OFFCURVE",
"232 489 CURVE SMOOTH",
"93 489 OFFCURVE",
"11 366 OFFCURVE",
"72 275 CURVE SMOOTH",
"86 254 OFFCURVE",
"125 210 OFFCURVE",
"161 183 CURVE SMOOTH",
"212 145 OFFCURVE",
"416 230 OFFCURVE",
"411 210 CURVE SMOOTH",
"364 35 OFFCURVE",
"169 52 OFFCURVE",
"38 151 CURVE",
"20 117 LINE",
"103 37 OFFCURVE",
"178 -29 OFFCURVE",
"275 -29 CURVE SMOOTH",
"496 -29 OFFCURVE",
"580 210 OFFCURVE",
"389 310 CURVE SMOOTH",
"353 329 OFFCURVE",
"185 260 OFFCURVE",
"180 282 CURVE SMOOTH",
"170 329 OFFCURVE",
"208 400 OFFCURVE",
"277 409 CURVE SMOOTH",
"299 412 OFFCURVE",
"357 402 OFFCURVE",
"405 391 CURVE",
"416 445 LINE"
);
}
);
width = 520;
},
{
layerId = "F3BFA7D7-9187-4567-9958-41DFD36DE2A0";
width = 600;
},
{
layerId = "B0A33A77-4F7C-4BAD-AD90-E13C10AC4CE8";
width = 600;
}
);
unicode = 0073;
},
{
glyphname = t;
lastChange = "2018-05-04 04:01:28 +0000";
layers = (
{
anchors = (
{
name = cedilla;
position = "{167, 15}";
}
);
layerId = UUID0;
paths = (
{
closed = 1;
nodes = (
"92 408 LINE",
"92 122 LINE SMOOTH",
"92 61 OFFCURVE",
"242 -53 OFFCURVE",
"306 -17 CURVE SMOOTH",
"335 -1 OFFCURVE",
"362 20 OFFCURVE",
"403 57 CURVE",
"376 88 LINE",
"197 -29 OFFCURVE",
"215 151 OFFCURVE",
"215 281 CURVE SMOOTH",
"215 408 LINE",
"367 408 LINE",
"337 478 LINE",
"215 478 LINE",
"215 558 LINE",
"92 586 LINE",
"92 478 LINE",
"10 478 LINE",
"40 408 LINE"
);
}
);
width = 423;
},
{
layerId = "F3BFA7D7-9187-4567-9958-41DFD36DE2A0";
width = 600;
},
{
layerId = "B0A33A77-4F7C-4BAD-AD90-E13C10AC4CE8";
width = 600;
}
);
unicode = 0074;
},
{
glyphname = u;
lastChange = "2018-05-04 04:01:28 +0000";
layers = (
{
anchors = (
{
name = ogonek;
position = "{221, 7}";
},
{
name = top;
position = "{225, 507}";
}
);
layerId = UUID0;
paths = (
{
closed = 1;
nodes = (
"524 -30 LINE",
"524 449 LINE",
"399 477 LINE",
"399 226 LINE",
"350 110 OFFCURVE",
"205 19 OFFCURVE",
"175 84 CURVE SMOOTH",
"165 105 OFFCURVE",
"170 449 OFFCURVE",
"170 449 CURVE",
"170 449 OFFCURVE",
"45 477 OFFCURVE",
"46 477 CURVE SMOOTH",
"46 477 OFFCURVE",
"45 178 OFFCURVE",
"50 145 CURVE SMOOTH",
"56 109 OFFCURVE",
"207 -26 OFFCURVE",
"251 -29 CURVE SMOOTH",
"306 -33 OFFCURVE",
"361 9 OFFCURVE",
"399 48 CURVE",
"399 -2 LINE"
);
}
);
width = 587;
},
{
layerId = "F3BFA7D7-9187-4567-9958-41DFD36DE2A0";
width = 600;
},
{
layerId = "B0A33A77-4F7C-4BAD-AD90-E13C10AC4CE8";
width = 600;
}
);
unicode = 0075;
},
{
glyphname = v;
lastChange = "2018-05-04 04:01:28 +0000";
layers = (
{
layerId = UUID0;
paths = (
{
closed = 1;
nodes = (
"8 478 LINE",
"206 -1 LINE",
"207 -1 LINE",
"331 -29 LINE",
"332 -29 LINE",
"518 450 LINE",
"393 478 LINE",
"261 139 LINE",
"133 450 LINE"
);
}
);
width = 518;
},
{
layerId = "F3BFA7D7-9187-4567-9958-41DFD36DE2A0";
width = 600;
},
{
layerId = "B0A33A77-4F7C-4BAD-AD90-E13C10AC4CE8";
width = 600;
}
);
unicode = 0076;
},
{
glyphname = w;
lastChange = "2018-05-04 04:01:28 +0000";
layers = (
{
layerId = UUID0;
paths = (
{
closed = 1;
nodes = (
"8 478 LINE",
"206 -1 LINE",
"207 -1 LINE",
"331 -29 LINE",
"332 -29 LINE",
"446 300 LINE",
"571 -1 LINE",
"696 -29 LINE",
"697 -29 LINE",
"863 450 LINE",
"738 478 LINE",
"623 147 LINE",
"498 450 LINE",
"373 478 LINE",
"258 147 LINE",
"133 450 LINE"
);
}
);
width = 869;
},
{
layerId = "F3BFA7D7-9187-4567-9958-41DFD36DE2A0";
width = 600;
},
{
layerId = "B0A33A77-4F7C-4BAD-AD90-E13C10AC4CE8";
width = 600;
}
);
unicode = 0077;
},
{
glyphname = x;
lastChange = "2018-05-04 04:01:28 +0000";
layers = (
{
layerId = UUID0;
paths = (
{
closed = 1;
nodes = (
"23 478 LINE",
"192 246 LINE",
"27 -1 LINE",
"152 -29 LINE",
"267 143 LINE",
"373 -1 LINE",
"498 -29 LINE",
"317 218 LINE",
"473 450 LINE",
"348 478 LINE",
"242 320 LINE",
"148 450 LINE"
);
}
);
width = 501;
},
{
layerId = "F3BFA7D7-9187-4567-9958-41DFD36DE2A0";
width = 600;
},
{
layerId = "B0A33A77-4F7C-4BAD-AD90-E13C10AC4CE8";
width = 600;
}
);
unicode = 0078;
},
{
glyphname = y;
lastChange = "2018-05-04 04:01:28 +0000";
layers = (
{
anchors = (
{
name = top;
position = "{337, 507}";
}
);
layerId = UUID0;
paths = (
{
closed = 1;
nodes = (
"369 478 LINE",
"369 188 LINE",
"317 100 OFFCURVE",
"226 33 OFFCURVE",
"189 87 CURVE SMOOTH",
"176 106 OFFCURVE",
"182 452 OFFCURVE",
"182 452 CURVE",
"182 452 OFFCURVE",
"57 480 OFFCURVE",
"58 480 CURVE SMOOTH",
"58 480 OFFCURVE",
"59 178 OFFCURVE",
"64 145 CURVE SMOOTH",
"70 109 OFFCURVE",
"200 -26 OFFCURVE",
"244 -29 CURVE SMOOTH",
"288 -32 OFFCURVE",
"332 -1 OFFCURVE",
"369 34 CURVE",
"369 -3 LINE SMOOTH",
"369 -168 OFFCURVE",
"264 -206 OFFCURVE",
"176 -162 CURVE SMOOTH",
"146 -147 OFFCURVE",
"120 -131 OFFCURVE",
"96 -117 CURVE",
"70 -156 LINE",
"129 -190 OFFCURVE",
"205 -238 OFFCURVE",
"235 -251 CURVE SMOOTH",
"302 -280 OFFCURVE",
"494 -188 OFFCURVE",
"494 -62 CURVE SMOOTH",
"494 450 LINE"
);
}
);
width = 554;
},
{
layerId = "F3BFA7D7-9187-4567-9958-41DFD36DE2A0";
width = 600;
},
{
layerId = "B0A33A77-4F7C-4BAD-AD90-E13C10AC4CE8";
width = 600;
}
);
unicode = 0079;
},
{
glyphname = braceleft;
lastChange = "2018-05-04 04:01:28 +0000";
layers = (
{
layerId = UUID0;
paths = (
{
closed = 1;
nodes = (
"393 -15 OFFCURVE",
"325 -45 OFFCURVE",
"281 -10 CURVE SMOOTH",
"242 21 OFFCURVE",
"265 198 OFFCURVE",
"265 303 CURVE SMOOTH",
"265 351 OFFCURVE",
"196 365 OFFCURVE",
"197 371 CURVE SMOOTH",
"198 378 OFFCURVE",
"265 389 OFFCURVE",
"265 439 CURVE SMOOTH",
"265 554 OFFCURVE",
"255 693 OFFCURVE",
"320 724 CURVE SMOOTH",
"369 748 OFFCURVE",
"429 763 OFFCURVE",
"429 763 CURVE",
"355 847 LINE",
"355 847 OFFCURVE",
"245 832 OFFCURVE",
"187 793 CURVE SMOOTH",
"172 783 OFFCURVE",
"149 615 OFFCURVE",
"149 470 CURVE SMOOTH",
"149 422 OFFCURVE",
"74 381 OFFCURVE",
"75 371 CURVE SMOOTH",
"76 363 OFFCURVE",
"144 316 OFFCURVE",
"149 282 CURVE SMOOTH",
"162 182 OFFCURVE",
"124 18 OFFCURVE",
"152 -8 CURVE SMOOTH",
"191 -44 OFFCURVE",
"223 -68 OFFCURVE",
"276 -95 CURVE SMOOTH",
"312 -113 OFFCURVE",
"441 -56 OFFCURVE",
"441 -56 CURVE",
"393 -15 LINE"
);
}
);
width = 493;
},
{
layerId = "F3BFA7D7-9187-4567-9958-41DFD36DE2A0";
width = 600;
},
{
layerId = "B0A33A77-4F7C-4BAD-AD90-E13C10AC4CE8";
width = 600;
}
);
unicode = 007B;
},
{
glyphname = bar;
lastChange = "2018-05-04 04:01:28 +0000";
layers = (
{
layerId = UUID0;
paths = (
{
closed = 1;
nodes = (
"76 767 LINE",
"76 -54 LINE",
"200 -110 LINE",
"200 711 LINE"
);
}
);
width = 275;
},
{
layerId = "F3BFA7D7-9187-4567-9958-41DFD36DE2A0";
width = 600;
},
{
layerId = "B0A33A77-4F7C-4BAD-AD90-E13C10AC4CE8";
width = 600;
}
);
unicode = 007C;
},
{
glyphname = braceright;
lastChange = "2018-05-04 04:01:28 +0000";
layers = (
{
layerId = UUID0;
paths = (
{
closed = 1;
nodes = (
"122 749 OFFCURVE",
"190 779 OFFCURVE",
"234 744 CURVE SMOOTH",
"273 713 OFFCURVE",
"250 536 OFFCURVE",
"250 431 CURVE SMOOTH",
"250 383 OFFCURVE",
"319 369 OFFCURVE",
"318 363 CURVE SMOOTH",
"317 356 OFFCURVE",
"250 345 OFFCURVE",
"250 295 CURVE SMOOTH",
"250 180 OFFCURVE",
"260 41 OFFCURVE",
"195 10 CURVE SMOOTH",
"146 -14 OFFCURVE",
"86 -29 OFFCURVE",
"86 -29 CURVE",
"160 -113 LINE",
"160 -113 OFFCURVE",
"270 -98 OFFCURVE",
"328 -59 CURVE SMOOTH",
"343 -49 OFFCURVE",
"366 119 OFFCURVE",
"366 264 CURVE SMOOTH",
"366 312 OFFCURVE",
"441 353 OFFCURVE",
"440 363 CURVE SMOOTH",
"439 371 OFFCURVE",
"371 418 OFFCURVE",
"366 452 CURVE SMOOTH",
"353 552 OFFCURVE",
"391 716 OFFCURVE",
"363 742 CURVE SMOOTH",
"324 778 OFFCURVE",
"292 802 OFFCURVE",
"239 829 CURVE SMOOTH",
"203 847 OFFCURVE",
"74 790 OFFCURVE",
"74 790 CURVE",
"122 749 LINE"
);
}
);
width = 626;
},
{
layerId = "F3BFA7D7-9187-4567-9958-41DFD36DE2A0";
width = 600;
},
{
layerId = "B0A33A77-4F7C-4BAD-AD90-E13C10AC4CE8";
width = 600;
}
);
unicode = 007D;
},
{
glyphname = asciitilde;
lastChange = "2018-05-04 04:01:28 +0000";
layers = (
{
layerId = UUID0;
paths = (
{
closed = 1;
nodes = (
"171 443 OFFCURVE",
"33 324 OFFCURVE",
"33 324 CURVE",
"118 234 LINE",
"118 234 OFFCURVE",
"214 331 OFFCURVE",
"245 332 CURVE SMOOTH",
"260 333 OFFCURVE",
"336 209 OFFCURVE",
"378 209 CURVE SMOOTH",
"428 209 OFFCURVE",
"558 324 OFFCURVE",
"558 324 CURVE",
"484 415 LINE",
"484 415 OFFCURVE",
"373 306 OFFCURVE",
"339 306 CURVE SMOOTH",
"318 306 OFFCURVE",
"252 443 OFFCURVE",
"203 443 CURVE SMOOTH"
);
}
);
width = 586;
},
{
layerId = "F3BFA7D7-9187-4567-9958-41DFD36DE2A0";
width = 600;
},
{
layerId = "B0A33A77-4F7C-4BAD-AD90-E13C10AC4CE8";
width = 600;
}
);
unicode = 007E;
},
{
glyphname = Euro;
lastChange = "2018-05-04 04:01:28 +0000";
layers = (
{
layerId = UUID0;
paths = (
{
closed = 1;
nodes = (
"119 346 LINE",
"117 327 OFFCURVE",
"116 308 OFFCURVE",
"116 289 CURVE",
"39 289 LINE",
"69 216 LINE",
"125 216 LINE",
"137 169 OFFCURVE",
"160 123 OFFCURVE",
"197 83 CURVE SMOOTH",
"237 39 OFFCURVE",
"306 -4 OFFCURVE",
"333 -15 CURVE SMOOTH",
"395 -41 OFFCURVE",
"493 -22 OFFCURVE",
"544 12 CURVE",
"544 13 OFFCURVE",
"470 93 OFFCURVE",
"468 94 CURVE",
"403 47 OFFCURVE",
"333 47 OFFCURVE",
"291 76 CURVE SMOOTH",
"253 102 OFFCURVE",
"235 155 OFFCURVE",
"231 216 CURVE",
"492 216 LINE",
"462 289 LINE",
"233 289 LINE",
"235 308 OFFCURVE",
"238 327 OFFCURVE",
"242 346 CURVE",
"482 346 LINE",
"452 419 LINE",
"265 419 LINE",
"295 496 OFFCURVE",
"343 556 OFFCURVE",
"401 564 CURVE SMOOTH",
"430 568 OFFCURVE",
"479 552 OFFCURVE",
"513 536 CURVE SMOOTH",
"514 535 OFFCURVE",
"545 580 OFFCURVE",
"545 580 CURVE",
"499 606 OFFCURVE",
"489 611 OFFCURVE",
"400 654 CURVE SMOOTH",
"315 695 OFFCURVE",
"186 574 OFFCURVE",
"136 419 CURVE",
"29 419 LINE",
"59 346 LINE"
);
}
);
width = 586;
},
{
layerId = "F3BFA7D7-9187-4567-9958-41DFD36DE2A0";
width = 600;
},
{
layerId = "B0A33A77-4F7C-4BAD-AD90-E13C10AC4CE8";
width = 600;
}
);
unicode = 20AC;
},
{
glyphname = quotesinglbase;
lastChange = "2018-05-04 04:01:28 +0000";
layers = (
{
layerId = UUID0;
paths = (
{
closed = 1;
nodes = (
"159 -114 OFFCURVE",
"208 -12 OFFCURVE",
"216 39 CURVE",
"218 67 OFFCURVE",
"173 106 OFFCURVE",
"141 121 CURVE",
"120 116 OFFCURVE",
"69 74 OFFCURVE",
"66 51 CURVE",
"76 31 OFFCURVE",
"95 10 OFFCURVE",
"111 -4 CURVE",
"113 -25 OFFCURVE",
"101 -82 OFFCURVE",
"89 -120 CURVE",
"130 -147 LINE"
);
}
);
width = 346;
},
{
layerId = "F3BFA7D7-9187-4567-9958-41DFD36DE2A0";
width = 600;
},
{
layerId = "B0A33A77-4F7C-4BAD-AD90-E13C10AC4CE8";
width = 600;
}
);
unicode = 201A;
},
{
glyphname = florin;
lastChange = "2018-05-04 04:01:28 +0000";
layers = (
{
layerId = UUID0;
paths = (
{
closed = 1;
nodes = (
"131 238 LINE",
"122 130 OFFCURVE",
"112 17 OFFCURVE",
"102 -69 CURVE SMOOTH",
"98 -100 OFFCURVE",
"78 -146 OFFCURVE",
"-16 -146 CURVE",
"94 -198 OFFCURVE",
"192 -171 OFFCURVE",
"203 -94 CURVE SMOOTH",
"214 -21 OFFCURVE",
"224 115 OFFCURVE",
"233 238 CURVE",
"438 238 LINE",
"408 308 LINE",
"361 308 LINE",
"436 374 OFFCURVE",
"474 524 OFFCURVE",
"474 547 CURVE SMOOTH",
"474 564 OFFCURVE",
"371 687 OFFCURVE",
"341 704 CURVE SMOOTH",
"278 741 OFFCURVE",
"193 715 OFFCURVE",
"164 548 CURVE SMOOTH",
"154 493 OFFCURVE",
"146 405 OFFCURVE",
"137 308 CURVE",
"81 308 LINE",
"111 238 LINE"
);
},
{
closed = 1;
nodes = (
"259 584 OFFCURVE",
"332 675 OFFCURVE",
"367 625 CURVE SMOOTH",
"423 544 OFFCURVE",
"345 352 OFFCURVE",
"238 311 CURVE",
"241 362 OFFCURVE",
"244 409 OFFCURVE",
"247 441 CURVE SMOOTH"
);
}
);
width = 525;
},
{
layerId = "F3BFA7D7-9187-4567-9958-41DFD36DE2A0";
width = 600;
},
{
layerId = "B0A33A77-4F7C-4BAD-AD90-E13C10AC4CE8";
width = 600;
}
);
unicode = 0192;
},
{
glyphname = quotedblbase;
lastChange = "2018-05-04 04:01:28 +0000";
layers = (
{
layerId = UUID0;
paths = (
{
closed = 1;
nodes = (
"161 -110 OFFCURVE",
"210 -8 OFFCURVE",
"218 43 CURVE",
"220 71 OFFCURVE",
"175 110 OFFCURVE",
"143 125 CURVE",
"122 120 OFFCURVE",
"71 78 OFFCURVE",
"68 55 CURVE",
"78 35 OFFCURVE",
"97 14 OFFCURVE",
"113 0 CURVE",
"115 -21 OFFCURVE",
"103 -78 OFFCURVE",
"91 -116 CURVE",
"132 -143 LINE"
);
},
{
closed = 1;
nodes = (
"355 -110 OFFCURVE",
"404 -8 OFFCURVE",
"412 43 CURVE",
"414 71 OFFCURVE",
"369 110 OFFCURVE",
"337 125 CURVE",
"316 120 OFFCURVE",
"265 78 OFFCURVE",
"262 55 CURVE",
"272 35 OFFCURVE",
"291 14 OFFCURVE",
"307 0 CURVE",
"309 -21 OFFCURVE",
"297 -78 OFFCURVE",
"285 -116 CURVE",
"326 -143 LINE"
);
}
);
width = 528;
},
{
layerId = "F3BFA7D7-9187-4567-9958-41DFD36DE2A0";
width = 600;
},
{
layerId = "B0A33A77-4F7C-4BAD-AD90-E13C10AC4CE8";
width = 600;
}
);
unicode = 201E;
},
{
glyphname = ellipsis;
lastChange = "2018-05-04 04:01:28 +0000";
layers = (
{
layerId = UUID0;
paths = (
{
closed = 1;
nodes = (
"717 -1 OFFCURVE",
"741 27 OFFCURVE",
"750 50 CURVE",
"741 68 OFFCURVE",
"720 101 OFFCURVE",
"675 121 CURVE",
"654 116 OFFCURVE",
"603 74 OFFCURVE",
"600 51 CURVE",
"617 17 OFFCURVE",
"648 -9 OFFCURVE",
"676 -22 CURVE"
);
},
{
closed = 1;
nodes = (
"452 -1 OFFCURVE",
"476 27 OFFCURVE",
"485 50 CURVE",
"476 68 OFFCURVE",
"455 101 OFFCURVE",
"410 121 CURVE",
"389 116 OFFCURVE",
"338 74 OFFCURVE",
"335 51 CURVE",
"352 17 OFFCURVE",
"383 -9 OFFCURVE",
"411 -22 CURVE"
);
},
{
closed = 1;
nodes = (
"183 -1 OFFCURVE",
"207 27 OFFCURVE",
"216 50 CURVE",
"207 68 OFFCURVE",
"186 101 OFFCURVE",
"141 121 CURVE",
"120 116 OFFCURVE",
"69 74 OFFCURVE",
"66 51 CURVE",
"83 17 OFFCURVE",
"114 -9 OFFCURVE",
"142 -22 CURVE"
);
}
);
width = 795;
},
{
layerId = "F3BFA7D7-9187-4567-9958-41DFD36DE2A0";
width = 600;
},
{
layerId = "B0A33A77-4F7C-4BAD-AD90-E13C10AC4CE8";
width = 600;
}
);
unicode = 2026;
},
{
glyphname = dagger;
lastChange = "2018-05-04 04:01:28 +0000";
layers = (
{
layerId = UUID0;
paths = (
{
closed = 1;
nodes = (
"233 285 LINE",
"233 -171 LINE",
"348 -199 LINE",
"348 285 LINE",
"491 285 LINE",
"461 358 LINE",
"348 358 LINE",
"348 542 LINE",
"233 570 LINE",
"233 358 LINE",
"93 358 LINE",
"123 285 LINE"
);
}
);
width = 539;
},
{
layerId = "F3BFA7D7-9187-4567-9958-41DFD36DE2A0";
width = 600;
},
{
layerId = "B0A33A77-4F7C-4BAD-AD90-E13C10AC4CE8";
width = 600;
}
);
unicode = 2020;
},
{
glyphname = daggerdbl;
lastChange = "2018-05-04 04:01:28 +0000";
layers = (
{
layerId = UUID0;
paths = (
{
closed = 1;
nodes = (
"233 570 LINE",
"233 358 LINE",
"93 358 LINE",
"123 285 LINE",
"233 285 LINE",
"233 70 LINE",
"93 70 LINE",
"123 -3 LINE",
"233 -3 LINE",
"233 -171 LINE",
"348 -199 LINE",
"348 -3 LINE",
"491 -3 LINE",
"461 70 LINE",
"348 70 LINE",
"348 285 LINE",
"491 285 LINE",
"461 358 LINE",
"348 358 LINE",
"348 542 LINE"
);
}
);
width = 539;
},
{
layerId = "F3BFA7D7-9187-4567-9958-41DFD36DE2A0";
width = 600;
},
{
layerId = "B0A33A77-4F7C-4BAD-AD90-E13C10AC4CE8";
width = 600;
}
);
unicode = 2021;
},
{
glyphname = circumflex;
lastChange = "2018-05-04 04:01:28 +0000";
layers = (
{
layerId = UUID0;
paths = (
{
closed = 1;
nodes = (
"44 554 OFFCURVE",
"148 656 OFFCURVE",
"155 661 CURVE",
"164 653 OFFCURVE",
"260 550 OFFCURVE",
"274 549 CURVE",
"279 546 OFFCURVE",
"350 605 OFFCURVE",
"350 611 CURVE",
"351 618 OFFCURVE",
"186 752 OFFCURVE",
"178 754 CURVE",
"172 755 OFFCURVE",
"-9 601 OFFCURVE",
"-9 596 CURVE",
"-8 591 OFFCURVE",
"27 552 OFFCURVE",
"35 551 CURVE"
);
}
);
width = 354;
},
{
layerId = "F3BFA7D7-9187-4567-9958-41DFD36DE2A0";
width = 600;
},
{
layerId = "B0A33A77-4F7C-4BAD-AD90-E13C10AC4CE8";
width = 600;
}
);
unicode = 02C6;
},
{
glyphname = perthousand;
lastChange = "2018-05-04 04:01:28 +0000";
layers = (
{
layerId = UUID0;
paths = (
{
closed = 1;
nodes = (
"621 715 LINE",
"543 645 OFFCURVE",
"405 618 OFFCURVE",
"237 690 CURVE",
"218 700 LINE SMOOTH",
"88 765 OFFCURVE",
"-81 536 OFFCURVE",
"69 414 CURVE SMOOTH",
"90 397 OFFCURVE",
"105 384 OFFCURVE",
"149 362 CURVE SMOOTH",
"313 280 OFFCURVE",
"437 515 OFFCURVE",
"341 618 CURVE",
"407 592 OFFCURVE",
"473 579 OFFCURVE",
"547 597 CURVE",
"173 1 LINE",
"263 -30 LINE",
"713 682 LINE"
);
},
{
closed = 1;
nodes = (
"765 286 OFFCURVE",
"736 303 OFFCURVE",
"687 328 CURVE SMOOTH",
"557 393 OFFCURVE",
"388 164 OFFCURVE",
"538 42 CURVE SMOOTH",
"559 25 OFFCURVE",
"574 12 OFFCURVE",
"618 -10 CURVE SMOOTH",
"788 -95 OFFCURVE",
"915 160 OFFCURVE",
"800 257 CURVE SMOOTH"
);
},
{
closed = 1;
nodes = (
"1168 286 OFFCURVE",
"1139 303 OFFCURVE",
"1090 328 CURVE SMOOTH",
"960 393 OFFCURVE",
"791 164 OFFCURVE",
"941 42 CURVE SMOOTH",
"962 25 OFFCURVE",
"977 12 OFFCURVE",
"1021 -10 CURVE SMOOTH",
"1191 -95 OFFCURVE",
"1318 160 OFFCURVE",
"1203 257 CURVE SMOOTH"
);
},
{
closed = 1;
nodes = (
"344 566 OFFCURVE",
"242 360 OFFCURVE",
"142 419 CURVE SMOOTH",
"42 477 OFFCURVE",
"154 690 OFFCURVE",
"248 628 CURVE SMOOTH"
);
},
{
closed = 1;
nodes = (
"1216 194 OFFCURVE",
"1114 -12 OFFCURVE",
"1014 47 CURVE SMOOTH",
"914 105 OFFCURVE",
"1026 318 OFFCURVE",
"1120 256 CURVE SMOOTH"
);
},
{
closed = 1;
nodes = (
"813 194 OFFCURVE",
"711 -12 OFFCURVE",
"611 47 CURVE SMOOTH",
"511 105 OFFCURVE",
"623 318 OFFCURVE",
"717 256 CURVE SMOOTH"
);
}
);
width = 1263;
},
{
layerId = "F3BFA7D7-9187-4567-9958-41DFD36DE2A0";
width = 600;
},
{
layerId = "B0A33A77-4F7C-4BAD-AD90-E13C10AC4CE8";
width = 600;
}
);
unicode = 2030;
},
{
glyphname = guilsinglleft;
lastChange = "2018-05-04 04:03:00 +0000";
layers = (
{
layerId = UUID0;
paths = (
{
closed = 1;
nodes = (
"275 67 LINE",
"322 119 LINE",
"147 262 LINE",
"329 421 LINE",
"237 489 LINE",
"20 285 LINE"
);
}
);
width = 389;
},
{
layerId = "F3BFA7D7-9187-4567-9958-41DFD36DE2A0";
width = 600;
}
);
unicode = 2039;
},
{
glyphname = OE;
lastChange = "2018-05-04 04:03:00 +0000";
layers = (
{
layerId = UUID0;
paths = (
{
closed = 1;
nodes = (
"1140 0 LINE",
"1060 90 LINE",
"722 90 LINE",
"722 295 LINE",
"1060 295 LINE",
"980 385 LINE",
"721 385 LINE",
"721 577 LINE",
"1100 577 LINE",
"1020 667 LINE",
"593 667 LINE",
"593 582 LINE",
"553 617 OFFCURVE",
"507 649 OFFCURVE",
"445 686 CURVE",
"205 825 OFFCURVE",
"-45 354 OFFCURVE",
"141 163 CURVE",
"225 75 OFFCURVE",
"266 57 OFFCURVE",
"332 17 CURVE SMOOTH",
"428 -41 OFFCURVE",
"522 -16 OFFCURVE",
"593 49 CURVE",
"593 29 LINE",
"723 0 LINE"
);
},
{
closed = 1;
nodes = (
"717 435 OFFCURVE",
"500 -29 OFFCURVE",
"290 114 CURVE SMOOTH",
"96 246 OFFCURVE",
"287 724 OFFCURVE",
"507 576 CURVE SMOOTH"
);
}
);
width = 1190;
},
{
layerId = "F3BFA7D7-9187-4567-9958-41DFD36DE2A0";
width = 600;
}
);
unicode = 0152;
},
{
glyphname = quoteleft;
lastChange = "2018-05-04 04:03:00 +0000";
layers = (
{
layerId = UUID0;
paths = (
{
closed = 1;
nodes = (
"63 776 OFFCURVE",
"14 674 OFFCURVE",
"6 623 CURVE",
"4 595 OFFCURVE",
"49 556 OFFCURVE",
"81 541 CURVE",
"102 546 OFFCURVE",
"153 588 OFFCURVE",
"156 611 CURVE",
"146 631 OFFCURVE",
"127 652 OFFCURVE",
"111 666 CURVE",
"109 687 OFFCURVE",
"121 744 OFFCURVE",
"133 782 CURVE",
"92 809 LINE"
);
}
);
width = 256;
},
{
layerId = "F3BFA7D7-9187-4567-9958-41DFD36DE2A0";
width = 600;
}
);
unicode = 2018;
},
{
glyphname = quoteright;
lastChange = "2018-05-04 04:03:00 +0000";
layers = (
{
layerId = UUID0;
paths = (
{
closed = 1;
nodes = (
"193 574 OFFCURVE",
"242 676 OFFCURVE",
"250 727 CURVE",
"252 755 OFFCURVE",
"207 794 OFFCURVE",
"175 809 CURVE",
"154 804 OFFCURVE",
"103 762 OFFCURVE",
"100 739 CURVE",
"110 719 OFFCURVE",
"129 698 OFFCURVE",
"145 684 CURVE",
"147 663 OFFCURVE",
"135 606 OFFCURVE",
"123 568 CURVE",
"164 541 LINE"
);
}
);
width = 256;
},
{
layerId = "F3BFA7D7-9187-4567-9958-41DFD36DE2A0";
width = 600;
}
);
unicode = 2019;
},
{
glyphname = quotedblleft;
lastChange = "2018-05-04 04:03:00 +0000";
layers = (
{
layerId = UUID0;
paths = (
{
closed = 1;
nodes = (
"257 776 OFFCURVE",
"208 674 OFFCURVE",
"200 623 CURVE",
"198 595 OFFCURVE",
"243 556 OFFCURVE",
"275 541 CURVE",
"296 546 OFFCURVE",
"347 588 OFFCURVE",
"350 611 CURVE",
"340 631 OFFCURVE",
"321 652 OFFCURVE",
"305 666 CURVE",
"303 687 OFFCURVE",
"315 744 OFFCURVE",
"327 782 CURVE",
"286 809 LINE"
);
},
{
closed = 1;
nodes = (
"63 776 OFFCURVE",
"14 674 OFFCURVE",
"6 623 CURVE",
"4 595 OFFCURVE",
"49 556 OFFCURVE",
"81 541 CURVE",
"102 546 OFFCURVE",
"153 588 OFFCURVE",
"156 611 CURVE",
"146 631 OFFCURVE",
"127 652 OFFCURVE",
"111 666 CURVE",
"109 687 OFFCURVE",
"121 744 OFFCURVE",
"133 782 CURVE",
"92 809 LINE"
);
}
);
width = 450;
},
{
layerId = "F3BFA7D7-9187-4567-9958-41DFD36DE2A0";
width = 600;
}
);
unicode = 201C;
},
{
glyphname = quotedblright;
lastChange = "2018-05-04 04:03:00 +0000";
layers = (
{
layerId = UUID0;
paths = (
{
closed = 1;
nodes = (
"193 574 OFFCURVE",
"242 676 OFFCURVE",
"250 727 CURVE",
"252 755 OFFCURVE",
"207 794 OFFCURVE",
"175 809 CURVE",
"154 804 OFFCURVE",
"103 762 OFFCURVE",
"100 739 CURVE",
"110 719 OFFCURVE",
"129 698 OFFCURVE",
"145 684 CURVE",
"147 663 OFFCURVE",
"135 606 OFFCURVE",
"123 568 CURVE",
"164 541 LINE"
);
},
{
closed = 1;
nodes = (
"387 574 OFFCURVE",
"436 676 OFFCURVE",
"444 727 CURVE",
"446 755 OFFCURVE",
"401 794 OFFCURVE",
"369 809 CURVE",
"348 804 OFFCURVE",
"297 762 OFFCURVE",
"294 739 CURVE",
"304 719 OFFCURVE",
"323 698 OFFCURVE",
"339 684 CURVE",
"341 663 OFFCURVE",
"329 606 OFFCURVE",
"317 568 CURVE",
"358 541 LINE"
);
}
);
width = 450;
},
{
layerId = "F3BFA7D7-9187-4567-9958-41DFD36DE2A0";
width = 600;
}
);
unicode = 201D;
},
{
glyphname = bullet;
lastChange = "2018-05-04 04:03:00 +0000";
layers = (
{
layerId = UUID0;
paths = (
{
closed = 1;
nodes = (
"221 208 OFFCURVE",
"259 251 OFFCURVE",
"272 287 CURVE",
"259 315 OFFCURVE",
"226 366 OFFCURVE",
"156 397 CURVE",
"124 389 OFFCURVE",
"45 324 OFFCURVE",
"40 289 CURVE",
"66 236 OFFCURVE",
"114 196 OFFCURVE",
"158 175 CURVE"
);
}
);
width = 312;
},
{
layerId = "F3BFA7D7-9187-4567-9958-41DFD36DE2A0";
width = 600;
}
);
unicode = 2022;
},
{
glyphname = endash;
lastChange = "2018-05-04 04:03:00 +0000";
layers = (
{
layerId = UUID0;
paths = (
{
closed = 1;
nodes = (
"534 277 LINE",
"503 358 LINE",
"30 358 LINE",
"61 277 LINE"
);
}
);
width = 564;
},
{
layerId = "F3BFA7D7-9187-4567-9958-41DFD36DE2A0";
width = 600;
}
);
unicode = 2013;
},
{
glyphname = emdash;
lastChange = "2018-05-04 04:03:00 +0000";
layers = (
{
layerId = UUID0;
paths = (
{
closed = 1;
nodes = (
"875 277 LINE",
"844 358 LINE",
"30 358 LINE",
"61 277 LINE"
);
}
);
width = 905;
},
{
layerId = "F3BFA7D7-9187-4567-9958-41DFD36DE2A0";
width = 600;
}
);
unicode = 2014;
},
{
glyphname = tilde;
lastChange = "2018-05-04 04:03:00 +0000";
layers = (
{
layerId = UUID0;
paths = (
{
closed = 1;
nodes = (
"107 720 OFFCURVE",
"0 640 OFFCURVE",
"-2 632 CURVE",
"-2 621 OFFCURVE",
"55 543 OFFCURVE",
"64 541 CURVE",
"77 545 OFFCURVE",
"132 626 OFFCURVE",
"163 627 CURVE SMOOTH",
"178 628 OFFCURVE",
"261 539 OFFCURVE",
"288 539 CURVE SMOOTH",
"338 539 OFFCURVE",
"424 631 OFFCURVE",
"423 637 CURVE",
"422 644 OFFCURVE",
"355 713 OFFCURVE",
"349 714 CURVE",
"341 713 OFFCURVE",
"277 625 OFFCURVE",
"254 625 CURVE SMOOTH",
"233 625 OFFCURVE",
"161 714 OFFCURVE",
"134 717 CURVE SMOOTH"
);
}
);
width = 414;
},
{
layerId = "F3BFA7D7-9187-4567-9958-41DFD36DE2A0";
width = 600;
}
);
unicode = 02DC;
},
{
glyphname = trademark;
lastChange = "2018-05-04 04:03:00 +0000";
layers = (
{
layerId = UUID0;
paths = (
{
closed = 1;
nodes = (
"339 697 LINE",
"339 438 LINE",
"401 424 LINE",
"401 578 LINE",
"461 448 LINE",
"523 434 LINE",
"582 552 LINE",
"582 438 LINE",
"645 424 LINE",
"644 677 LINE",
"582 697 LINE",
"582 696 LINE",
"581 697 LINE",
"486 500 LINE",
"401 677 LINE"
);
},
{
closed = 1;
nodes = (
"148 654 LINE",
"148 438 LINE",
"211 424 LINE",
"210 654 LINE",
"310 654 LINE",
"272 697 LINE",
"40 697 LINE",
"78 654 LINE"
);
}
);
width = 729;
},
{
layerId = "F3BFA7D7-9187-4567-9958-41DFD36DE2A0";
width = 600;
}
);
unicode = 2122;
},
{
glyphname = guilsinglright;
lastChange = "2018-05-04 04:03:00 +0000";
layers = (
{
layerId = UUID0;
paths = (
{
closed = 1;
nodes = (
"114 67 LINE",
"369 285 LINE",
"152 489 LINE",
"60 421 LINE",
"242 262 LINE",
"67 119 LINE"
);
}
);
width = 389;
},
{
layerId = "F3BFA7D7-9187-4567-9958-41DFD36DE2A0";
width = 600;
}
);
unicode = 203A;
},
{
glyphname = oe;
lastChange = "2018-05-04 04:03:00 +0000";
layers = (
{
layerId = UUID0;
paths = (
{
closed = 1;
nodes = (
"583 109 OFFCURVE",
"905 335 OFFCURVE",
"907 342 CURVE",
"850 396 OFFCURVE",
"717 494 OFFCURVE",
"658 494 CURVE SMOOTH",
"582 494 OFFCURVE",
"519 444 OFFCURVE",
"482 376 CURVE",
"440 413 OFFCURVE",
"399 438 OFFCURVE",
"336 472 CURVE SMOOTH",
"156 567 OFFCURVE",
"-69 251 OFFCURVE",
"139 73 CURVE SMOOTH",
"167 49 OFFCURVE",
"189 29 OFFCURVE",
"249 -3 CURVE SMOOTH",
"369 -67 OFFCURVE",
"472 -6 OFFCURVE",
"522 87 CURVE",
"569 41 OFFCURVE",
"626 5 OFFCURVE",
"666 -10 CURVE SMOOTH",
"750 -42 OFFCURVE",
"827 -2 OFFCURVE",
"932 75 CURVE",
"932 75 OFFCURVE",
"855 158 OFFCURVE",
"854 157 CURVE SMOOTH",
"791 105 OFFCURVE",
"703 53 OFFCURVE",
"644 64 CURVE SMOOTH",
"622 68 OFFCURVE",
"590 99 OFFCURVE",
"583 109 CURVE"
);
},
{
closed = 1;
nodes = (
"431 357 OFFCURVE",
"448 320 OFFCURVE",
"451 280 CURVE",
"450 268 OFFCURVE",
"449 255 OFFCURVE",
"450 243 CURVE",
"435 131 OFFCURVE",
"327 13 OFFCURVE",
"226 71 CURVE SMOOTH",
"65 162 OFFCURVE",
"236 483 OFFCURVE",
"394 381 CURVE SMOOTH"
);
},
{
closed = 1;
nodes = (
"717 417 OFFCURVE",
"758 395 OFFCURVE",
"804 363 CURVE",
"554 203 LINE",
"555 210 OFFCURVE",
"555 216 OFFCURVE",
"555 222 CURVE SMOOTH",
"562 315 OFFCURVE",
"622 417 OFFCURVE",
"689 417 CURVE SMOOTH"
);
}
);
width = 989;
},
{
layerId = "F3BFA7D7-9187-4567-9958-41DFD36DE2A0";
width = 600;
}
);
unicode = 0153;
},
{
glyphname = dieresis;
lastChange = "2018-05-04 04:03:00 +0000";
layers = (
{
layerId = UUID0;
paths = (
{
closed = 1;
nodes = (
"296 570 OFFCURVE",
"317 594 OFFCURVE",
"324 614 CURVE",
"317 630 OFFCURVE",
"298 659 OFFCURVE",
"260 676 CURVE",
"242 672 OFFCURVE",
"197 635 OFFCURVE",
"195 615 CURVE",
"210 586 OFFCURVE",
"236 563 OFFCURVE",
"260 552 CURVE"
);
},
{
closed = 1;
nodes = (
"119 570 OFFCURVE",
"140 594 OFFCURVE",
"147 614 CURVE",
"140 630 OFFCURVE",
"121 659 OFFCURVE",
"83 676 CURVE",
"65 672 OFFCURVE",
"20 635 OFFCURVE",
"18 615 CURVE",
"33 586 OFFCURVE",
"59 563 OFFCURVE",
"83 552 CURVE"
);
}
);
width = 341;
},
{
layerId = "F3BFA7D7-9187-4567-9958-41DFD36DE2A0";
width = 600;
}
);
unicode = 00A8;
},
{
glyphname = exclamdown;
lastChange = "2018-05-04 04:03:00 +0000";
layers = (
{
layerId = UUID0;
paths = (
{
closed = 1;
nodes = (
"196 523 OFFCURVE",
"172 495 OFFCURVE",
"163 472 CURVE",
"172 454 OFFCURVE",
"193 421 OFFCURVE",
"238 401 CURVE",
"259 406 OFFCURVE",
"310 448 OFFCURVE",
"313 471 CURVE",
"296 505 OFFCURVE",
"265 531 OFFCURVE",
"237 544 CURVE"
);
},
{
closed = 1;
nodes = (
"290 -188 LINE",
"285 328 LINE",
"196 347 LINE",
"164 -160 LINE"
);
}
);
width = 425;
},
{
layerId = "F3BFA7D7-9187-4567-9958-41DFD36DE2A0";
width = 600;
}
);
unicode = 00A1;
},
{
glyphname = cent;
lastChange = "2018-05-04 04:03:00 +0000";
layers = (
{
layerId = UUID0;
paths = (
{
closed = 1;
nodes = (
"460 383 OFFCURVE",
"435 402 OFFCURVE",
"410 418 CURVE",
"464 554 LINE",
"398 625 LINE",
"332 465 LINE",
"305 480 OFFCURVE",
"283 489 OFFCURVE",
"277 489 CURVE SMOOTH",
"96 489 OFFCURVE",
"-30 239 OFFCURVE",
"96 101 CURVE SMOOTH",
"113 82 OFFCURVE",
"132 64 OFFCURVE",
"152 48 CURVE",
"99 -75 LINE",
"169 -149 LINE",
"228 -1 LINE",
"238 -7 OFFCURVE",
"249 -11 OFFCURVE",
"258 -15 CURVE SMOOTH",
"342 -47 OFFCURVE",
"393 -10 OFFCURVE",
"484 70 CURVE",
"484 70 OFFCURVE",
"410 150 OFFCURVE",
"409 149 CURVE SMOOTH",
"354 89 OFFCURVE",
"268 35 OFFCURVE",
"221 64 CURVE SMOOTH",
"69 158 OFFCURVE",
"202 401 OFFCURVE",
"307 405 CURVE SMOOTH",
"331 406 OFFCURVE",
"388 362 OFFCURVE",
"449 317 CURVE",
"482 364 LINE"
);
}
);
width = 545;
},
{
layerId = "F3BFA7D7-9187-4567-9958-41DFD36DE2A0";
width = 600;
}
);
unicode = 00A2;
},
{
glyphname = sterling;
lastChange = "2018-05-04 04:03:00 +0000";
layers = (
{
layerId = UUID0;
paths = (
{
closed = 1;
nodes = (
"350 -9 OFFCURVE",
"477 -56 OFFCURVE",
"502 -56 CURVE SMOOTH",
"560 -56 OFFCURVE",
"605 -40 OFFCURVE",
"697 5 CURVE",
"586 67 LINE",
"492 16 OFFCURVE",
"406 14 OFFCURVE",
"332 34 CURVE",
"371 270 LINE",
"442 270 OFFCURVE",
"508 278 OFFCURVE",
"544 303 CURVE SMOOTH",
"629 360 OFFCURVE",
"659 455 OFFCURVE",
"621 489 CURVE SMOOTH",
"594 513 OFFCURVE",
"533 581 OFFCURVE",
"465 623 CURVE",
"429 644 OFFCURVE",
"280 537 OFFCURVE",
"259 407 CURVE SMOOTH",
"247 331 LINE",
"208 333 OFFCURVE",
"171 338 OFFCURVE",
"140 345 CURVE",
"176 281 LINE",
"195 279 OFFCURVE",
"216 277 OFFCURVE",
"238 276 CURVE",
"208 92 LINE",
"179 112 OFFCURVE",
"153 133 OFFCURVE",
"132 153 CURVE SMOOTH",
"121 163 OFFCURVE",
"52 77 OFFCURVE",
"52 63 CURVE SMOOTH",
"52 19 OFFCURVE",
"148 -45 OFFCURVE",
"195 -48 CURVE SMOOTH",
"241 -51 OFFCURVE",
"315 2 OFFCURVE",
"327 1 CURVE"
);
},
{
closed = 1;
nodes = (
"407 488 OFFCURVE",
"487 562 OFFCURVE",
"533 523 CURVE SMOOTH",
"559 501 OFFCURVE",
"554 420 OFFCURVE",
"484 371 CURVE SMOOTH",
"461 354 OFFCURVE",
"424 343 OFFCURVE",
"382 337 CURVE",
"388 371 LINE SMOOTH"
);
}
);
width = 722;
},
{
layerId = "F3BFA7D7-9187-4567-9958-41DFD36DE2A0";
width = 600;
}
);
unicode = 00A3;
},
{
glyphname = currency;
lastChange = "2018-05-04 04:03:00 +0000";
layers = (
{
layerId = UUID0;
paths = (
{
closed = 1;
nodes = (
"132 59 LINE",
"235 161 LINE",
"243 156 OFFCURVE",
"252 151 OFFCURVE",
"263 146 CURVE SMOOTH",
"318 118 OFFCURVE",
"368 127 OFFCURVE",
"407 153 CURVE",
"500 58 LINE",
"533 98 LINE",
"438 181 LINE",
"494 244 OFFCURVE",
"510 349 OFFCURVE",
"451 407 CURVE",
"556 511 LINE",
"489 566 LINE",
"376 460 LINE",
"363 468 OFFCURVE",
"349 475 OFFCURVE",
"332 484 CURVE SMOOTH",
"284 508 OFFCURVE",
"231 491 OFFCURVE",
"190 456 CURVE",
"93 553 LINE",
"57 516 LINE",
"161 424 LINE",
"118 364 OFFCURVE",
"105 278 OFFCURVE",
"165 214 CURVE",
"62 117 LINE"
);
},
{
closed = 1;
nodes = (
"458 350 OFFCURVE",
"356 144 OFFCURVE",
"256 203 CURVE SMOOTH",
"156 261 OFFCURVE",
"268 474 OFFCURVE",
"362 412 CURVE SMOOTH"
);
}
);
width = 600;
},
{
layerId = "F3BFA7D7-9187-4567-9958-41DFD36DE2A0";
width = 600;
}
);
unicode = 00A4;
},
{
glyphname = yen;
lastChange = "2018-05-04 04:03:00 +0000";
layers = (
{
layerId = UUID0;
paths = (
{
closed = 1;
nodes = (
"0 667 LINE",
"222 312 LINE",
"83 312 LINE",
"113 239 LINE",
"246 239 LINE",
"246 182 LINE",
"93 182 LINE",
"123 109 LINE",
"246 109 LINE",
"246 0 LINE",
"376 -29 LINE",
"375 109 LINE",
"546 109 LINE",
"516 182 LINE",
"374 182 LINE",
"374 239 LINE",
"536 239 LINE",
"506 312 LINE",
"412 312 LINE",
"591 637 LINE",
"461 666 LINE",
"297 367 LINE",
"125 638 LINE"
);
}
);
width = 615;
},
{
layerId = "F3BFA7D7-9187-4567-9958-41DFD36DE2A0";
width = 600;
}
);
unicode = 00A5;
},
{
glyphname = brokenbar;
lastChange = "2018-05-04 04:03:00 +0000";
layers = (
{
layerId = UUID0;
paths = (
{
closed = 1;
nodes = (
"76 302 LINE",
"76 -54 LINE",
"200 -110 LINE",
"200 246 LINE"
);
},
{
closed = 1;
nodes = (
"76 767 LINE",
"76 411 LINE",
"200 355 LINE",
"200 711 LINE"
);
}
);
width = 275;
},
{
layerId = "F3BFA7D7-9187-4567-9958-41DFD36DE2A0";
width = 600;
}
);
unicode = 00A6;
},
{
glyphname = section;
lastChange = "2018-05-04 04:03:00 +0000";
layers = (
{
layerId = UUID0;
paths = (
{
closed = 1;
nodes = (
"413 439 OFFCURVE",
"385 456 OFFCURVE",
"343 478 CURVE",
"344 478 LINE",
"342 478 LINE",
"332 484 LINE",
"321 488 LINE",
"152 577 OFFCURVE",
"291 721 OFFCURVE",
"402 644 CURVE",
"425 672 LINE",
"381 709 OFFCURVE",
"339 738 OFFCURVE",
"326 739 CURVE SMOOTH",
"171 747 OFFCURVE",
"140 623 OFFCURVE",
"157 570 CURVE SMOOTH",
"163 551 OFFCURVE",
"213 518 OFFCURVE",
"255 492 CURVE",
"149 465 OFFCURVE",
"61 296 OFFCURVE",
"183 198 CURVE SMOOTH",
"204 181 OFFCURVE",
"219 168 OFFCURVE",
"263 146 CURVE SMOOTH",
"264 145 LINE SMOOTH",
"397 53 OFFCURVE",
"279 -96 OFFCURVE",
"170 -20 CURVE",
"153 -43 LINE",
"197 -80 OFFCURVE",
"246 -103 OFFCURVE",
"259 -104 CURVE SMOOTH",
"414 -112 OFFCURVE",
"445 12 OFFCURVE",
"428 65 CURVE SMOOTH",
"423 80 OFFCURVE",
"387 106 OFFCURVE",
"349 130 CURVE",
"470 148 OFFCURVE",
"539 333 OFFCURVE",
"445 413 CURVE"
);
},
{
closed = 1;
nodes = (
"458 350 OFFCURVE",
"356 144 OFFCURVE",
"256 203 CURVE SMOOTH",
"156 261 OFFCURVE",
"268 474 OFFCURVE",
"362 412 CURVE SMOOTH"
);
}
);
width = 529;
},
{
layerId = "F3BFA7D7-9187-4567-9958-41DFD36DE2A0";
width = 600;
}
);
unicode = 00A7;
},
{
glyphname = copyright;
lastChange = "2018-05-04 04:03:00 +0000";
layers = (
{
anchors = (
{
name = cedilla;
position = "{407, 198}";
},
{
name = top;
position = "{508, 510}";
}
);
layerId = UUID0;
paths = (
{
closed = 1;
nodes = (
"853 416 OFFCURVE",
"594 -39 OFFCURVE",
"305 127 CURVE SMOOTH",
"33 283 OFFCURVE",
"289 782 OFFCURVE",
"591 586 CURVE SMOOTH"
);
},
{
closed = 1;
nodes = (
"660 603 OFFCURVE",
"609 637 OFFCURVE",
"501 688 CURVE SMOOTH",
"218 824 OFFCURVE",
"-62 365 OFFCURVE",
"156 180 CURVE SMOOTH",
"256 95 OFFCURVE",
"277 85 OFFCURVE",
"354 47 CURVE SMOOTH",
"666 -110 OFFCURVE",
"952 352 OFFCURVE",
"726 547 CURVE SMOOTH"
);
},
{
closed = 1;
nodes = (
"497 507 OFFCURVE",
"445 526 OFFCURVE",
"433 526 CURVE SMOOTH",
"308 526 OFFCURVE",
"220 352 OFFCURVE",
"308 256 CURVE SMOOTH",
"342 218 OFFCURVE",
"389 187 OFFCURVE",
"420 176 CURVE SMOOTH",
"479 153 OFFCURVE",
"527 177 OFFCURVE",
"594 228 CURVE",
"594 228 OFFCURVE",
"544 286 OFFCURVE",
"543 285 CURVE SMOOTH",
"500 252 OFFCURVE",
"427 210 OFFCURVE",
"394 231 CURVE SMOOTH",
"289 296 OFFCURVE",
"381 465 OFFCURVE",
"454 468 CURVE SMOOTH",
"471 468 OFFCURVE",
"505 454 OFFCURVE",
"550 438 CURVE",
"572 471 LINE"
);
}
);
width = 882;
},
{
layerId = "F3BFA7D7-9187-4567-9958-41DFD36DE2A0";
width = 600;
}
);
unicode = 00A9;
},
{
glyphname = ordfeminine;
lastChange = "2018-05-04 04:03:00 +0000";
layers = (
{
layerId = UUID0;
paths = (
{
closed = 1;
nodes = (
"107 493 OFFCURVE",
"247 688 OFFCURVE",
"299 650 CURVE SMOOTH",
"311 641 OFFCURVE",
"315 619 OFFCURVE",
"305 568 CURVE",
"297 521 OFFCURVE",
"213 432 OFFCURVE",
"175 454 CURVE SMOOTH"
);
},
{
closed = 1;
nodes = (
"389 402 OFFCURVE",
"383 449 OFFCURVE",
"386 478 CURVE SMOOTH",
"388 494 OFFCURVE",
"403 620 OFFCURVE",
"387 638 CURVE SMOOTH",
"359 667 OFFCURVE",
"338 675 OFFCURVE",
"308 692 CURVE SMOOTH",
"178 766 OFFCURVE",
"33 547 OFFCURVE",
"103 467 CURVE SMOOTH",
"132 434 OFFCURVE",
"165 417 OFFCURVE",
"188 406 CURVE SMOOTH",
"244 380 OFFCURVE",
"272 402 OFFCURVE",
"300 439 CURVE",
"302 423 OFFCURVE",
"306 412 OFFCURVE",
"310 405 CURVE",
"398 388 LINE"
);
}
);
width = 447;
},
{
layerId = "F3BFA7D7-9187-4567-9958-41DFD36DE2A0";
width = 600;
}
);
unicode = 00AA;
},
{
glyphname = guillemotleft;
lastChange = "2018-05-04 04:03:00 +0000";
layers = (
{
layerId = UUID0;
paths = (
{
closed = 1;
nodes = (
"561 67 LINE",
"608 119 LINE",
"433 262 LINE",
"615 421 LINE",
"523 489 LINE",
"306 285 LINE"
);
},
{
closed = 1;
nodes = (
"265 67 LINE",
"312 119 LINE",
"137 262 LINE",
"319 421 LINE",
"227 489 LINE",
"10 285 LINE"
);
}
);
width = 675;
},
{
layerId = "F3BFA7D7-9187-4567-9958-41DFD36DE2A0";
width = 600;
}
);
unicode = 00AB;
},
{
glyphname = logicalnot;
lastChange = "2018-05-04 04:03:00 +0000";
layers = (
{
layerId = UUID0;
paths = (
{
closed = 1;
nodes = (
"382 277 LINE",
"312 156 LINE",
"416 117 LINE",
"514 277 LINE",
"483 358 LINE",
"30 358 LINE",
"61 277 LINE"
);
}
);
width = 566;
},
{
layerId = "F3BFA7D7-9187-4567-9958-41DFD36DE2A0";
width = 600;
}
);
unicode = 00AC;
},
{
glyphname = minus;
lastChange = "2018-05-04 04:03:00 +0000";
layers = (
{
layerId = UUID0;
paths = (
{
closed = 1;
nodes = (
"514 277 LINE",
"483 358 LINE",
"30 358 LINE",
"61 277 LINE"
);
}
);
width = 566;
},
{
layerId = "F3BFA7D7-9187-4567-9958-41DFD36DE2A0";
width = 600;
}
);
unicode = 2212;
},
{
glyphname = registered;
lastChange = "2018-05-04 04:03:00 +0000";
layers = (
{
layerId = UUID0;
paths = (
{
closed = 1;
nodes = (
"348 656 OFFCURVE",
"319 674 OFFCURVE",
"257 703 CURVE SMOOTH",
"96 777 OFFCURVE",
"-64 525 OFFCURVE",
"59 423 CURVE SMOOTH",
"116 377 OFFCURVE",
"128 371 OFFCURVE",
"173 351 CURVE",
"351 264 OFFCURVE",
"513 517 OFFCURVE",
"384 624 CURVE"
);
},
{
closed = 1;
nodes = (
"443 563 OFFCURVE",
"294 310 OFFCURVE",
"145 393 CURVE",
"4 474 OFFCURVE",
"150 744 OFFCURVE",
"308 647 CURVE SMOOTH"
);
},
{
closed = 1;
nodes = (
"311 441 LINE",
"276 505 LINE",
"303 522 OFFCURVE",
"311 549 OFFCURVE",
"302 559 CURVE",
"292 573 OFFCURVE",
"257 598 OFFCURVE",
"246 607 CURVE SMOOTH",
"236 616 OFFCURVE",
"174 609 OFFCURVE",
"139 599 CURVE",
"139 446 LINE",
"187 434 LINE",
"187 493 LINE",
"207 489 OFFCURVE",
"225 489 OFFCURVE",
"240 491 CURVE",
"262 451 LINE"
);
},
{
closed = 1;
nodes = (
"274 556 OFFCURVE",
"256 508 OFFCURVE",
"187 513 CURVE",
"187 572 LINE",
"212 578 OFFCURVE",
"243 583 OFFCURVE",
"257 572 CURVE"
);
}
);
width = 456;
},
{
layerId = "F3BFA7D7-9187-4567-9958-41DFD36DE2A0";
width = 600;
}
);
unicode = 00AE;
},
{
glyphname = macron;
lastChange = "2018-05-04 04:03:00 +0000";
layers = (
{
layerId = UUID0;
paths = (
{
closed = 1;
nodes = (
"349 543 LINE",
"326 601 LINE",
"36 601 LINE",
"58 543 LINE"
);
}
);
width = 377;
},
{
layerId = "F3BFA7D7-9187-4567-9958-41DFD36DE2A0";
width = 600;
}
);
unicode = 00AF;
},
{
glyphname = degree;
lastChange = "2018-05-04 04:03:00 +0000";
layers = (
{
layerId = UUID0;
paths = (
{
closed = 1;
nodes = (
"422 582 OFFCURVE",
"332 399 OFFCURVE",
"243 451 CURVE SMOOTH",
"154 503 OFFCURVE",
"253 692 OFFCURVE",
"337 637 CURVE SMOOTH"
);
},
{
closed = 1;
nodes = (
"380 664 OFFCURVE",
"354 679 OFFCURVE",
"310 701 CURVE SMOOTH",
"195 759 OFFCURVE",
"44 555 OFFCURVE",
"178 447 CURVE SMOOTH",
"196 432 OFFCURVE",
"210 420 OFFCURVE",
"249 401 CURVE SMOOTH",
"400 325 OFFCURVE",
"513 552 OFFCURVE",
"411 638 CURVE SMOOTH"
);
}
);
width = 463;
},
{
layerId = "F3BFA7D7-9187-4567-9958-41DFD36DE2A0";
width = 600;
}
);
unicode = 00B0;
},
{
glyphname = plusminus;
lastChange = "2018-05-04 04:03:00 +0000";
layers = (
{
layerId = UUID0;
paths = (
{
closed = 1;
nodes = (
"233 367 LINE",
"233 173 LINE",
"348 145 LINE",
"348 367 LINE",
"537 367 LINE",
"507 440 LINE",
"348 440 LINE",
"348 624 LINE",
"233 652 LINE",
"233 440 LINE",
"34 440 LINE",
"64 367 LINE"
);
},
{
closed = 1;
nodes = (
"527 15 LINE",
"496 96 LINE",
"43 96 LINE",
"74 15 LINE"
);
}
);
width = 600;
},
{
layerId = "F3BFA7D7-9187-4567-9958-41DFD36DE2A0";
width = 600;
}
);
unicode = 00B1;
},
{
glyphname = twosuperior;
lastChange = "2018-05-04 04:03:00 +0000";
layers = (
{
layerId = UUID0;
paths = (
{
closed = 1;
nodes = (
"246 649 OFFCURVE",
"200 693 OFFCURVE",
"173 716 CURVE SMOOTH",
"139 745 OFFCURVE",
"24 651 OFFCURVE",
"10 635 CURVE",
"65 573 LINE",
"79 595 OFFCURVE",
"170 671 OFFCURVE",
"194 645 CURVE SMOOTH",
"213 624 OFFCURVE",
"203 591 OFFCURVE",
"136 538 CURVE SMOOTH",
"99 509 OFFCURVE",
"18 450 OFFCURVE",
"18 450 CURVE",
"76 388 LINE",
"318 388 LINE",
"260 450 LINE",
"153 450 LINE",
"201 489 LINE SMOOTH",
"242 523 OFFCURVE",
"302 581 OFFCURVE",
"271 619 CURVE SMOOTH"
);
}
);
width = 328;
},
{
layerId = "F3BFA7D7-9187-4567-9958-41DFD36DE2A0";
width = 600;
}
);
unicode = 00B2;
},
{
glyphname = threesuperior;
lastChange = "2018-05-04 04:03:00 +0000";
layers = (
{
layerId = UUID0;
paths = (
{
closed = 1;
nodes = (
"220 657 OFFCURVE",
"195 682 OFFCURVE",
"162 709 CURVE SMOOTH",
"119 744 OFFCURVE",
"33 672 OFFCURVE",
"13 652 CURVE",
"60 594 LINE",
"105 639 OFFCURVE",
"153 681 OFFCURVE",
"178 652 CURVE SMOOTH",
"204 622 OFFCURVE",
"170 577 OFFCURVE",
"82 569 CURVE",
"112 512 LINE",
"144 513 OFFCURVE",
"170 520 OFFCURVE",
"190 530 CURVE",
"245 467 OFFCURVE",
"111 385 OFFCURVE",
"36 503 CURVE",
"10 487 LINE",
"37 445 OFFCURVE",
"58 424 OFFCURVE",
"82 405 CURVE SMOOTH",
"177 328 OFFCURVE",
"326 466 OFFCURVE",
"266 514 CURVE SMOOTH",
"254 524 OFFCURVE",
"235 535 OFFCURVE",
"216 546 CURVE",
"247 572 OFFCURVE",
"256 606 OFFCURVE",
"243 625 CURVE SMOOTH"
);
}
);
width = 290;
},
{
layerId = "F3BFA7D7-9187-4567-9958-41DFD36DE2A0";
width = 600;
}
);
unicode = 00B3;
},
{
glyphname = acute;
lastChange = "2018-05-04 04:03:00 +0000";
layers = (
{
layerId = UUID0;
paths = (
{
closed = 1;
nodes = (
"221 578 OFFCURVE",
"291 629 OFFCURVE",
"346 676 CURVE SMOOTH",
"364 691 OFFCURVE",
"297 772 OFFCURVE",
"282 770 CURVE",
"233 700 OFFCURVE",
"182 644 OFFCURVE",
"144 591 CURVE",
"167 550 LINE"
);
}
);
width = 266;
},
{
layerId = "F3BFA7D7-9187-4567-9958-41DFD36DE2A0";
width = 600;
}
);
unicode = 00B4;
},
{
glyphname = paragraph;
lastChange = "2018-05-04 04:03:00 +0000";
layers = (
{
layerId = UUID0;
paths = (
{
closed = 1;
nodes = (
"320 760 OFFCURVE",
"4 547 OFFCURVE",
"47 422 CURVE SMOOTH",
"72 350 OFFCURVE",
"129 295 OFFCURVE",
"166 262 CURVE SMOOTH",
"183 246 OFFCURVE",
"228 232 OFFCURVE",
"280 233 CURVE",
"280 0 LINE",
"410 -29 LINE",
"408 606 LINE",
"437 607 OFFCURVE",
"469 606 OFFCURVE",
"501 604 CURVE",
"501 0 LINE",
"631 -29 LINE",
"629 628 LINE"
);
}
);
width = 692;
},
{
layerId = "F3BFA7D7-9187-4567-9958-41DFD36DE2A0";
width = 600;
}
);
unicode = 00B6;
},
{
glyphname = periodcentered;
lastChange = "2018-05-04 04:03:00 +0000";
layers = (
{
layerId = UUID0;
paths = (
{
closed = 1;
nodes = (
"183 231 OFFCURVE",
"207 259 OFFCURVE",
"216 282 CURVE",
"207 300 OFFCURVE",
"186 333 OFFCURVE",
"141 353 CURVE",
"120 348 OFFCURVE",
"69 306 OFFCURVE",
"66 283 CURVE",
"83 249 OFFCURVE",
"114 223 OFFCURVE",
"142 210 CURVE"
);
}
);
width = 237;
},
{
layerId = "F3BFA7D7-9187-4567-9958-41DFD36DE2A0";
width = 600;
}
);
unicode = 00B7;
},
{
glyphname = cedilla;
lastChange = "2018-05-04 04:03:00 +0000";
layers = (
{
layerId = UUID0;
paths = (
{
closed = 1;
nodes = (
"120 -114 OFFCURVE",
"197 -113 OFFCURVE",
"203 -118 CURVE SMOOTH",
"223 -134 OFFCURVE",
"196 -189 OFFCURVE",
"169 -194 CURVE SMOOTH",
"133 -201 OFFCURVE",
"124 -196 OFFCURVE",
"93 -192 CURVE",
"82 -210 LINE",
"152 -244 OFFCURVE",
"213 -246 OFFCURVE",
"225 -245 CURVE SMOOTH",
"306 -237 OFFCURVE",
"314 -115 OFFCURVE",
"289 -77 CURVE SMOOTH",
"279 -62 OFFCURVE",
"247 -72 OFFCURVE",
"198 -81 CURVE",
"231 36 LINE",
"150 55 LINE",
"120 -114 LINE"
);
}
);
width = 301;
},
{
layerId = "F3BFA7D7-9187-4567-9958-41DFD36DE2A0";
width = 600;
}
);
unicode = 00B8;
},
{
glyphname = onesuperior;
lastChange = "2018-05-04 04:03:00 +0000";
layers = (
{
layerId = UUID0;
paths = (
{
closed = 1;
nodes = (
"102 713 LINE",
"9 627 LINE",
"76 599 LINE",
"102 625 LINE",
"102 393 LINE",
"174 379 LINE",
"174 693 LINE"
);
}
);
width = 187;
},
{
layerId = "F3BFA7D7-9187-4567-9958-41DFD36DE2A0";
width = 600;
}
);
unicode = 00B9;
},
{
glyphname = ordmasculine;
lastChange = "2018-05-04 04:03:00 +0000";
layers = (
{
layerId = UUID0;
paths = (
{
closed = 1;
nodes = (
"395 589 OFFCURVE",
"314 413 OFFCURVE",
"233 457 CURVE SMOOTH",
"149 502 OFFCURVE",
"249 691 OFFCURVE",
"323 639 CURVE SMOOTH"
);
},
{
closed = 1;
nodes = (
"364 666 OFFCURVE",
"339 679 OFFCURVE",
"297 702 CURVE SMOOTH",
"202 754 OFFCURVE",
"50 552 OFFCURVE",
"171 453 CURVE SMOOTH",
"189 438 OFFCURVE",
"202 427 OFFCURVE",
"239 408 CURVE SMOOTH",
"375 338 OFFCURVE",
"480 564 OFFCURVE",
"393 640 CURVE SMOOTH"
);
}
);
width = 452;
},
{
layerId = "F3BFA7D7-9187-4567-9958-41DFD36DE2A0";
width = 600;
}
);
unicode = 00BA;
},
{
glyphname = guillemotright;
lastChange = "2018-05-04 04:03:00 +0000";
layers = (
{
layerId = UUID0;
paths = (
{
closed = 1;
nodes = (
"114 67 LINE",
"369 285 LINE",
"152 489 LINE",
"60 421 LINE",
"242 262 LINE",
"67 119 LINE"
);
},
{
closed = 1;
nodes = (
"410 67 LINE",
"665 285 LINE",
"448 489 LINE",
"356 421 LINE",
"538 262 LINE",
"363 119 LINE"
);
}
);
width = 675;
},
{
layerId = "F3BFA7D7-9187-4567-9958-41DFD36DE2A0";
width = 600;
}
);
unicode = 00BB;
},
{
glyphname = onequarter;
lastChange = "2018-05-04 04:03:00 +0000";
layers = (
{
layerId = UUID0;
paths = (
{
closed = 1;
nodes = (
"571 713 LINE",
"160 1 LINE",
"250 -30 LINE",
"663 680 LINE"
);
},
{
closed = 1;
nodes = (
"714 83 LINE",
"714 -7 LINE",
"816 -30 LINE",
"815 353 LINE",
"714 382 LINE",
"714 160 LINE",
"598 160 LINE",
"684 305 LINE",
"593 327 LINE",
"492 160 LINE",
"491 160 LINE",
"491 159 LINE",
"492 159 LINE",
"562 83 LINE"
);
},
{
closed = 1;
nodes = (
"140 714 LINE",
"10 582 LINE",
"93 553 LINE",
"140 605 LINE",
"140 325 LINE",
"241 303 LINE",
"239 685 LINE"
);
}
);
width = 831;
},
{
layerId = "F3BFA7D7-9187-4567-9958-41DFD36DE2A0";
width = 600;
}
);
unicode = 00BC;
},
{
glyphname = onehalf;
lastChange = "2018-05-04 04:03:00 +0000";
layers = (
{
layerId = UUID0;
paths = (
{
closed = 1;
nodes = (
"816 325 OFFCURVE",
"758 380 OFFCURVE",
"725 409 CURVE SMOOTH",
"682 445 OFFCURVE",
"538 328 OFFCURVE",
"521 308 CURVE",
"590 230 LINE",
"607 258 OFFCURVE",
"721 353 OFFCURVE",
"751 320 CURVE SMOOTH",
"775 294 OFFCURVE",
"762 253 OFFCURVE",
"678 186 CURVE SMOOTH",
"632 150 OFFCURVE",
"531 76 OFFCURVE",
"531 76 CURVE",
"603 -1 LINE",
"906 -1 LINE",
"833 76 LINE",
"699 76 LINE",
"722 94 OFFCURVE",
"745 112 OFFCURVE",
"760 125 CURVE SMOOTH",
"811 168 OFFCURVE",
"886 240 OFFCURVE",
"847 288 CURVE SMOOTH"
);
},
{
closed = 1;
nodes = (
"571 713 LINE",
"160 1 LINE",
"250 -30 LINE",
"663 680 LINE"
);
},
{
closed = 1;
nodes = (
"140 714 LINE",
"10 582 LINE",
"93 553 LINE",
"140 605 LINE",
"140 325 LINE",
"241 303 LINE",
"239 685 LINE"
);
}
);
width = 916;
},
{
layerId = "F3BFA7D7-9187-4567-9958-41DFD36DE2A0";
width = 600;
}
);
unicode = 00BD;
},
{
glyphname = threequarters;
lastChange = "2018-05-04 04:03:00 +0000";
layers = (
{
layerId = UUID0;
paths = (
{
closed = 1;
nodes = (
"581 713 LINE",
"170 1 LINE",
"260 -30 LINE",
"673 680 LINE"
);
},
{
closed = 1;
nodes = (
"724 83 LINE",
"724 -7 LINE",
"826 -30 LINE",
"825 353 LINE",
"724 382 LINE",
"724 160 LINE",
"608 160 LINE",
"694 305 LINE",
"603 327 LINE",
"502 160 LINE",
"501 160 LINE",
"501 159 LINE",
"502 159 LINE",
"572 83 LINE"
);
},
{
closed = 1;
nodes = (
"273 650 OFFCURVE",
"242 680 OFFCURVE",
"202 712 CURVE SMOOTH",
"151 754 OFFCURVE",
"48 668 OFFCURVE",
"24 644 CURVE",
"80 575 LINE",
"135 628 OFFCURVE",
"192 678 OFFCURVE",
"222 644 CURVE SMOOTH",
"254 608 OFFCURVE",
"213 554 OFFCURVE",
"107 545 CURVE",
"143 476 LINE",
"180 477 OFFCURVE",
"211 486 OFFCURVE",
"236 498 CURVE",
"302 423 OFFCURVE",
"142 324 OFFCURVE",
"52 465 CURVE",
"20 447 LINE",
"53 397 OFFCURVE",
"77 371 OFFCURVE",
"107 348 CURVE",
"221 256 OFFCURVE",
"400 421 OFFCURVE",
"328 478 CURVE SMOOTH",
"313 490 OFFCURVE",
"290 504 OFFCURVE",
"267 518 CURVE",
"305 549 OFFCURVE",
"316 590 OFFCURVE",
"301 612 CURVE SMOOTH"
);
}
);
width = 841;
},
{
layerId = "F3BFA7D7-9187-4567-9958-41DFD36DE2A0";
width = 600;
}
);
unicode = 00BE;
},
{
glyphname = questiondown;
lastChange = "2018-05-04 04:03:00 +0000";
layers = (
{
layerId = UUID0;
paths = (
{
closed = 1;
nodes = (
"216 456 OFFCURVE",
"192 428 OFFCURVE",
"183 405 CURVE",
"192 387 OFFCURVE",
"213 354 OFFCURVE",
"258 334 CURVE",
"279 339 OFFCURVE",
"330 381 OFFCURVE",
"333 404 CURVE",
"316 438 OFFCURVE",
"285 464 OFFCURVE",
"257 477 CURVE"
);
},
{
closed = 1;
nodes = (
"347 -132 OFFCURVE",
"230 -185 OFFCURVE",
"179 -135 CURVE SMOOTH",
"92 -50 OFFCURVE",
"341 179 OFFCURVE",
"352 190 CURVE",
"258 271 LINE",
"167 171 OFFCURVE",
"29 36 OFFCURVE",
"61 -54 CURVE SMOOTH",
"73 -87 OFFCURVE",
"169 -201 OFFCURVE",
"238 -243 CURVE SMOOTH",
"292 -276 OFFCURVE",
"424 -228 OFFCURVE",
"467 -172 CURVE",
"389 -88 LINE"
);
}
);
width = 396;
},
{
layerId = "F3BFA7D7-9187-4567-9958-41DFD36DE2A0";
width = 600;
}
);
unicode = 00BF;
},
{
glyphname = AE;
lastChange = "2018-05-04 04:03:00 +0000";
layers = (
{
anchors = (
{
name = ogonek;
position = "{737, 0}";
},
{
name = top;
position = "{737, 0}";
}
);
components = (
{
name = E;
transform = "{1, 0, 0, 1, 397, 0}";
}
);
layerId = UUID0;
paths = (
{
closed = 1;
nodes = (
"466 666 LINE",
"23 0 LINE",
"153 -29 LINE",
"295 182 LINE",
"557 199 LINE",
"557 284 LINE",
"355 271 LINE",
"594 625 LINE"
);
}
);
width = 1029;
},
{
layerId = "F3BFA7D7-9187-4567-9958-41DFD36DE2A0";
width = 600;
}
);
unicode = 00C6;
},
{
glyphname = Eth;
lastChange = "2018-05-04 04:03:00 +0000";
layers = (
{
anchors = (
{
name = top;
position = "{343, 657}";
}
);
components = (
{
name = D;
transform = "{1, 0, 0, 1, 15, 0}";
}
);
layerId = UUID0;
paths = (
{
closed = 1;
nodes = (
"47 278 LINE",
"336 332 LINE",
"269 387 LINE",
"-23 336 LINE"
);
}
);
width = 809;
},
{
layerId = "F3BFA7D7-9187-4567-9958-41DFD36DE2A0";
width = 600;
}
);
unicode = 00D0;
},
{
glyphname = multiply;
lastChange = "2018-05-04 04:03:00 +0000";
layers = (
{
layerId = UUID0;
paths = (
{
closed = 1;
nodes = (
"479 186 LINE",
"326 331 LINE",
"482 504 LINE",
"399 559 LINE",
"253 401 LINE",
"102 545 LINE",
"62 511 LINE",
"217 362 LINE",
"69 200 LINE",
"155 142 LINE",
"290 292 LINE",
"443 146 LINE"
);
}
);
width = 554;
},
{
layerId = "F3BFA7D7-9187-4567-9958-41DFD36DE2A0";
width = 600;
}
);
unicode = 00D7;
},
{
glyphname = Oslash;
lastChange = "2018-05-04 04:03:00 +0000";
layers = (
{
anchors = (
{
name = top;
position = "{414, 743}";
}
);
components = (
{
name = O;
transform = "{1, 0, 0, 1, 10, 0}";
}
);
layerId = UUID0;
paths = (
{
closed = 1;
nodes = (
"202 -29 LINE",
"705 625 LINE",
"622 680 LINE",
"116 29 LINE"
);
}
);
width = 823;
},
{
layerId = "F3BFA7D7-9187-4567-9958-41DFD36DE2A0";
width = 600;
}
);
unicode = 00D8;
},
{
glyphname = Thorn;
lastChange = "2018-05-04 04:03:00 +0000";
layers = (
{
layerId = UUID0;
paths = (
{
closed = 1;
nodes = (
"63 710 LINE",
"63 -1 LINE",
"188 -29 LINE",
"188 160 LINE",
"225 145 OFFCURVE",
"283 123 OFFCURVE",
"307 117 CURVE SMOOTH",
"459 78 OFFCURVE",
"674 376 OFFCURVE",
"421 543 CURVE",
"342 594 OFFCURVE",
"261 597 OFFCURVE",
"188 573 CURVE",
"188 682 LINE"
);
},
{
closed = 1;
nodes = (
"312 189 OFFCURVE",
"236 201 OFFCURVE",
"188 215 CURVE",
"188 433 LINE",
"344 610 OFFCURVE",
"504 467 OFFCURVE",
"376 281 CURVE SMOOTH"
);
}
);
width = 565;
},
{
layerId = "F3BFA7D7-9187-4567-9958-41DFD36DE2A0";
width = 600;
}
);
unicode = 00DE;
},
{
glyphname = germandbls;
lastChange = "2018-05-04 04:03:00 +0000";
layers = (
{
layerId = UUID0;
paths = (
{
closed = 1;
nodes = (
"286 348 OFFCURVE",
"348 306 OFFCURVE",
"391 269 CURVE SMOOTH",
"492 180 OFFCURVE",
"386 11 OFFCURVE",
"247 111 CURVE",
"227 74 LINE",
"281 23 OFFCURVE",
"347 -29 OFFCURVE",
"374 -29 CURVE SMOOTH",
"513 -29 OFFCURVE",
"649 140 OFFCURVE",
"511 251 CURVE SMOOTH",
"490 268 OFFCURVE",
"437 296 OFFCURVE",
"402 318 CURVE",
"445 361 OFFCURVE",
"520 443 OFFCURVE",
"502 498 CURVE SMOOTH",
"485 549 OFFCURVE",
"363 648 OFFCURVE",
"318 677 CURVE SMOOTH",
"282 700 OFFCURVE",
"75 688 OFFCURVE",
"76 513 CURVE SMOOTH",
"77 408 OFFCURVE",
"76 0 OFFCURVE",
"76 0 CURVE",
"203 -29 LINE",
"203 -29 OFFCURVE",
"202 386 OFFCURVE",
"201 475 CURVE SMOOTH",
"200 597 OFFCURVE",
"317 611 OFFCURVE",
"360 574 CURVE SMOOTH",
"431 513 OFFCURVE",
"354 451 OFFCURVE",
"275 363 CURVE"
);
}
);
width = 586;
},
{
layerId = "F3BFA7D7-9187-4567-9958-41DFD36DE2A0";
width = 600;
}
);
unicode = 00DF;
},
{
glyphname = ae;
lastChange = "2018-05-04 04:03:00 +0000";
layers = (
{
anchors = (
{
name = ogonek;
position = "{421, 17}";
},
{
name = top;
position = "{500, 507}";
}
);
layerId = UUID0;
paths = (
{
closed = 1;
nodes = (
"273 397 OFFCURVE",
"404 435 OFFCURVE",
"402 348 CURVE SMOOTH",
"401 322 LINE",
"378 322 OFFCURVE",
"60 287 OFFCURVE",
"59 190 CURVE SMOOTH",
"59 144 OFFCURVE",
"186 -29 OFFCURVE",
"255 -30 CURVE SMOOTH",
"303 -30 OFFCURVE",
"365 28 OFFCURVE",
"397 62 CURVE",
"396 0 LINE",
"510 -29 LINE",
"509 -8 OFFCURVE",
"509 21 OFFCURVE",
"510 55 CURVE",
"550 22 OFFCURVE",
"592 -3 OFFCURVE",
"624 -15 CURVE SMOOTH",
"708 -47 OFFCURVE",
"785 -7 OFFCURVE",
"890 70 CURVE",
"890 70 OFFCURVE",
"813 153 OFFCURVE",
"812 152 CURVE SMOOTH",
"749 100 OFFCURVE",
"661 48 OFFCURVE",
"602 59 CURVE SMOOTH",
"580 63 OFFCURVE",
"548 94 OFFCURVE",
"541 104 CURVE",
"541 104 OFFCURVE",
"863 330 OFFCURVE",
"865 337 CURVE",
"808 391 OFFCURVE",
"675 489 OFFCURVE",
"616 489 CURVE SMOOTH",
"548 489 OFFCURVE",
"489 448 OFFCURVE",
"451 390 CURVE",
"407 437 OFFCURVE",
"349 489 OFFCURVE",
"329 491 CURVE SMOOTH",
"297 493 OFFCURVE",
"150 463 OFFCURVE",
"66 442 CURVE",
"120 351 LINE"
);
},
{
closed = 1;
nodes = (
"107 191 OFFCURVE",
"346 236 OFFCURVE",
"400 248 CURVE",
"399 165 LINE",
"264 60 OFFCURVE",
"197 61 OFFCURVE",
"170 100 CURVE SMOOTH"
);
},
{
closed = 1;
nodes = (
"675 412 OFFCURVE",
"716 390 OFFCURVE",
"762 358 CURVE",
"514 199 LINE",
"514 231 LINE",
"525 319 OFFCURVE",
"584 412 OFFCURVE",
"647 412 CURVE SMOOTH"
);
}
);
width = 920;
},
{
layerId = "F3BFA7D7-9187-4567-9958-41DFD36DE2A0";
width = 600;
}
);
unicode = 00E6;
},
{
glyphname = eth;
lastChange = "2018-05-04 04:03:00 +0000";
layers = (
{
layerId = UUID0;
paths = (
{
closed = 1;
nodes = (
"267 623 OFFCURVE",
"289 601 OFFCURVE",
"309 579 CURVE",
"221 551 LINE",
"291 493 LINE",
"356 515 LINE",
"380 474 OFFCURVE",
"398 431 OFFCURVE",
"409 388 CURVE",
"366 415 OFFCURVE",
"323 439 OFFCURVE",
"294 449 CURVE SMOOTH",
"226 472 OFFCURVE",
"31 255 OFFCURVE",
"76 170 CURVE SMOOTH",
"113 98 OFFCURVE",
"244 -28 OFFCURVE",
"350 -28 CURVE SMOOTH",
"473 -28 OFFCURVE",
"539 72 OFFCURVE",
"552 201 CURVE SMOOTH",
"563 311 OFFCURVE",
"536 443 OFFCURVE",
"472 554 CURVE",
"562 585 LINE",
"495 640 LINE",
"429 618 LINE",
"403 653 OFFCURVE",
"372 684 OFFCURVE",
"337 710 CURVE",
"242 642 LINE"
);
},
{
closed = 1;
nodes = (
"416 90 OFFCURVE",
"328 32 OFFCURVE",
"244 73 CURVE SMOOTH",
"137 126 OFFCURVE",
"206 421 OFFCURVE",
"421 322 CURVE",
"424 296 OFFCURVE",
"425 269 OFFCURVE",
"424 245 CURVE SMOOTH"
);
}
);
width = 604;
},
{
layerId = "F3BFA7D7-9187-4567-9958-41DFD36DE2A0";
width = 600;
}
);
unicode = 00F0;
},
{
glyphname = divide;
lastChange = "2018-05-04 04:03:00 +0000";
layers = (
{
layerId = UUID0;
paths = (
{
closed = 1;
nodes = (
"317 105 OFFCURVE",
"341 133 OFFCURVE",
"350 156 CURVE",
"341 174 OFFCURVE",
"320 207 OFFCURVE",
"275 227 CURVE",
"254 222 OFFCURVE",
"203 180 OFFCURVE",
"200 157 CURVE",
"217 123 OFFCURVE",
"248 97 OFFCURVE",
"276 84 CURVE"
);
},
{
closed = 1;
nodes = (
"311 429 OFFCURVE",
"335 457 OFFCURVE",
"344 480 CURVE",
"335 498 OFFCURVE",
"314 531 OFFCURVE",
"269 551 CURVE",
"248 546 OFFCURVE",
"197 504 OFFCURVE",
"194 481 CURVE",
"211 447 OFFCURVE",
"242 421 OFFCURVE",
"270 408 CURVE"
);
},
{
closed = 1;
nodes = (
"514 277 LINE",
"483 358 LINE",
"30 358 LINE",
"61 277 LINE"
);
}
);
width = 600;
},
{
layerId = "F3BFA7D7-9187-4567-9958-41DFD36DE2A0";
width = 600;
}
);
unicode = 00F7;
},
{
glyphname = oslash;
lastChange = "2018-05-04 04:03:00 +0000";
layers = (
{
components = (
{
name = o;
}
);
layerId = UUID0;
paths = (
{
closed = 1;
nodes = (
"132 -29 LINE",
"538 441 LINE",
"455 496 LINE",
"46 29 LINE"
);
}
);
width = 590;
},
{
layerId = "F3BFA7D7-9187-4567-9958-41DFD36DE2A0";
width = 600;
}
);
unicode = 00F8;
},
{
glyphname = thorn;
lastChange = "2018-05-04 04:03:00 +0000";
layers = (
{
layerId = UUID0;
paths = (
{
closed = 1;
nodes = (
"63 690 LINE",
"63 -227 LINE",
"188 -255 LINE",
"188 13 LINE",
"215 0 OFFCURVE",
"253 -18 OFFCURVE",
"274 -24 CURVE SMOOTH",
"426 -63 OFFCURVE",
"659 246 OFFCURVE",
"406 413 CURVE SMOOTH",
"329 463 OFFCURVE",
"255 462 OFFCURVE",
"188 436 CURVE",
"188 662 LINE"
);
},
{
closed = 1;
nodes = (
"297 61 OFFCURVE",
"231 57 OFFCURVE",
"188 68 CURVE",
"188 286 LINE",
"368 500 OFFCURVE",
"483 308 OFFCURVE",
"363 147 CURVE"
);
}
);
width = 526;
},
{
layerId = "F3BFA7D7-9187-4567-9958-41DFD36DE2A0";
width = 600;
}
);
unicode = 00FE;
},
{
glyphname = Aogonek;
lastChange = "2018-05-04 04:03:00 +0000";
layers = (
{
anchors = (
{
name = ogonek;
position = "{397, 8}";
},
{
name = top;
position = "{332, 743}";
}
);
layerId = UUID0;
paths = (
{
closed = 1;
nodes = (
"252 666 LINE",
"10 0 LINE",
"140 -29 LINE",
"212 167 LINE",
"458 183 LINE",
"528 0 LINE",
"405 -111 OFFCURVE",
"419 -123 OFFCURVE",
"450 -161 CURVE SMOOTH",
"479 -196 OFFCURVE",
"540 -236 OFFCURVE",
"570 -245 CURVE SMOOTH",
"615 -258 OFFCURVE",
"638 -246 OFFCURVE",
"718 -195 CURVE",
"718 -195 OFFCURVE",
"651 -125 OFFCURVE",
"650 -126 CURVE SMOOTH",
"593 -170 OFFCURVE",
"561 -181 OFFCURVE",
"538 -172 CURVE SMOOTH",
"489 -153 OFFCURVE",
"554 -86 OFFCURVE",
"647 -29 CURVE",
"379 622 LINE",
"380 625 LINE"
);
},
{
closed = 1;
nodes = (
"426 266 LINE",
"244 254 LINE",
"335 503 LINE"
);
}
);
width = 657;
},
{
layerId = "F3BFA7D7-9187-4567-9958-41DFD36DE2A0";
width = 600;
}
);
unicode = 0104;
},
{
glyphname = Dcroat;
lastChange = "2018-05-04 04:03:00 +0000";
layers = (
{
anchors = (
{
name = top;
position = "{502, 683}";
}
);
components = (
{
name = D;
transform = "{1, 0, 0, 1, 88, 0}";
}
);
layerId = UUID0;
paths = (
{
closed = 1;
nodes = (
"459 302 LINE",
"428 383 LINE",
"45 383 LINE",
"76 302 LINE"
);
}
);
width = 882;
},
{
layerId = "F3BFA7D7-9187-4567-9958-41DFD36DE2A0";
width = 600;
}
);
unicode = 0110;
},
{
glyphname = Iogonek;
lastChange = "2018-05-04 04:03:00 +0000";
layers = (
{
anchors = (
{
name = ogonek;
position = "{77, 8}";
},
{
name = top;
position = "{234, 743}";
}
);
components = (
{
name = I;
transform = "{1, 0, 0, 1, 15, 0}";
}
);
layerId = UUID0;
paths = (
{
closed = 1;
nodes = (
"4 -70 OFFCURVE",
"17 -123 OFFCURVE",
"48 -161 CURVE SMOOTH",
"77 -196 OFFCURVE",
"138 -236 OFFCURVE",
"168 -245 CURVE SMOOTH",
"213 -258 OFFCURVE",
"236 -246 OFFCURVE",
"316 -195 CURVE",
"316 -195 OFFCURVE",
"249 -125 OFFCURVE",
"248 -126 CURVE SMOOTH",
"191 -170 OFFCURVE",
"159 -181 OFFCURVE",
"136 -172 CURVE SMOOTH",
"87 -153 OFFCURVE",
"119 -56 OFFCURVE",
"217 -29 CURVE",
"131 45 LINE"
);
}
);
width = 300;
},
{
layerId = "F3BFA7D7-9187-4567-9958-41DFD36DE2A0";
width = 600;
}
);
unicode = 012E;
},
{
glyphname = Lcaron;
lastChange = "2018-05-04 04:03:00 +0000";
layers = (
{
anchors = (
{
name = top;
position = "{338, 743}";
}
);
components = (
{
name = L;
transform = "{1, 0, 0, 1, 15, 0}";
}
);
layerId = UUID0;
paths = (
{
closed = 1;
nodes = (
"420 434 OFFCURVE",
"469 536 OFFCURVE",
"477 587 CURVE",
"479 615 OFFCURVE",
"434 654 OFFCURVE",
"402 669 CURVE",
"381 664 OFFCURVE",
"330 622 OFFCURVE",
"327 599 CURVE",
"337 579 OFFCURVE",
"356 558 OFFCURVE",
"372 544 CURVE",
"374 523 OFFCURVE",
"362 466 OFFCURVE",
"350 428 CURVE",
"391 401 LINE"
);
}
);
width = 670;
},
{
layerId = "F3BFA7D7-9187-4567-9958-41DFD36DE2A0";
width = 600;
}
);
unicode = 013D;
},
{
glyphname = aogonek;
lastChange = "2018-05-04 04:03:00 +0000";
layers = (
{
anchors = (
{
name = ogonek;
position = "{344, 7}";
},
{
name = top;
position = "{374, 507}";
}
);
components = (
{
name = a;
transform = "{1, 0, 0, 1, 14, 0}";
}
);
layerId = UUID0;
paths = (
{
closed = 1;
nodes = (
"270 -115 OFFCURVE",
"304 -123 OFFCURVE",
"335 -161 CURVE SMOOTH",
"364 -196 OFFCURVE",
"425 -236 OFFCURVE",
"455 -245 CURVE SMOOTH",
"500 -258 OFFCURVE",
"523 -246 OFFCURVE",
"603 -195 CURVE",
"603 -195 OFFCURVE",
"536 -125 OFFCURVE",
"535 -126 CURVE SMOOTH",
"478 -170 OFFCURVE",
"446 -181 OFFCURVE",
"423 -172 CURVE SMOOTH",
"374 -153 OFFCURVE",
"430 -101 OFFCURVE",
"510 -29 CURVE",
"397 0 LINE"
);
}
);
width = 580;
},
{
layerId = "F3BFA7D7-9187-4567-9958-41DFD36DE2A0";
width = 600;
}
);
unicode = 0105;
},
{
glyphname = dcroat;
lastChange = "2018-05-04 04:03:00 +0000";
layers = (
{
components = (
{
name = d;
transform = "{1, 0, 0, 1, 8, 0}";
}
);
layerId = UUID0;
paths = (
{
closed = 1;
nodes = (
"632 541 LINE",
"601 622 LINE",
"315 622 LINE",
"346 541 LINE"
);
}
);
width = 646;
},
{
layerId = "F3BFA7D7-9187-4567-9958-41DFD36DE2A0";
width = 600;
}
);
unicode = 0111;
},
{
glyphname = eogonek;
lastChange = "2018-05-04 04:03:00 +0000";
layers = (
{
anchors = (
{
name = ogonek;
position = "{279, 43}";
},
{
name = top;
position = "{263, 507}";
}
);
components = (
{
name = e;
}
);
layerId = UUID0;
paths = (
{
closed = 1;
nodes = (
"240 -66 OFFCURVE",
"248 -123 OFFCURVE",
"279 -161 CURVE SMOOTH",
"308 -196 OFFCURVE",
"369 -236 OFFCURVE",
"399 -245 CURVE SMOOTH",
"444 -258 OFFCURVE",
"467 -246 OFFCURVE",
"547 -195 CURVE",
"547 -195 OFFCURVE",
"480 -125 OFFCURVE",
"479 -126 CURVE SMOOTH",
"422 -170 OFFCURVE",
"390 -181 OFFCURVE",
"367 -172 CURVE SMOOTH",
"318 -153 OFFCURVE",
"378 -50 OFFCURVE",
"458 22 CURVE",
"367 49 LINE"
);
}
);
width = 558;
},
{
layerId = "F3BFA7D7-9187-4567-9958-41DFD36DE2A0";
width = 600;
}
);
unicode = 0119;
},
{
glyphname = iogonek;
lastChange = "2018-05-04 04:03:00 +0000";
layers = (
{
anchors = (
{
name = ogonek;
position = "{53, 7}";
},
{
name = top;
position = "{183, 507}";
}
);
components = (
{
name = i;
}
);
layerId = UUID0;
paths = (
{
closed = 1;
nodes = (
"-5 -83 OFFCURVE",
"-3 -123 OFFCURVE",
"28 -161 CURVE SMOOTH",
"57 -196 OFFCURVE",
"118 -236 OFFCURVE",
"148 -245 CURVE SMOOTH",
"193 -258 OFFCURVE",
"216 -246 OFFCURVE",
"296 -195 CURVE",
"296 -195 OFFCURVE",
"229 -125 OFFCURVE",
"228 -126 CURVE SMOOTH",
"171 -170 OFFCURVE",
"139 -181 OFFCURVE",
"116 -172 CURVE SMOOTH",
"67 -153 OFFCURVE",
"119 -88 OFFCURVE",
"197 -29 CURVE",
"83 2 LINE"
);
}
);
width = 276;
},
{
layerId = "F3BFA7D7-9187-4567-9958-41DFD36DE2A0";
width = 600;
}
);
unicode = 012F;
},
{
glyphname = uogonek;
lastChange = "2018-05-04 04:03:00 +0000";
layers = (
{
anchors = (
{
name = ogonek;
position = "{283, 7}";
},
{
name = top;
position = "{287, 507}";
}
);
components = (
{
name = u;
transform = "{1, 0, 0, 1, 15, 0}";
}
);
layerId = UUID0;
paths = (
{
closed = 1;
nodes = (
"327 -83 OFFCURVE",
"329 -123 OFFCURVE",
"360 -161 CURVE SMOOTH",
"389 -196 OFFCURVE",
"450 -236 OFFCURVE",
"480 -245 CURVE SMOOTH",
"525 -258 OFFCURVE",
"548 -246 OFFCURVE",
"628 -195 CURVE",
"628 -195 OFFCURVE",
"561 -125 OFFCURVE",
"560 -126 CURVE SMOOTH",
"503 -170 OFFCURVE",
"471 -181 OFFCURVE",
"448 -172 CURVE SMOOTH",
"399 -153 OFFCURVE",
"451 -88 OFFCURVE",
"529 -29 CURVE",
"415 2 LINE"
);
}
);
width = 592;
},
{
layerId = "F3BFA7D7-9187-4567-9958-41DFD36DE2A0";
width = 600;
}
);
unicode = 0173;
},
{
glyphname = pi;
lastChange = "2018-05-04 04:03:00 +0000";
layers = (
{
layerId = UUID0;
paths = (
{
closed = 1;
nodes = (
"220 389 LINE",
"257 311 OFFCURVE",
"246 209 OFFCURVE",
"228 162 CURVE SMOOTH",
"199 86 OFFCURVE",
"177 62 OFFCURVE",
"151 25 CURVE",
"163 6 OFFCURVE",
"229 -29 OFFCURVE",
"254 -29 CURVE SMOOTH",
"299 -29 OFFCURVE",
"413 189 OFFCURVE",
"300 389 CURVE",
"485 389 LINE",
"485 -1 LINE",
"600 -29 LINE",
"600 389 LINE",
"694 389 LINE",
"614 479 LINE",
"47 479 LINE",
"127 389 LINE"
);
}
);
width = 760;
},
{
layerId = "F3BFA7D7-9187-4567-9958-41DFD36DE2A0";
width = 600;
}
);
unicode = 03C0;
},
{
glyphname = approxequal;
lastChange = "2018-05-04 04:03:00 +0000";
layers = (
{
layerId = UUID0;
paths = (
{
closed = 1;
nodes = (
"171 513 OFFCURVE",
"33 394 OFFCURVE",
"33 394 CURVE",
"118 304 LINE",
"118 304 OFFCURVE",
"214 401 OFFCURVE",
"245 402 CURVE SMOOTH",
"260 403 OFFCURVE",
"336 279 OFFCURVE",
"378 279 CURVE SMOOTH",
"428 279 OFFCURVE",
"558 394 OFFCURVE",
"558 394 CURVE",
"484 485 LINE",
"484 485 OFFCURVE",
"373 376 OFFCURVE",
"339 376 CURVE SMOOTH",
"318 376 OFFCURVE",
"252 513 OFFCURVE",
"203 513 CURVE SMOOTH"
);
},
{
closed = 1;
nodes = (
"171 303 OFFCURVE",
"33 184 OFFCURVE",
"33 184 CURVE",
"118 94 LINE",
"118 94 OFFCURVE",
"214 191 OFFCURVE",
"245 192 CURVE SMOOTH",
"260 193 OFFCURVE",
"336 69 OFFCURVE",
"378 69 CURVE SMOOTH",
"428 69 OFFCURVE",
"558 184 OFFCURVE",
"558 184 CURVE",
"484 275 LINE",
"484 275 OFFCURVE",
"373 166 OFFCURVE",
"339 166 CURVE SMOOTH",
"318 166 OFFCURVE",
"252 303 OFFCURVE",
"203 303 CURVE SMOOTH"
);
}
);
width = 584;
},
{
layerId = "F3BFA7D7-9187-4567-9958-41DFD36DE2A0";
width = 600;
}
);
unicode = 2248;
},
{
glyphname = greaterequal;
lastChange = "2018-05-04 04:03:00 +0000";
layers = (
{
layerId = UUID0;
paths = (
{
closed = 1;
nodes = (
"94 155 LINE",
"344 282 LINE",
"345 282 LINE",
"460 341 LINE",
"141 582 LINE",
"44 520 LINE",
"282 331 LINE",
"39 219 LINE"
);
},
{
closed = 1;
nodes = (
"66 105 LINE",
"36 32 LINE",
"457 91 LINE",
"487 164 LINE"
);
}
);
width = 513;
},
{
layerId = "F3BFA7D7-9187-4567-9958-41DFD36DE2A0";
width = 600;
}
);
unicode = 2265;
},
{
glyphname = infinity;
lastChange = "2018-05-04 04:03:00 +0000";
layers = (
{
layerId = UUID0;
paths = (
{
closed = 1;
nodes = (
"539 466 OFFCURVE",
"469 401 OFFCURVE",
"397 342 CURVE",
"307 426 OFFCURVE",
"271 454 OFFCURVE",
"246 462 CURVE SMOOTH",
"191 480 OFFCURVE",
"46 365 OFFCURVE",
"55 299 CURVE SMOOTH",
"60 257 OFFCURVE",
"216 99 OFFCURVE",
"253 110 CURVE SMOOTH",
"296 124 OFFCURVE",
"367 189 OFFCURVE",
"439 248 CURVE",
"529 164 OFFCURVE",
"565 136 OFFCURVE",
"590 128 CURVE SMOOTH",
"645 110 OFFCURVE",
"790 225 OFFCURVE",
"781 291 CURVE SMOOTH",
"776 333 OFFCURVE",
"620 491 OFFCURVE",
"583 480 CURVE SMOOTH"
);
},
{
closed = 1;
nodes = (
"730 292 OFFCURVE",
"586 142 OFFCURVE",
"470 275 CURVE",
"534 329 OFFCURVE",
"612 393 OFFCURVE",
"632 376 CURVE SMOOTH"
);
},
{
closed = 1;
nodes = (
"106 298 OFFCURVE",
"250 448 OFFCURVE",
"366 315 CURVE",
"302 261 OFFCURVE",
"224 197 OFFCURVE",
"204 214 CURVE SMOOTH"
);
}
);
width = 817;
},
{
layerId = "F3BFA7D7-9187-4567-9958-41DFD36DE2A0";
width = 600;
}
);
unicode = 221E;
},
{
glyphname = integral;
lastChange = "2018-05-04 04:03:00 +0000";
layers = (
{
layerId = UUID0;
paths = (
{
closed = 1;
nodes = (
"166 457 OFFCURVE",
"130 187 OFFCURVE",
"92 4 CURVE SMOOTH",
"86 -27 OFFCURVE",
"62 -134 OFFCURVE",
"-32 -134 CURVE",
"118 -187 OFFCURVE",
"174 -105 OFFCURVE",
"191 -29 CURVE SMOOTH",
"219 90 OFFCURVE",
"264 375 OFFCURVE",
"278 489 CURVE SMOOTH",
"306 710 OFFCURVE",
"377 755 OFFCURVE",
"489 710 CURVE",
"414 783 LINE",
"351 820 OFFCURVE",
"227 797 OFFCURVE",
"189 584 CURVE SMOOTH"
);
}
);
width = 555;
},
{
layerId = "F3BFA7D7-9187-4567-9958-41DFD36DE2A0";
width = 600;
}
);
unicode = 222B;
},
{
glyphname = lessequal;
lastChange = "2018-05-04 04:03:00 +0000";
layers = (
{
layerId = UUID0;
paths = (
{
closed = 1;
nodes = (
"158 282 LINE",
"409 155 LINE",
"464 219 LINE",
"220 331 LINE",
"459 520 LINE",
"362 582 LINE",
"43 341 LINE"
);
},
{
closed = 1;
nodes = (
"467 32 LINE",
"437 105 LINE",
"16 164 LINE",
"46 91 LINE"
);
}
);
width = 513;
},
{
layerId = "F3BFA7D7-9187-4567-9958-41DFD36DE2A0";
width = 600;
}
);
unicode = 2264;
},
{
glyphname = notequal;
lastChange = "2018-05-04 04:03:00 +0000";
layers = (
{
components = (
{
name = equal;
}
);
layerId = UUID0;
paths = (
{
closed = 1;
nodes = (
"265 119 LINE",
"498 509 LINE",
"437 556 LINE",
"201 169 LINE"
);
}
);
width = 672;
},
{
layerId = "F3BFA7D7-9187-4567-9958-41DFD36DE2A0";
width = 600;
}
);
unicode = 2260;
},
{
glyphname = partialdiff;
lastChange = "2018-05-04 04:03:00 +0000";
layers = (
{
layerId = UUID0;
paths = (
{
closed = 1;
nodes = (
"273 571 OFFCURVE",
"325 619 OFFCURVE",
"376 618 CURVE SMOOTH",
"412 617 OFFCURVE",
"447 593 OFFCURVE",
"466 513 CURVE SMOOTH",
"475 475 OFFCURVE",
"476 415 OFFCURVE",
"469 350 CURVE",
"410 388 OFFCURVE",
"337 434 OFFCURVE",
"294 449 CURVE SMOOTH",
"226 472 OFFCURVE",
"31 255 OFFCURVE",
"76 170 CURVE SMOOTH",
"113 98 OFFCURVE",
"244 -31 OFFCURVE",
"350 -28 CURVE SMOOTH",
"605 -21 OFFCURVE",
"621 402 OFFCURVE",
"572 572 CURVE SMOOTH",
"566 594 OFFCURVE",
"386 691 OFFCURVE",
"328 711 CURVE SMOOTH",
"286 726 OFFCURVE",
"174 637 OFFCURVE",
"166 636 CURVE",
"269 570 LINE"
);
},
{
closed = 1;
nodes = (
"131 129 OFFCURVE",
"214 457 OFFCURVE",
"461 300 CURVE",
"435 155 OFFCURVE",
"366 13 OFFCURVE",
"244 73 CURVE SMOOTH"
);
}
);
width = 634;
},
{
layerId = "F3BFA7D7-9187-4567-9958-41DFD36DE2A0";
width = 600;
}
);
unicode = 2202;
},
{
glyphname = product;
lastChange = "2018-05-04 04:03:00 +0000";
layers = (
{
layerId = UUID0;
paths = (
{
closed = 1;
nodes = (
"512 667 LINE",
"85 667 LINE",
"85 1 LINE",
"215 -28 LINE",
"213 577 LINE",
"512 577 LINE",
"512 1 LINE",
"642 -28 LINE",
"640 626 LINE"
);
}
);
width = 706;
},
{
layerId = "F3BFA7D7-9187-4567-9958-41DFD36DE2A0";
width = 600;
}
);
unicode = 220F;
},
{
glyphname = radical;
lastChange = "2018-05-04 04:03:00 +0000";
layers = (
{
layerId = UUID0;
paths = (
{
closed = 1;
nodes = (
"175 257 LINE",
"290 -30 LINE",
"291 -30 LINE",
"405 -58 LINE",
"405 -57 LINE",
"406 -58 LINE",
"676 639 LINE",
"561 667 LINE",
"341 100 LINE",
"244 344 LINE",
"129 372 LINE",
"129 371 LINE",
"127 372 LINE",
"21 221 LINE",
"121 181 LINE"
);
}
);
width = 708;
},
{
layerId = "F3BFA7D7-9187-4567-9958-41DFD36DE2A0";
width = 600;
}
);
unicode = 221A;
},
{
glyphname = summation;
lastChange = "2018-05-04 04:03:00 +0000";
layers = (
{
layerId = UUID0;
paths = (
{
closed = 1;
nodes = (
"141 577 LINE",
"422 369 LINE",
"139 90 LINE",
"137 90 LINE",
"215 0 LINE",
"772 0 LINE",
"692 90 LINE",
"310 90 LINE",
"520 296 LINE",
"521 296 LINE",
"521 297 LINE",
"523 386 LINE",
"265 577 LINE",
"732 577 LINE",
"652 667 LINE",
"143 667 LINE",
"142 668 LINE",
"142 667 LINE",
"140 578 LINE",
"140 577 LINE"
);
}
);
width = 833;
},
{
layerId = "F3BFA7D7-9187-4567-9958-41DFD36DE2A0";
width = 600;
}
);
unicode = 2211;
},
{
glyphname = mu.math;
lastChange = "2018-05-04 04:03:00 +0000";
layers = (
{
layerId = UUID0;
paths = (
{
closed = 1;
nodes = (
"89 -177 OFFCURVE",
"87 -235 OFFCURVE",
"36 -255 CURVE",
"157 -265 OFFCURVE",
"204 -222 OFFCURVE",
"204 -141 CURVE SMOOTH",
"204 20 LINE",
"240 -9 OFFCURVE",
"275 -32 OFFCURVE",
"293 -33 CURVE SMOOTH",
"348 -37 OFFCURVE",
"403 5 OFFCURVE",
"441 44 CURVE",
"441 -6 LINE",
"556 -34 LINE",
"556 445 LINE",
"441 473 LINE",
"441 222 LINE",
"391 106 OFFCURVE",
"237 15 OFFCURVE",
"207 80 CURVE",
"205 82 OFFCURVE",
"205 90 OFFCURVE",
"204 101 CURVE",
"204 445 LINE",
"89 473 LINE",
"89 472 LINE",
"88 472 OFFCURVE",
"88 473 OFFCURVE",
"88 473 CURVE",
"88 473 OFFCURVE",
"87 316 OFFCURVE",
"89 217 CURVE",
"89 -114 LINE SMOOTH"
);
}
);
width = 621;
},
{
layerId = "F3BFA7D7-9187-4567-9958-41DFD36DE2A0";
width = 600;
}
);
unicode = 00B5;
},
{
glyphname = Omega.math;
lastChange = "2018-05-04 04:03:00 +0000";
layers = (
{
layerId = UUID0;
paths = (
{
closed = 1;
nodes = (
"880 0 LINE",
"800 90 LINE",
"736 90 LINE",
"800 213 OFFCURVE",
"807 369 OFFCURVE",
"709 465 CURVE SMOOTH",
"648 524 OFFCURVE",
"586 571 OFFCURVE",
"486 625 CURVE SMOOTH",
"223 767 OFFCURVE",
"-50 288 OFFCURVE",
"153 94 CURVE",
"154 92 OFFCURVE",
"156 91 OFFCURVE",
"157 90 CURVE",
"30 90 LINE",
"108 0 LINE",
"346 0 LINE",
"266 90 LINE",
"126 271 OFFCURVE",
"317 669 OFFCURVE",
"553 514 CURVE SMOOTH",
"691 423 OFFCURVE",
"664 206 OFFCURVE",
"565 90 CURVE",
"564 90 LINE",
"564 89 LINE",
"566 87 LINE",
"642 0 LINE"
);
}
);
width = 910;
},
{
layerId = "F3BFA7D7-9187-4567-9958-41DFD36DE2A0";
width = 600;
}
);
unicode = 2126;
},
{
glyphname = Delta.math;
lastChange = "2018-05-04 04:03:00 +0000";
layers = (
{
layerId = UUID0;
paths = (
{
closed = 1;
nodes = (
"259 666 LINE",
"17 30 LINE",
"144 1 LINE",
"146 0 LINE",
"653 0 LINE",
"651 1 LINE",
"654 1 LINE",
"386 622 LINE",
"387 625 LINE"
);
},
{
closed = 1;
nodes = (
"511 90 LINE",
"181 90 LINE",
"342 509 LINE"
);
}
);
width = 681;
},
{
layerId = "F3BFA7D7-9187-4567-9958-41DFD36DE2A0";
width = 600;
}
);
unicode = 2206;
},
{
glyphname = lozenge;
lastChange = "2018-05-04 04:03:00 +0000";
layers = (
{
layerId = UUID0;
paths = (
{
closed = 1;
nodes = (
"456 305 LINE",
"296 603 LINE",
"215 623 LINE",
"64 324 LINE",
"224 27 LINE",
"305 7 LINE"
);
},
{
closed = 1;
nodes = (
"144 305 LINE",
"262 537 LINE",
"376 325 LINE",
"258 94 LINE"
);
}
);
width = 542;
},
{
layerId = "F3BFA7D7-9187-4567-9958-41DFD36DE2A0";
width = 600;
}
);
unicode = 25CA;
},
{
glyphname = litre;
lastChange = "2018-05-04 04:03:00 +0000";
layers = (
{
layerId = UUID0;
paths = (
{
closed = 1;
nodes = (
"188 465 OFFCURVE",
"177 383 OFFCURVE",
"166 290 CURVE",
"121 259 OFFCURVE",
"70 234 OFFCURVE",
"13 218 CURVE",
"54 186 LINE",
"91 190 OFFCURVE",
"125 199 OFFCURVE",
"156 210 CURVE",
"143 89 LINE SMOOTH",
"132 -8 OFFCURVE",
"241 -104 OFFCURVE",
"397 54 CURVE",
"389 50 OFFCURVE",
"378 95 OFFCURVE",
"372 89 CURVE SMOOTH",
"302 17 OFFCURVE",
"231 41 OFFCURVE",
"241 110 CURVE SMOOTH",
"249 166 OFFCURVE",
"257 216 OFFCURVE",
"265 265 CURVE",
"423 371 OFFCURVE",
"487 546 OFFCURVE",
"487 570 CURVE SMOOTH",
"487 587 OFFCURVE",
"409 681 OFFCURVE",
"379 698 CURVE SMOOTH",
"316 735 OFFCURVE",
"231 709 OFFCURVE",
"202 542 CURVE SMOOTH"
);
},
{
closed = 1;
nodes = (
"297 578 OFFCURVE",
"353 655 OFFCURVE",
"385 625 CURVE SMOOTH",
"403 608 OFFCURVE",
"368 499 OFFCURVE",
"282 396 CURVE",
"285 435 LINE SMOOTH"
);
}
);
width = 531;
},
{
layerId = "F3BFA7D7-9187-4567-9958-41DFD36DE2A0";
width = 600;
}
);
unicode = 2113;
},
{
glyphname = dvA.init;
lastChange = "2018-05-04 04:03:00 +0000";
layers = (
{
anchors = (
{
name = abvm.bindu;
position = "{695, 618}";
},
{
name = abvm.e;
position = "{677, 618}";
},
{
name = blwm.u;
position = "{679, -29}";
},
{
name = blwm.virama;
position = "{656, -19}";
}
);
layerId = UUID0;
paths = (
{
closed = 1;
nodes = (
"614 523 LINE",
"614 375 LINE",
"575 336 OFFCURVE",
"523 304 OFFCURVE",
"441 317 CURVE",
"501 368 OFFCURVE",
"522 439 OFFCURVE",
"476 486 CURVE SMOOTH",
"419 543 OFFCURVE",
"399 558 OFFCURVE",
"342 606 CURVE SMOOTH",
"271 665 OFFCURVE",
"145 566 OFFCURVE",
"109 542 CURVE",
"170 455 LINE",
"215 486 OFFCURVE",
"368 586 OFFCURVE",
"413 473 CURVE SMOOTH",
"437 413 OFFCURVE",
"351 361 OFFCURVE",
"217 346 CURVE",
"271 253 LINE",
"313 255 OFFCURVE",
"351 265 OFFCURVE",
"384 280 CURVE",
"456 216 OFFCURVE",
"472 143 OFFCURVE",
"396 103 CURVE SMOOTH",
"242 21 OFFCURVE",
"103 228 OFFCURVE",
"44 305 CURVE",
"19 287 LINE",
"105 160 OFFCURVE",
"198 37 OFFCURVE",
"269 -6 CURVE SMOOTH",
"370 -66 OFFCURVE",
"589 59 OFFCURVE",
"552 162 CURVE SMOOTH",
"526 236 OFFCURVE",
"468 271 OFFCURVE",
"421 302 CURVE",
"426 306 LINE",
"478 279 OFFCURVE",
"539 241 OFFCURVE",
"614 267 CURVE",
"614 0 LINE",
"738 -56 LINE",
"738 523 LINE",
"804 523 LINE",
"804 619 LINE",
"483 619 LINE",
"521 523 LINE"
);
}
);
width = 800;
},
{
layerId = "F3BFA7D7-9187-4567-9958-41DFD36DE2A0";
width = 600;
}
);
},
{
glyphname = dvAA.init;
lastChange = "2018-05-04 04:03:00 +0000";
layers = (
{
layerId = UUID0;
paths = (
{
closed = 1;
nodes = (
"626 523 LINE",
"626 379 LINE",
"587 340 OFFCURVE",
"535 308 OFFCURVE",
"453 321 CURVE",
"513 372 OFFCURVE",
"534 443 OFFCURVE",
"488 490 CURVE SMOOTH",
"431 547 OFFCURVE",
"411 562 OFFCURVE",
"354 610 CURVE SMOOTH",
"283 669 OFFCURVE",
"157 570 OFFCURVE",
"121 546 CURVE",
"182 459 LINE",
"227 490 OFFCURVE",
"380 590 OFFCURVE",
"425 477 CURVE SMOOTH",
"449 417 OFFCURVE",
"363 365 OFFCURVE",
"229 350 CURVE",
"283 257 LINE",
"325 259 OFFCURVE",
"363 269 OFFCURVE",
"396 284 CURVE",
"468 220 OFFCURVE",
"484 147 OFFCURVE",
"408 107 CURVE SMOOTH",
"254 25 OFFCURVE",
"115 232 OFFCURVE",
"56 309 CURVE",
"31 291 LINE",
"117 164 OFFCURVE",
"210 41 OFFCURVE",
"281 -2 CURVE SMOOTH",
"382 -62 OFFCURVE",
"601 63 OFFCURVE",
"564 166 CURVE SMOOTH",
"538 240 OFFCURVE",
"480 275 OFFCURVE",
"433 306 CURVE",
"438 310 LINE",
"490 283 OFFCURVE",
"551 245 OFFCURVE",
"626 271 CURVE",
"626 4 LINE",
"750 -52 LINE",
"750 523 LINE",
"874 523 LINE",
"874 4 LINE",
"998 -52 LINE",
"998 523 LINE",
"1063 523 LINE",
"1063 619 LINE",
"495 619 LINE",
"533 523 LINE"
);
}
);
width = 1056;
},
{
layerId = "F3BFA7D7-9187-4567-9958-41DFD36DE2A0";
width = 600;
}
);
},
{
glyphname = dvmAA;
lastChange = "2018-05-04 04:03:00 +0000";
layers = (
{
layerId = UUID0;
paths = (
{
closed = 1;
nodes = (
"71 523 LINE",
"71 0 LINE",
"195 -56 LINE",
"195 523 LINE",
"272 523 LINE",
"272 619 LINE",
"-5 619 LINE",
"-5 523 LINE"
);
}
);
width = 269;
},
{
layerId = "F3BFA7D7-9187-4567-9958-41DFD36DE2A0";
width = 600;
}
);
},
{
glyphname = dvI;
lastChange = "2018-05-04 04:03:00 +0000";
layers = (
{
anchors = (
{
name = abvm.bindu;
position = "{398, 617}";
}
);
layerId = UUID0;
paths = (
{
closed = 1;
nodes = (
"336 523 LINE",
"336 479 LINE",
"152 468 LINE",
"98 464 OFFCURVE",
"40 340 OFFCURVE",
"81 295 CURVE SMOOTH",
"118 255 OFFCURVE",
"176 208 OFFCURVE",
"226 168 CURVE SMOOTH",
"279 125 OFFCURVE",
"432 272 OFFCURVE",
"479 224 CURVE SMOOTH",
"529 173 OFFCURVE",
"385 56 OFFCURVE",
"257 81 CURVE",
"209 119 OFFCURVE",
"171 148 OFFCURVE",
"155 156 CURVE",
"120 147 OFFCURVE",
"83 106 OFFCURVE",
"83 92 CURVE SMOOTH",
"83 48 OFFCURVE",
"134 5 OFFCURVE",
"141 -1 CURVE",
"168 -29 OFFCURVE",
"251 -16 OFFCURVE",
"306 -12 CURVE",
"377 -71 OFFCURVE",
"436 -123 OFFCURVE",
"500 -182 CURVE",
"539 -140 LINE",
"500 -115 OFFCURVE",
"435 -64 OFFCURVE",
"369 -10 CURVE",
"541 1 OFFCURVE",
"603 166 OFFCURVE",
"569 200 CURVE SMOOTH",
"536 233 OFFCURVE",
"483 282 OFFCURVE",
"431 320 CURVE SMOOTH",
"416 330 OFFCURVE",
"281 280 OFFCURVE",
"235 268 CURVE SMOOTH",
"148 245 OFFCURVE",
"181 384 OFFCURVE",
"227 384 CURVE SMOOTH",
"450 384 LINE",
"447 523 LINE",
"597 523 LINE",
"597 619 LINE",
"-5 619 LINE",
"-5 523 LINE"
);
}
);
width = 591;
},
{
layerId = "F3BFA7D7-9187-4567-9958-41DFD36DE2A0";
width = 600;
}
);
},
{
glyphname = dvII;
lastChange = "2018-05-04 04:03:00 +0000";
layers = (
{
layerId = UUID0;
paths = (
{
closed = 1;
nodes = (
"336 523 LINE",
"336 479 LINE",
"152 468 LINE",
"98 464 OFFCURVE",
"40 340 OFFCURVE",
"81 295 CURVE SMOOTH",
"118 255 OFFCURVE",
"176 208 OFFCURVE",
"226 168 CURVE SMOOTH",
"279 125 OFFCURVE",
"432 272 OFFCURVE",
"479 224 CURVE SMOOTH",
"529 173 OFFCURVE",
"385 56 OFFCURVE",
"257 81 CURVE",
"209 119 OFFCURVE",
"171 148 OFFCURVE",
"155 156 CURVE",
"120 147 OFFCURVE",
"83 106 OFFCURVE",
"83 92 CURVE SMOOTH",
"83 48 OFFCURVE",
"134 5 OFFCURVE",
"141 -1 CURVE",
"168 -29 OFFCURVE",
"251 -16 OFFCURVE",
"306 -12 CURVE",
"377 -71 OFFCURVE",
"436 -123 OFFCURVE",
"500 -182 CURVE",
"539 -140 LINE",
"500 -115 OFFCURVE",
"435 -64 OFFCURVE",
"369 -10 CURVE",
"541 1 OFFCURVE",
"603 166 OFFCURVE",
"569 200 CURVE SMOOTH",
"536 233 OFFCURVE",
"483 282 OFFCURVE",
"431 320 CURVE SMOOTH",
"416 330 OFFCURVE",
"281 280 OFFCURVE",
"235 268 CURVE SMOOTH",
"148 245 OFFCURVE",
"181 384 OFFCURVE",
"227 384 CURVE SMOOTH",
"450 384 LINE",
"447 523 LINE",
"597 523 LINE",
"597 619 LINE",
"435 619 LINE",
"381 667 OFFCURVE",
"336 701 OFFCURVE",
"336 739 CURVE SMOOTH",
"336 774 OFFCURVE",
"371 824 OFFCURVE",
"404 824 CURVE SMOOTH",
"433 824 OFFCURVE",
"495 792 OFFCURVE",
"518 779 CURVE",
"534 803 LINE",
"481 843 OFFCURVE",
"406 894 OFFCURVE",
"386 894 CURVE SMOOTH",
"326 894 OFFCURVE",
"223 828 OFFCURVE",
"223 762 CURVE SMOOTH",
"223 720 OFFCURVE",
"293 652 OFFCURVE",
"365 619 CURVE",
"-5 619 LINE",
"-5 523 LINE"
);
}
);
width = 595;
},
{
layerId = "F3BFA7D7-9187-4567-9958-41DFD36DE2A0";
width = 600;
}
);
},
{
glyphname = dvU;
lastChange = "2018-05-04 04:03:00 +0000";
layers = (
{
anchors = (
{
name = abvm.bindu;
position = "{275, 619}";
}
);
layerId = UUID0;
paths = (
{
closed = 1;
nodes = (
"251 523 LINE",
"392 394 OFFCURVE",
"250 367 OFFCURVE",
"178 335 CURVE",
"239 250 LINE",
"282 262 OFFCURVE",
"315 276 OFFCURVE",
"339 290 CURVE",
"415 226 OFFCURVE",
"436 155 OFFCURVE",
"345 107 CURVE SMOOTH",
"191 25 OFFCURVE",
"114 188 OFFCURVE",
"51 275 CURVE",
"24 257 LINE",
"104 128 OFFCURVE",
"153 41 OFFCURVE",
"224 -2 CURVE SMOOTH",
"325 -62 OFFCURVE",
"548 59 OFFCURVE",
"525 162 CURVE",
"513 211 OFFCURVE",
"424 280 OFFCURVE",
"373 315 CURVE",
"409 348 OFFCURVE",
"411 380 OFFCURVE",
"413 396 CURVE SMOOTH",
"416 431 OFFCURVE",
"352 491 OFFCURVE",
"308 523 CURVE",
"559 523 LINE",
"559 619 LINE",
"-5 619 LINE",
"-5 523 LINE"
);
}
);
width = 553;
},
{
layerId = "F3BFA7D7-9187-4567-9958-41DFD36DE2A0";
width = 600;
}
);
},
{
glyphname = dvUU;
lastChange = "2018-05-04 04:03:00 +0000";
layers = (
{
anchors = (
{
name = abvm.bindu;
position = "{433, 617}";
}
);
layerId = UUID0;
paths = (
{
closed = 1;
nodes = (
"416 431 OFFCURVE",
"352 491 OFFCURVE",
"308 523 CURVE",
"787 523 LINE",
"787 619 LINE",
"-8 619 LINE",
"-8 523 LINE",
"251 523 LINE",
"392 394 OFFCURVE",
"250 367 OFFCURVE",
"178 335 CURVE",
"239 250 LINE",
"282 262 OFFCURVE",
"315 276 OFFCURVE",
"339 290 CURVE",
"415 226 OFFCURVE",
"436 155 OFFCURVE",
"345 107 CURVE SMOOTH",
"191 25 OFFCURVE",
"114 188 OFFCURVE",
"51 275 CURVE",
"24 257 LINE",
"104 128 OFFCURVE",
"153 41 OFFCURVE",
"224 -2 CURVE SMOOTH",
"325 -62 OFFCURVE",
"548 59 OFFCURVE",
"525 162 CURVE SMOOTH",
"519 189 OFFCURVE",
"489 222 OFFCURVE",
"455 252 CURVE",
"611 423 OFFCURVE",
"716 238 OFFCURVE",
"555 142 CURVE",
"627 81 LINE",
"715 133 OFFCURVE",
"722 241 OFFCURVE",
"663 306 CURVE SMOOTH",
"626 348 OFFCURVE",
"576 394 OFFCURVE",
"540 395 CURVE SMOOTH",
"493 396 OFFCURVE",
"416 344 OFFCURVE",
"378 312 CURVE",
"373 315 LINE",
"409 348 OFFCURVE",
"411 380 OFFCURVE",
"413 396 CURVE SMOOTH"
);
}
);
width = 782;
},
{
layerId = "F3BFA7D7-9187-4567-9958-41DFD36DE2A0";
width = 600;
}
);
},
{
glyphname = dvvR;
lastChange = "2018-05-04 04:03:00 +0000";
layers = (
{
anchors = (
{
name = abvm.bindu;
position = "{443, 619}";
},
{
name = abvm.e;
position = "{432, 621}";
}
);
layerId = UUID0;
paths = (
{
closed = 1;
nodes = (
"364 523 LINE",
"364 375 LINE",
"261 424 OFFCURVE",
"118 450 OFFCURVE",
"45 441 CURVE",
"83 317 LINE",
"177 327 OFFCURVE",
"285 323 OFFCURVE",
"364 286 CURVE",
"364 285 LINE",
"308 238 OFFCURVE",
"207 188 OFFCURVE",
"95 142 CURVE",
"172 53 LINE",
"248 95 OFFCURVE",
"318 138 OFFCURVE",
"364 175 CURVE",
"364 1 LINE",
"488 -55 LINE",
"488 296 LINE",
"548 276 OFFCURVE",
"616 276 OFFCURVE",
"659 331 CURVE",
"709 277 LINE",
"542 190 OFFCURVE",
"566 109 OFFCURVE",
"591 73 CURVE SMOOTH",
"611 44 OFFCURVE",
"666 -10 OFFCURVE",
"717 -40 CURVE SMOOTH",
"754 -62 OFFCURVE",
"858 -49 OFFCURVE",
"944 40 CURVE",
"851 96 LINE",
"660 -68 OFFCURVE",
"537 110 OFFCURVE",
"813 210 CURVE",
"737 291 LINE",
"688 350 LINE",
"726 393 LINE SMOOTH",
"750 421 OFFCURVE",
"671 487 OFFCURVE",
"657 489 CURVE SMOOTH",
"641 491 OFFCURVE",
"582 460 OFFCURVE",
"567 430 CURVE SMOOTH",
"563 423 OFFCURVE",
"576 395 OFFCURVE",
"589 383 CURVE",
"558 352 OFFCURVE",
"521 345 OFFCURVE",
"488 346 CURVE",
"488 523 LINE",
"859 523 LINE",
"859 619 LINE",
"-11 619 LINE",
"-11 523 LINE"
);
}
);
width = 853;
},
{
layerId = "F3BFA7D7-9187-4567-9958-41DFD36DE2A0";
width = 600;
}
);
},
{
glyphname = dvvRR;
lastChange = "2018-05-04 04:03:00 +0000";
layers = (
{
anchors = (
{
name = abvm.bindu;
position = "{462, 619}";
},
{
name = abvm.e;
position = "{441, 619}";
}
);
layerId = UUID0;
paths = (
{
closed = 1;
nodes = (
"746 163 OFFCURVE",
"727 154 OFFCURVE",
"710 145 CURVE",
"650 195 OFFCURVE",
"698 217 OFFCURVE",
"790 258 CURVE",
"756 296 LINE",
"712 350 LINE",
"750 393 LINE SMOOTH",
"774 421 OFFCURVE",
"695 487 OFFCURVE",
"681 489 CURVE SMOOTH",
"665 491 OFFCURVE",
"606 460 OFFCURVE",
"591 430 CURVE SMOOTH",
"587 423 OFFCURVE",
"600 395 OFFCURVE",
"613 383 CURVE",
"580 351 OFFCURVE",
"542 344 OFFCURVE",
"508 347 CURVE",
"508 523 LINE",
"923 523 LINE",
"923 619 LINE",
"-11 619 LINE",
"-11 523 LINE",
"384 523 LINE",
"384 375 LINE",
"281 424 OFFCURVE",
"138 450 OFFCURVE",
"65 441 CURVE",
"103 317 LINE",
"197 327 OFFCURVE",
"305 323 OFFCURVE",
"384 286 CURVE",
"384 285 LINE",
"328 238 OFFCURVE",
"227 188 OFFCURVE",
"115 142 CURVE",
"192 53 LINE",
"268 95 OFFCURVE",
"338 138 OFFCURVE",
"384 175 CURVE",
"384 1 LINE",
"508 -55 LINE",
"508 298 LINE",
"569 277 OFFCURVE",
"639 274 OFFCURVE",
"683 331 CURVE",
"710 302 LINE",
"555 217 OFFCURVE",
"599 176 OFFCURVE",
"684 128 CURVE",
"627 86 OFFCURVE",
"627 47 OFFCURVE",
"646 13 CURVE SMOOTH",
"713 -102 OFFCURVE",
"831 -108 OFFCURVE",
"920 0 CURVE",
"826 34 LINE",
"784 -25 OFFCURVE",
"741 -33 OFFCURVE",
"715 -14 CURVE SMOOTH",
"652 32 OFFCURVE",
"767 95 OFFCURVE",
"824 117 CURVE",
"770 173 LINE"
);
}
);
width = 911;
},
{
layerId = "F3BFA7D7-9187-4567-9958-41DFD36DE2A0";
width = 600;
}
);
},
{
glyphname = dvvL;
lastChange = "2018-05-04 04:03:00 +0000";
layers = (
{
anchors = (
{
name = abvm.bindu;
position = "{575, 621}";
},
{
name = abvm.e;
position = "{556, 619}";
}
);
layerId = UUID0;
paths = (
{
closed = 1;
nodes = (
"485 523 LINE",
"485 400 LINE",
"484 400 LINE",
"422 397 OFFCURVE",
"371 353 OFFCURVE",
"333 304 CURVE",
"296 342 OFFCURVE",
"236 401 OFFCURVE",
"198 414 CURVE SMOOTH",
"143 432 OFFCURVE",
"-3 319 OFFCURVE",
"5 253 CURVE SMOOTH",
"13 190 OFFCURVE",
"148 30 OFFCURVE",
"247 -57 CURVE",
"274 -23 LINE",
"224 24 OFFCURVE",
"188 69 OFFCURVE",
"160 105 CURVE SMOOTH",
"68 220 OFFCURVE",
"136 403 OFFCURVE",
"313 276 CURVE",
"289 239 OFFCURVE",
"274 203 OFFCURVE",
"270 185 CURVE",
"350 122 LINE",
"371 215 OFFCURVE",
"504 381 OFFCURVE",
"595 289 CURVE SMOOTH",
"688 195 OFFCURVE",
"326 101 OFFCURVE",
"407 -15 CURVE SMOOTH",
"439 -61 OFFCURVE",
"472 -106 OFFCURVE",
"517 -143 CURVE SMOOTH",
"548 -169 OFFCURVE",
"612 -196 OFFCURVE",
"707 -110 CURVE",
"621 -43 LINE",
"581 -100 OFFCURVE",
"525 -92 OFFCURVE",
"504 -58 CURVE SMOOTH",
"435 54 OFFCURVE",
"766 123 OFFCURVE",
"683 259 CURVE SMOOTH",
"671 278 OFFCURVE",
"642 305 OFFCURVE",
"609 330 CURVE",
"609 523 LINE",
"747 523 LINE",
"747 619 LINE",
"-10 619 LINE",
"-10 523 LINE"
);
}
);
width = 737;
},
{
layerId = "F3BFA7D7-9187-4567-9958-41DFD36DE2A0";
width = 600;
}
);
},
{
glyphname = dvvLL;
lastChange = "2018-05-04 04:03:00 +0000";
layers = (
{
anchors = (
{
name = abvm.bindu;
position = "{558, 619}";
},
{
name = abvm.e;
position = "{538, 619}";
}
);
layerId = UUID0;
paths = (
{
closed = 1;
nodes = (
"485 523 LINE",
"485 400 LINE",
"484 400 LINE",
"422 397 OFFCURVE",
"371 353 OFFCURVE",
"333 304 CURVE",
"296 342 OFFCURVE",
"236 401 OFFCURVE",
"198 414 CURVE SMOOTH",
"143 432 OFFCURVE",
"-3 319 OFFCURVE",
"5 253 CURVE SMOOTH",
"13 190 OFFCURVE",
"148 30 OFFCURVE",
"247 -57 CURVE",
"274 -23 LINE",
"224 24 OFFCURVE",
"188 69 OFFCURVE",
"160 105 CURVE SMOOTH",
"68 220 OFFCURVE",
"136 403 OFFCURVE",
"313 276 CURVE",
"289 239 OFFCURVE",
"274 203 OFFCURVE",
"270 185 CURVE",
"350 122 LINE",
"351 193 OFFCURVE",
"501 381 OFFCURVE",
"577 294 CURVE",
"667 194 OFFCURVE",
"347 155 OFFCURVE",
"471 11 CURVE SMOOTH",
"485 -5 OFFCURVE",
"502 -21 OFFCURVE",
"521 -34 CURVE",
"420 -93 OFFCURVE",
"477 -177 OFFCURVE",
"526 -209 CURVE SMOOTH",
"592 -252 OFFCURVE",
"683 -278 OFFCURVE",
"761 -203 CURVE",
"663 -149 LINE",
"612 -201 OFFCURVE",
"573 -197 OFFCURVE",
"549 -180 CURVE SMOOTH",
"485 -133 OFFCURVE",
"609 -73 OFFCURVE",
"668 -61 CURVE",
"624 3 LINE",
"600 -2 OFFCURVE",
"580 -8 OFFCURVE",
"563 -15 CURVE",
"439 80 OFFCURVE",
"758 136 OFFCURVE",
"683 259 CURVE SMOOTH",
"671 278 OFFCURVE",
"642 305 OFFCURVE",
"609 330 CURVE",
"609 523 LINE",
"747 523 LINE",
"747 619 LINE",
"-10 619 LINE",
"-10 523 LINE"
);
}
);
width = 741;
},
{
layerId = "F3BFA7D7-9187-4567-9958-41DFD36DE2A0";
width = 600;
}
);
},
{
glyphname = dvE;
lastChange = "2018-05-04 20:49:17 +0000";
layers = (
{
anchors = (
{
name = abvm.bindu;
position = "{438, 619}";
}
);
layerId = UUID0;
paths = (
{
closed = 1;
nodes = (
"61 523 LINE",
"63 424 OFFCURVE",
"63 269 OFFCURVE",
"67 261 CURVE SMOOTH",
"71 253 OFFCURVE",
"186 167 OFFCURVE",
"256 109 CURVE SMOOTH",
"333 45 OFFCURVE",
"311 -20 OFFCURVE",
"276 -37 CURVE",
"371 -109 LINE",
"420 -63 OFFCURVE",
"422 25 OFFCURVE",
"342 83 CURVE SMOOTH",
"290 121 OFFCURVE",
"213 181 OFFCURVE",
"195 212 CURVE SMOOTH",
"171 253 OFFCURVE",
"181 410 OFFCURVE",
"182 523 CURVE",
"371 523 LINE",
"371 281 LINE SMOOTH",
"371 249 OFFCURVE",
"319 218 OFFCURVE",
"303 211 CURVE",
"395 138 LINE",
"440 166 OFFCURVE",
"495 218 OFFCURVE",
"495 246 CURVE SMOOTH",
"495 523 LINE",
"561 523 LINE",
"561 619 LINE",
"-7 619 LINE",
"-7 523 LINE"
);
}
);
width = 540;
},
{
layerId = "F3BFA7D7-9187-4567-9958-41DFD36DE2A0";
width = 600;
},
{
layerId = "B0A33A77-4F7C-4BAD-AD90-E13C10AC4CE8";
width = 600;
}
);
},
{
glyphname = dvmE;
lastChange = "2018-05-04 04:03:00 +0000";
layers = (
{
anchors = (
{
name = _abvm.e;
position = "{-166, 616}";
}
);
layerId = UUID0;
paths = (
{
closed = 1;
nodes = (
"-178 687 OFFCURVE",
"-264 814 OFFCURVE",
"-335 830 CURVE",
"-372 837 OFFCURVE",
"-476 826 OFFCURVE",
"-546 804 CURVE",
"-475 724 LINE",
"-425 743 OFFCURVE",
"-348 766 OFFCURVE",
"-290 735 CURVE SMOOTH",
"-245 711 OFFCURVE",
"-192 652 OFFCURVE",
"-166 616 CURVE",
"-123 617 LINE"
);
}
);
width = 0;
},
{
layerId = "F3BFA7D7-9187-4567-9958-41DFD36DE2A0";
width = 600;
}
);
},
{
glyphname = dvmAI;
lastChange = "2018-05-04 04:03:00 +0000";
layers = (
{
anchors = (
{
name = _abvm.e;
position = "{-133, 613}";
}
);
layerId = UUID0;
paths = (
{
closed = 1;
nodes = (
"-171 745 OFFCURVE",
"-211 826 OFFCURVE",
"-295 881 CURVE SMOOTH",
"-357 921 OFFCURVE",
"-498 870 OFFCURVE",
"-559 847 CURVE",
"-493 778 LINE",
"-439 803 OFFCURVE",
"-378 829 OFFCURVE",
"-316 817 CURVE SMOOTH",
"-265 807 OFFCURVE",
"-167 684 OFFCURVE",
"-139 625 CURVE",
"-188 675 OFFCURVE",
"-261 756 OFFCURVE",
"-315 768 CURVE SMOOTH",
"-352 776 OFFCURVE",
"-403 761 OFFCURVE",
"-468 730 CURVE",
"-411 670 LINE",
"-316 726 OFFCURVE",
"-273 722 OFFCURVE",
"-170 613 CURVE",
"-97 614 LINE"
);
}
);
width = 0;
},
{
layerId = "F3BFA7D7-9187-4567-9958-41DFD36DE2A0";
width = 600;
}
);
},
{
glyphname = dvmEcandra;
lastChange = "2018-05-04 20:49:17 +0000";
layers = (
{
anchors = (
{
name = _abvm.bindu;
position = "{-82, 662}";
}
);
layerId = UUID0;
paths = (
{
closed = 1;
nodes = (
"-257 798 OFFCURVE",
"-145 662 OFFCURVE",
"-82 661 CURVE SMOOTH",
"27 660 OFFCURVE",
"130 772 OFFCURVE",
"130 772 CURVE",
"71 834 LINE",
"71 834 OFFCURVE",
"-31 725 OFFCURVE",
"-94 724 CURVE SMOOTH",
"-132 724 OFFCURVE",
"-232 823 OFFCURVE",
"-232 823 CURVE",
"-257 798 LINE"
);
}
);
width = 0;
},
{
layerId = "F3BFA7D7-9187-4567-9958-41DFD36DE2A0";
width = 600;
},
{
layerId = "B0A33A77-4F7C-4BAD-AD90-E13C10AC4CE8";
width = 600;
}
);
},
{
glyphname = dvmI;
lastChange = "2018-05-04 04:03:00 +0000";
layers = (
{
layerId = UUID0;
paths = (
{
closed = 1;
nodes = (
"73 523 LINE",
"73 -1 LINE",
"197 -57 LINE",
"197 523 LINE",
"274 523 LINE",
"274 619 LINE",
"169 619 LINE",
"84 704 OFFCURVE",
"153 852 OFFCURVE",
"545 601 CURVE",
"609 600 LINE",
"483 693 OFFCURVE",
"232 857 OFFCURVE",
"180 860 CURVE SMOOTH",
"142 862 OFFCURVE",
"38 788 OFFCURVE",
"22 745 CURVE SMOOTH",
"9 708 OFFCURVE",
"31 656 OFFCURVE",
"65 619 CURVE",
"-3 619 LINE",
"-3 523 LINE"
);
}
);
width = 269;
},
{
layerId = "F3BFA7D7-9187-4567-9958-41DFD36DE2A0";
width = 600;
}
);
},
{
glyphname = dvmII;
lastChange = "2018-05-04 04:03:00 +0000";
layers = (
{
layerId = UUID0;
paths = (
{
closed = 1;
nodes = (
"-163 621 OFFCURVE",
"-207 663 OFFCURVE",
"-211 705 CURVE SMOOTH",
"-216 747 OFFCURVE",
"-136 833 OFFCURVE",
"-17 699 CURVE",
"52 619 LINE",
"-44 619 LINE",
"-44 523 LINE",
"32 523 LINE",
"32 1 LINE",
"156 -55 LINE",
"156 523 LINE",
"233 523 LINE",
"233 619 LINE",
"105 619 LINE",
"8 740 OFFCURVE",
"-66 864 OFFCURVE",
"-120 864 CURVE SMOOTH",
"-197 864 OFFCURVE",
"-267 803 OFFCURVE",
"-299 752 CURVE SMOOTH",
"-324 711 OFFCURVE",
"-267 643 OFFCURVE",
"-225 605 CURVE",
"-147 604 LINE"
);
}
);
width = 226;
},
{
layerId = "F3BFA7D7-9187-4567-9958-41DFD36DE2A0";
width = 600;
}
);
},
{
glyphname = dvmU;
lastChange = "2018-05-04 04:03:00 +0000";
layers = (
{
anchors = (
{
name = _blwm.u;
position = "{-126, 0}";
}
);
layerId = UUID0;
paths = (
{
closed = 1;
nodes = (
"-199 15 OFFCURVE",
"-271 -24 OFFCURVE",
"-327 -60 CURVE",
"-245 -132 LINE",
"-159 -81 LINE SMOOTH",
"-106 -48 OFFCURVE",
"-36 -111 OFFCURVE",
"-57 -169 CURVE SMOOTH",
"-95 -279 OFFCURVE",
"-267 -279 OFFCURVE",
"-415 -109 CURVE",
"-447 -135 LINE",
"-350 -247 OFFCURVE",
"-247 -350 OFFCURVE",
"-109 -328 CURVE SMOOTH",
"14 -308 OFFCURVE",
"95 -213 OFFCURVE",
"13 -120 CURVE SMOOTH",
"-31 -69 OFFCURVE",
"-120 12 OFFCURVE",
"-166 14 CURVE SMOOTH"
);
}
);
width = 4;
},
{
layerId = "F3BFA7D7-9187-4567-9958-41DFD36DE2A0";
width = 600;
}
);
},
{
glyphname = dvmUU;
lastChange = "2018-05-04 04:03:00 +0000";
layers = (
{
anchors = (
{
name = _blwm.u;
position = "{-163, 16}";
}
);
layerId = UUID0;
paths = (
{
closed = 1;
nodes = (
"-161 -322 OFFCURVE",
"-78 -296 OFFCURVE",
"-23 -263 CURVE",
"-85 -189 LINE",
"-135 -213 LINE SMOOTH",
"-216 -252 OFFCURVE",
"-291 -149 OFFCURVE",
"-216 -89 CURVE SMOOTH",
"-125 -16 OFFCURVE",
"-31 -111 OFFCURVE",
"155 -252 CURVE",
"173 -231 LINE",
"64 -123 OFFCURVE",
"-93 13 OFFCURVE",
"-139 21 CURVE SMOOTH",
"-261 41 OFFCURVE",
"-416 -101 OFFCURVE",
"-330 -192 CURVE SMOOTH",
"-283 -241 OFFCURVE",
"-212 -310 OFFCURVE",
"-184 -316 CURVE SMOOTH"
);
}
);
width = 0;
},
{
layerId = "F3BFA7D7-9187-4567-9958-41DFD36DE2A0";
width = 600;
}
);
},
{
glyphname = dvmvR;
lastChange = "2018-05-04 04:03:00 +0000";
layers = (
{
anchors = (
{
name = _blwm.virama;
position = "{-218, -10}";
}
);
layerId = UUID0;
paths = (
{
closed = 1;
nodes = (
"-368 -29 OFFCURVE",
"-412 -74 OFFCURVE",
"-359 -146 CURVE SMOOTH",
"-323 -195 OFFCURVE",
"-282 -231 OFFCURVE",
"-238 -270 CURVE SMOOTH",
"-206 -298 OFFCURVE",
"-86 -314 OFFCURVE",
"0 -225 CURVE",
"-112 -160 LINE",
"-236 -290 OFFCURVE",
"-444 -97 OFFCURVE",
"-92 -56 CURVE",
"-201 16 LINE"
);
}
);
width = 0;
},
{
layerId = "F3BFA7D7-9187-4567-9958-41DFD36DE2A0";
width = 600;
}
);
},
{
glyphname = dvmvRR;
lastChange = "2018-05-04 04:03:00 +0000";
layers = (
{
anchors = (
{
name = _blwm.virama;
position = "{-139, -10}";
}
);
layerId = UUID0;
paths = (
{
closed = 1;
nodes = (
"-138 -188 OFFCURVE",
"-161 -196 OFFCURVE",
"-181 -204 CURVE",
"-277 -138 OFFCURVE",
"-130 -70 OFFCURVE",
"-68 -56 CURVE",
"-160 19 LINE",
"-389 -37 OFFCURVE",
"-323 -156 OFFCURVE",
"-225 -226 CURVE",
"-337 -296 OFFCURVE",
"-273 -395 OFFCURVE",
"-220 -432 CURVE SMOOTH",
"-148 -483 OFFCURVE",
"-48 -514 OFFCURVE",
"38 -425 CURVE",
"-70 -362 LINE",
"-126 -423 OFFCURVE",
"-169 -418 OFFCURVE",
"-195 -398 CURVE SMOOTH",
"-265 -343 OFFCURVE",
"-129 -272 OFFCURVE",
"-64 -257 CURVE",
"-112 -182 LINE"
);
}
);
width = 0;
},
{
layerId = "F3BFA7D7-9187-4567-9958-41DFD36DE2A0";
width = 600;
}
);
},
{
color = 9;
glyphname = dvKA;
lastChange = "2018-05-05 06:19:46 +0000";
layers = (
{
anchors = (
{
name = abvm.bindu;
position = "{453, 625}";
},
{
name = abvm.e;
position = "{449, 618}";
},
{
name = blwm.u;
position = "{384, -3}";
},
{
name = blwm.virama;
position = "{378, 0}";
}
);
background = {
paths = (
{
closed = 1;
nodes = (
"506 248 LINE",
"526 293 OFFCURVE",
"561 322 OFFCURVE",
"608 344 CURVE SMOOTH",
"702 385 OFFCURVE",
"771 325 OFFCURVE",
"707 233 CURVE SMOOTH",
"681 195 OFFCURVE",
"635 171 OFFCURVE",
"566 147 CURVE",
"660 61 LINE",
"768 98 OFFCURVE",
"869 211 OFFCURVE",
"822 283 CURVE SMOOTH",
"789 332 OFFCURVE",
"680 457 OFFCURVE",
"639 459 CURVE SMOOTH",
"584 461 OFFCURVE",
"538 443 OFFCURVE",
"506 418 CURVE"
);
},
{
closed = 1;
nodes = (
"361 256 LINE",
"257 129 OFFCURVE",
"153 173 OFFCURVE",
"129 200 CURVE",
"80 251 OFFCURVE",
"217 409 OFFCURVE",
"355 343 CURVE",
"354 398 LINE",
"322 419 OFFCURVE",
"287 443 OFFCURVE",
"265 459 CURVE",
"206 499 OFFCURVE",
"-13 347 OFFCURVE",
"32 262 CURVE SMOOTH",
"69 190 OFFCURVE",
"144 70 OFFCURVE",
"250 70 CURVE SMOOTH",
"294 70 OFFCURVE",
"332 97 OFFCURVE",
"361 128 CURVE"
);
},
{
closed = 1;
nodes = (
"372 517 LINE",
"372 386 LINE",
"366 390 OFFCURVE",
"360 394 OFFCURVE",
"354 398 CURVE",
"355 343 LINE",
"360 340 OFFCURVE",
"366 337 OFFCURVE",
"372 333 CURVE",
"372 270 LINE",
"368 265 OFFCURVE",
"365 260 OFFCURVE",
"361 256 CURVE",
"361 128 LINE",
"365 132 OFFCURVE",
"368 136 OFFCURVE",
"372 140 CURVE",
"372 0 LINE",
"497 -56 LINE",
"497 225 LINE",
"500 233 OFFCURVE",
"503 241 OFFCURVE",
"506 248 CURVE",
"506 418 LINE",
"503 416 OFFCURVE",
"500 413 OFFCURVE",
"497 411 CURVE",
"497 517 LINE"
);
},
{
closed = 1;
nodes = (
"497 517 LINE",
"497 523 LINE",
"858 523 LINE",
"858 619 LINE",
"-30 619 LINE",
"-30 523 LINE",
"372 523 LINE",
"372 517 LINE"
);
}
);
};
guideLines = (
{
position = "{65, -32}";
},
{
angle = 234.6991;
position = "{120, 376}";
},
{
angle = 144.6852;
position = "{641, 403}";
},
{
position = "{102, 495}";
},
{
angle = 144.6852;
position = "{219, 98}";
},
{
angle = 234.6991;
position = "{749, 265}";
},
{
position = "{354, 97}";
},
{
position = "{337, 458}";
},
{
angle = 144.6852;
position = "{383, 393}";
},
{
angle = 234.6991;
position = "{273, 285}";
}
);
layerId = UUID0;
paths = (
{
closed = 1;
nodes = (
"6 529 OFFCURVE",
"284 533 OFFCURVE",
"426 533 CURVE",
"580 533 OFFCURVE",
"846 531 OFFCURVE",
"848 533 CURVE SMOOTH",
"851 536 OFFCURVE",
"820 616 OFFCURVE",
"818 618 CURVE SMOOTH",
"816 620 OFFCURVE",
"572 619 OFFCURVE",
"428 619 CURVE SMOOTH",
"276 619 OFFCURVE",
"-25 620 OFFCURVE",
"-30 617 CURVE SMOOTH",
"-39 612 OFFCURVE",
"-7 538 OFFCURVE",
"0 533 CURVE SMOOTH"
);
},
{
closed = 1;
nodes = (
"372 538 LINE",
"371 238 LINE",
"371 112 OFFCURVE",
"370 -5 OFFCURVE",
"372 -8 CURVE SMOOTH",
"376 -14 OFFCURVE",
"466 -66 OFFCURVE",
"472 -63 CURVE SMOOTH",
"476 -61 OFFCURVE",
"474 87 OFFCURVE",
"473 240 CURVE",
"472 538 LINE"
);
},
{
closed = 1;
nodes = (
"412 342 LINE",
"405 349 OFFCURVE",
"277 433 OFFCURVE",
"259 443 CURVE SMOOTH",
"185 484 OFFCURVE",
"131 434 OFFCURVE",
"90 376 CURVE SMOOTH",
"34 297 OFFCURVE",
"4 229 OFFCURVE",
"120 147 CURVE SMOOTH",
"261 47 OFFCURVE",
"351 134 OFFCURVE",
"393 224 CURVE SMOOTH",
"401 241 OFFCURVE",
"407 269 OFFCURVE",
"415 285 CURVE",
"377 342 LINE",
"372 262 OFFCURVE",
"239 146 OFFCURVE",
"150 207 CURVE SMOOTH",
"121 227 OFFCURVE",
"136 280 OFFCURVE",
"167 321 CURVE SMOOTH",
"208 376 OFFCURVE",
"266 382 OFFCURVE",
"339 335 CURVE SMOOTH",
"352 327 OFFCURVE",
"374 311 OFFCURVE",
"385 304 CURVE"
);
},
{
closed = 1;
nodes = (
"413 152 LINE",
"416 157 OFFCURVE",
"443 197 OFFCURVE",
"482 257 CURVE SMOOTH",
"534 337 OFFCURVE",
"607 353 OFFCURVE",
"646 325 CURVE SMOOTH",
"686 297 OFFCURVE",
"679 250 OFFCURVE",
"646 207 CURVE SMOOTH",
"608 158 OFFCURVE",
"537 135 OFFCURVE",
"537 129 CURVE SMOOTH",
"538 122 OFFCURVE",
"605 68 OFFCURVE",
"615 68 CURVE SMOOTH",
"624 68 OFFCURVE",
"689 95 OFFCURVE",
"723 152 CURVE SMOOTH",
"768 228 OFFCURVE",
"769 314 OFFCURVE",
"673 380 CURVE SMOOTH",
"555 461 OFFCURVE",
"447 363 OFFCURVE",
"407 310 CURVE SMOOTH",
"372 263 OFFCURVE",
"378 248 OFFCURVE",
"377 247 CURVE"
);
}
);
width = 808;
},
{
layerId = "F3BFA7D7-9187-4567-9958-41DFD36DE2A0";
width = 600;
},
{
layerId = "B0A33A77-4F7C-4BAD-AD90-E13C10AC4CE8";
width = 600;
}
);
},
{
glyphname = dvKHA;
lastChange = "2018-05-04 20:49:14 +0000";
layers = (
{
layerId = UUID0;
paths = (
{
closed = 1;
nodes = (
"-15 523 LINE",
"251 523 LINE",
"284 432 OFFCURVE",
"294 310 OFFCURVE",
"182 273 CURVE",
"171 305 OFFCURVE",
"171 336 OFFCURVE",
"158 349 CURVE SMOOTH",
"139 368 OFFCURVE",
"97 397 OFFCURVE",
"83 380 CURVE SMOOTH",
"65 359 OFFCURVE",
"49 324 OFFCURVE",
"37 291 CURVE",
"42 164 OFFCURVE",
"150 -57 OFFCURVE",
"408 -57 CURVE SMOOTH",
"520 -57 OFFCURVE",
"613 16 OFFCURVE",
"672 106 CURVE",
"672 0 LINE",
"796 -56 LINE",
"796 523 LINE",
"872 523 LINE",
"872 619 LINE",
"-15 619 LINE"
);
},
{
closed = 1;
nodes = (
"518 37 OFFCURVE",
"466 17 OFFCURVE",
"397 17 CURVE SMOOTH",
"271 17 OFFCURVE",
"211 97 OFFCURVE",
"197 143 CURVE",
"271 166 OFFCURVE",
"320 208 OFFCURVE",
"346 260 CURVE",
"383 190 OFFCURVE",
"456 74 OFFCURVE",
"558 70 CURVE"
);
},
{
closed = 1;
nodes = (
"395 252 OFFCURVE",
"533 411 OFFCURVE",
"672 341 CURVE",
"672 251 LINE",
"570 130 OFFCURVE",
"468 173 OFFCURVE",
"443 200 CURVE SMOOTH"
);
},
{
closed = 1;
nodes = (
"539 486 OFFCURVE",
"424 423 OFFCURVE",
"369 354 CURVE",
"371 410 OFFCURVE",
"352 469 OFFCURVE",
"317 523 CURVE",
"672 523 LINE",
"672 396 LINE",
"639 418 OFFCURVE",
"602 443 OFFCURVE",
"580 459 CURVE"
);
}
);
width = 865;
},
{
layerId = "F3BFA7D7-9187-4567-9958-41DFD36DE2A0";
width = 600;
},
{
layerId = "B0A33A77-4F7C-4BAD-AD90-E13C10AC4CE8";
width = 600;
}
);
},
{
glyphname = dvGA;
lastChange = "2018-05-04 20:49:16 +0000";
layers = (
{
layerId = UUID0;
paths = (
{
closed = 1;
nodes = (
"155 523 LINE",
"215 444 OFFCURVE",
"223 317 OFFCURVE",
"164 232 CURVE",
"158 257 OFFCURVE",
"157 270 OFFCURVE",
"145 281 CURVE SMOOTH",
"137 288 OFFCURVE",
"88 319 OFFCURVE",
"84 318 CURVE SMOOTH",
"48 305 OFFCURVE",
"32 213 OFFCURVE",
"44 185 CURVE SMOOTH",
"53 165 OFFCURVE",
"116 90 OFFCURVE",
"141 90 CURVE SMOOTH",
"314 90 OFFCURVE",
"387 327 OFFCURVE",
"207 523 CURVE",
"451 523 LINE",
"451 0 LINE",
"575 -56 LINE",
"575 523 LINE",
"657 523 LINE",
"657 619 LINE",
"-5 619 LINE",
"-5 523 LINE"
);
}
);
width = 653;
},
{
layerId = "F3BFA7D7-9187-4567-9958-41DFD36DE2A0";
width = 600;
},
{
layerId = "B0A33A77-4F7C-4BAD-AD90-E13C10AC4CE8";
width = 600;
}
);
},
{
glyphname = dvGHA;
lastChange = "2018-05-04 20:49:18 +0000";
layers = (
{
layerId = UUID0;
paths = (
{
closed = 1;
nodes = (
"150 523 LINE",
"28 431 OFFCURVE",
"106 344 OFFCURVE",
"183 309 CURVE",
"122 268 OFFCURVE",
"75 213 OFFCURVE",
"105 178 CURVE SMOOTH",
"147 128 OFFCURVE",
"195 88 OFFCURVE",
"237 50 CURVE SMOOTH",
"282 8 OFFCURVE",
"413 29 OFFCURVE",
"507 114 CURVE",
"507 1 LINE",
"631 -55 LINE",
"631 523 LINE",
"716 523 LINE",
"716 619 LINE",
"-11 619 LINE",
"-11 523 LINE"
);
},
{
closed = 1;
nodes = (
"301 366 OFFCURVE",
"262 353 OFFCURVE",
"223 333 CURVE",
"131 392 OFFCURVE",
"205 478 OFFCURVE",
"322 523 CURVE",
"507 523 LINE",
"507 298 LINE",
"456 182 OFFCURVE",
"278 73 OFFCURVE",
"221 127 CURVE SMOOTH",
"158 187 OFFCURVE",
"291 268 OFFCURVE",
"399 287 CURVE",
"325 364 LINE"
);
}
);
width = 708;
},
{
layerId = "F3BFA7D7-9187-4567-9958-41DFD36DE2A0";
width = 600;
},
{
layerId = "B0A33A77-4F7C-4BAD-AD90-E13C10AC4CE8";
width = 600;
}
);
},
{
glyphname = dvNGA;
lastChange = "2018-05-04 20:49:18 +0000";
layers = (
{
anchors = (
{
name = abvm.bindu;
position = "{405, 619}";
},
{
name = abvm.e;
position = "{393, 619}";
},
{
name = blwm.u;
position = "{309, -19}";
},
{
name = blwm.virama;
position = "{284, -13}";
}
);
layerId = UUID0;
paths = (
{
closed = 1;
nodes = (
"337 523 LINE",
"337 477 LINE",
"154 466 LINE",
"100 462 OFFCURVE",
"41 338 OFFCURVE",
"82 293 CURVE SMOOTH",
"120 253 OFFCURVE",
"178 206 OFFCURVE",
"227 166 CURVE SMOOTH",
"281 123 OFFCURVE",
"438 265 OFFCURVE",
"486 217 CURVE SMOOTH",
"539 165 OFFCURVE",
"431 67 OFFCURVE",
"302 67 CURVE SMOOTH",
"174 67 OFFCURVE",
"60 195 OFFCURVE",
"33 227 CURVE",
"13 208 LINE",
"34 175 OFFCURVE",
"164 -20 OFFCURVE",
"339 -20 CURVE SMOOTH",
"541 -20 OFFCURVE",
"606 129 OFFCURVE",
"576 175 CURVE SMOOTH",
"547 220 OFFCURVE",
"502 279 OFFCURVE",
"454 319 CURVE SMOOTH",
"440 331 OFFCURVE",
"282 278 OFFCURVE",
"236 266 CURVE SMOOTH",
"150 243 OFFCURVE",
"182 389 OFFCURVE",
"228 389 CURVE SMOOTH",
"449 389 LINE",
"449 523 LINE",
"778 523 LINE",
"778 619 LINE",
"-4 619 LINE",
"-4 523 LINE"
);
},
{
closed = 1;
nodes = (
"680 289 OFFCURVE",
"704 317 OFFCURVE",
"713 340 CURVE",
"704 358 OFFCURVE",
"683 391 OFFCURVE",
"638 411 CURVE",
"617 406 OFFCURVE",
"566 364 OFFCURVE",
"563 341 CURVE",
"580 307 OFFCURVE",
"611 281 OFFCURVE",
"639 268 CURVE"
);
}
);
width = 764;
},
{
layerId = "F3BFA7D7-9187-4567-9958-41DFD36DE2A0";
width = 600;
},
{
layerId = "B0A33A77-4F7C-4BAD-AD90-E13C10AC4CE8";
width = 600;
}
);
},
{
glyphname = dvCA;
lastChange = "2018-05-04 20:49:18 +0000";
layers = (
{
layerId = UUID0;
paths = (
{
closed = 1;
nodes = (
"180 319 LINE",
"153 285 OFFCURVE",
"140 248 OFFCURVE",
"165 220 CURVE SMOOTH",
"218 159 OFFCURVE",
"242 138 OFFCURVE",
"303 89 CURVE SMOOTH",
"351 50 OFFCURVE",
"463 62 OFFCURVE",
"564 163 CURVE",
"564 0 LINE",
"688 -56 LINE",
"688 523 LINE",
"774 523 LINE",
"774 619 LINE",
"-70 619 LINE",
"-70 523 LINE",
"564 523 LINE",
"564 340 LINE",
"329 27 OFFCURVE",
"99 212 OFFCURVE",
"408 319 CURVE",
"310 402 LINE",
"-8 402 LINE",
"88 319 LINE"
);
}
);
width = 756;
},
{
layerId = "F3BFA7D7-9187-4567-9958-41DFD36DE2A0";
width = 600;
},
{
layerId = "B0A33A77-4F7C-4BAD-AD90-E13C10AC4CE8";
width = 600;
}
);
},
{
glyphname = dvCHA;
lastChange = "2018-05-04 20:49:19 +0000";
layers = (
{
anchors = (
{
name = abvm.bindu;
position = "{608, 616}";
},
{
name = abvm.e;
position = "{590, 620}";
},
{
name = blwm.u;
position = "{391, -10}";
},
{
name = blwm.virama;
position = "{341, 0}";
}
);
layerId = UUID0;
paths = (
{
closed = 1;
nodes = (
"185 523 LINE",
"52 437 OFFCURVE",
"153 341 OFFCURVE",
"221 297 CURVE",
"166 258 OFFCURVE",
"123 208 OFFCURVE",
"147 177 CURVE SMOOTH",
"197 112 OFFCURVE",
"234 66 OFFCURVE",
"293 7 CURVE SMOOTH",
"362 -62 OFFCURVE",
"507 1 OFFCURVE",
"614 103 CURVE",
"720 -20 LINE",
"752 11 LINE",
"752 11 OFFCURVE",
"688 76 OFFCURVE",
"638 127 CURVE",
"720 215 OFFCURVE",
"770 322 OFFCURVE",
"728 397 CURVE SMOOTH",
"714 421 OFFCURVE",
"661 497 OFFCURVE",
"628 523 CURVE",
"787 523 LINE",
"787 619 LINE",
"-8 619 LINE",
"-8 523 LINE"
);
},
{
closed = 1;
nodes = (
"478 257 OFFCURVE",
"509 220 OFFCURVE",
"538 189 CURVE",
"447 102 OFFCURVE",
"328 44 OFFCURVE",
"266 114 CURVE SMOOTH",
"214 173 OFFCURVE",
"318 241 OFFCURVE",
"413 279 CURVE",
"342 351 LINE",
"320 348 OFFCURVE",
"292 337 OFFCURVE",
"263 322 CURVE",
"177 406 OFFCURVE",
"245 474 OFFCURVE",
"363 523 CURVE",
"576 523 LINE",
"498 482 OFFCURVE",
"440 317 OFFCURVE",
"467 276 CURVE"
);
},
{
closed = 1;
nodes = (
"688 394 OFFCURVE",
"639 296 OFFCURVE",
"562 213 CURVE",
"514 312 OFFCURVE",
"613 474 OFFCURVE",
"646 439 CURVE SMOOTH"
);
}
);
width = 778;
},
{
layerId = "F3BFA7D7-9187-4567-9958-41DFD36DE2A0";
width = 600;
},
{
layerId = "B0A33A77-4F7C-4BAD-AD90-E13C10AC4CE8";
width = 600;
}
);
},
{
glyphname = dvJA;
lastChange = "2018-05-04 20:49:19 +0000";
layers = (
{
layerId = UUID0;
paths = (
{
closed = 1;
nodes = (
"752 -56 LINE",
"752 523 LINE",
"838 523 LINE",
"838 619 LINE",
"-6 619 LINE",
"-6 523 LINE",
"628 523 LINE",
"628 401 LINE",
"239 401 LINE",
"348 305 LINE",
"420 305 LINE",
"474 225 OFFCURVE",
"397 182 OFFCURVE",
"359 171 CURVE SMOOTH",
"244 138 OFFCURVE",
"123 301 OFFCURVE",
"61 376 CURVE",
"35 360 LINE",
"121 233 OFFCURVE",
"214 105 OFFCURVE",
"266 69 CURVE SMOOTH",
"353 10 OFFCURVE",
"588 112 OFFCURVE",
"554 216 CURVE SMOOTH",
"548 233 OFFCURVE",
"518 272 OFFCURVE",
"481 305 CURVE",
"628 305 LINE",
"628 0 LINE"
);
}
);
width = 831;
},
{
layerId = "F3BFA7D7-9187-4567-9958-41DFD36DE2A0";
width = 600;
},
{
layerId = "B0A33A77-4F7C-4BAD-AD90-E13C10AC4CE8";
width = 600;
}
);
},
{
glyphname = dvJHA;
lastChange = "2018-05-04 20:49:19 +0000";
layers = (
{
layerId = UUID0;
paths = (
{
closed = 1;
nodes = (
"697 -55 LINE",
"697 523 LINE",
"773 523 LINE",
"773 619 LINE",
"-6 619 LINE",
"-6 523 LINE",
"277 523 LINE",
"277 476 LINE",
"114 465 LINE SMOOTH",
"60 461 OFFCURVE",
"1 337 OFFCURVE",
"43 292 CURVE SMOOTH",
"80 252 OFFCURVE",
"138 205 OFFCURVE",
"187 165 CURVE SMOOTH",
"241 122 OFFCURVE",
"371 264 OFFCURVE",
"418 216 CURVE SMOOTH",
"468 166 OFFCURVE",
"344 53 OFFCURVE",
"219 78 CURVE",
"171 116 OFFCURVE",
"133 145 OFFCURVE",
"117 153 CURVE",
"82 144 OFFCURVE",
"45 103 OFFCURVE",
"45 89 CURVE SMOOTH",
"45 45 OFFCURVE",
"96 2 OFFCURVE",
"103 -4 CURVE",
"130 -32 OFFCURVE",
"213 -19 OFFCURVE",
"268 -15 CURVE",
"339 -74 OFFCURVE",
"397 -126 OFFCURVE",
"461 -185 CURVE",
"500 -143 LINE",
"462 -118 OFFCURVE",
"397 -67 OFFCURVE",
"331 -13 CURVE",
"497 -2 OFFCURVE",
"542 158 OFFCURVE",
"508 192 CURVE SMOOTH",
"483 216 OFFCURVE",
"447 250 OFFCURVE",
"409 281 CURVE",
"459 267 OFFCURVE",
"522 263 OFFCURVE",
"573 283 CURVE",
"573 1 LINE"
);
},
{
closed = 1;
nodes = (
"370 311 OFFCURVE",
"370 311 OFFCURVE",
"370 312 CURVE",
"355 322 OFFCURVE",
"243 277 OFFCURVE",
"197 265 CURVE SMOOTH",
"110 242 OFFCURVE",
"143 381 OFFCURVE",
"188 381 CURVE SMOOTH",
"391 381 LINE",
"388 523 LINE",
"573 523 LINE",
"573 403 LINE",
"546 350 OFFCURVE",
"468 292 OFFCURVE",
"371 311 CURVE"
);
}
);
width = 764;
},
{
layerId = "F3BFA7D7-9187-4567-9958-41DFD36DE2A0";
width = 600;
},
{
layerId = "B0A33A77-4F7C-4BAD-AD90-E13C10AC4CE8";
width = 600;
}
);
},
{
glyphname = dvNYA;
lastChange = "2018-05-04 20:49:19 +0000";
layers = (
{
layerId = UUID0;
paths = (
{
closed = 1;
nodes = (
"734 -55 LINE",
"734 523 LINE",
"810 523 LINE",
"810 619 LINE",
"-52 619 LINE",
"-52 523 LINE",
"610 523 LINE",
"610 363 LINE",
"585 314 OFFCURVE",
"524 305 OFFCURVE",
"430 324 CURVE",
"388 367 OFFCURVE",
"340 415 OFFCURVE",
"300 417 CURVE SMOOTH",
"268 419 OFFCURVE",
"194 381 OFFCURVE",
"137 347 CURVE",
"217 273 LINE",
"302 318 LINE SMOOTH",
"372 355 OFFCURVE",
"426 288 OFFCURVE",
"404 231 CURVE SMOOTH",
"363 122 OFFCURVE",
"191 126 OFFCURVE",
"48 301 CURVE",
"15 275 LINE",
"109 161 OFFCURVE",
"209 56 OFFCURVE",
"348 74 CURVE SMOOTH",
"468 89 OFFCURVE",
"539 169 OFFCURVE",
"479 271 CURVE",
"526 230 OFFCURVE",
"564 219 OFFCURVE",
"610 241 CURVE",
"610 1 LINE"
);
}
);
width = 806;
},
{
layerId = "F3BFA7D7-9187-4567-9958-41DFD36DE2A0";
width = 600;
},
{
layerId = "B0A33A77-4F7C-4BAD-AD90-E13C10AC4CE8";
width = 600;
}
);
},
{
glyphname = dvTTA;
lastChange = "2018-05-04 20:49:20 +0000";
layers = (
{
anchors = (
{
name = abvm.bindu;
position = "{442, 618}";
},
{
name = abvm.e;
position = "{424, 619}";
},
{
name = blwm.u;
position = "{291, 3}";
},
{
name = blwm.virama;
position = "{269, -2}";
}
);
layerId = UUID0;
paths = (
{
closed = 1;
nodes = (
"349 523 LINE",
"349 468 LINE",
"165 457 LINE",
"88 449 OFFCURVE",
"10 261 OFFCURVE",
"60 187 CURVE SMOOTH",
"102 125 OFFCURVE",
"164 75 OFFCURVE",
"228 23 CURVE SMOOTH",
"261 -4 OFFCURVE",
"293 -24 OFFCURVE",
"343 -20 CURVE",
"458 -9 OFFCURVE",
"509 55 OFFCURVE",
"568 137 CURVE",
"483 212 LINE",
"432 151 OFFCURVE",
"388 71 OFFCURVE",
"292 79 CURVE SMOOTH",
"121 92 OFFCURVE",
"161 381 OFFCURVE",
"266 381 CURVE SMOOTH",
"460 381 LINE",
"460 523 LINE",
"610 523 LINE",
"610 619 LINE",
"-8 619 LINE",
"-8 523 LINE"
);
}
);
width = 600;
},
{
layerId = "F3BFA7D7-9187-4567-9958-41DFD36DE2A0";
width = 600;
},
{
layerId = "B0A33A77-4F7C-4BAD-AD90-E13C10AC4CE8";
width = 600;
}
);
},
{
glyphname = dvTTHA;
lastChange = "2018-05-04 20:49:20 +0000";
layers = (
{
anchors = (
{
name = abvm.bindu;
position = "{435, 618}";
},
{
name = abvm.e;
position = "{426, 619}";
},
{
name = blwm.u;
position = "{278, -10}";
},
{
name = blwm.virama;
position = "{278, 0}";
}
);
layerId = UUID0;
paths = (
{
closed = 1;
nodes = (
"349 523 LINE",
"349 468 LINE",
"165 457 LINE",
"88 449 OFFCURVE",
"10 261 OFFCURVE",
"60 187 CURVE SMOOTH",
"102 125 OFFCURVE",
"164 75 OFFCURVE",
"228 23 CURVE SMOOTH",
"261 -4 OFFCURVE",
"293 -24 OFFCURVE",
"343 -20 CURVE SMOOTH",
"544 -2 OFFCURVE",
"715 235 OFFCURVE",
"460 408 CURVE",
"460 523 LINE",
"630 523 LINE",
"630 619 LINE",
"-8 619 LINE",
"-8 523 LINE"
);
},
{
closed = 1;
nodes = (
"111 93 OFFCURVE",
"164 381 OFFCURVE",
"269 381 CURVE SMOOTH",
"456 381 LINE",
"564 219 OFFCURVE",
"443 66 OFFCURVE",
"297 78 CURVE SMOOTH"
);
}
);
width = 624;
},
{
layerId = "F3BFA7D7-9187-4567-9958-41DFD36DE2A0";
width = 600;
},
{
layerId = "B0A33A77-4F7C-4BAD-AD90-E13C10AC4CE8";
width = 600;
}
);
},
{
glyphname = dvDDA;
lastChange = "2018-05-04 20:49:20 +0000";
layers = (
{
anchors = (
{
name = abvm.bindu;
position = "{413, 619}";
},
{
name = abvm.e;
position = "{395, 619}";
},
{
name = blwm.u;
position = "{326, -19}";
},
{
name = blwm.virama;
position = "{279, -9}";
}
);
layerId = UUID0;
paths = (
{
closed = 1;
nodes = (
"351 523 LINE",
"351 477 LINE",
"168 466 LINE",
"114 462 OFFCURVE",
"55 338 OFFCURVE",
"96 293 CURVE SMOOTH",
"134 253 OFFCURVE",
"192 206 OFFCURVE",
"241 166 CURVE SMOOTH",
"295 123 OFFCURVE",
"452 265 OFFCURVE",
"500 217 CURVE SMOOTH",
"553 165 OFFCURVE",
"445 67 OFFCURVE",
"316 67 CURVE SMOOTH",
"188 67 OFFCURVE",
"74 195 OFFCURVE",
"47 227 CURVE",
"27 208 LINE",
"48 175 OFFCURVE",
"178 -20 OFFCURVE",
"353 -20 CURVE SMOOTH",
"555 -20 OFFCURVE",
"620 129 OFFCURVE",
"590 175 CURVE SMOOTH",
"561 220 OFFCURVE",
"516 279 OFFCURVE",
"468 319 CURVE SMOOTH",
"454 331 OFFCURVE",
"296 278 OFFCURVE",
"250 266 CURVE SMOOTH",
"164 243 OFFCURVE",
"196 389 OFFCURVE",
"242 389 CURVE SMOOTH",
"463 389 LINE",
"463 523 LINE",
"649 523 LINE",
"649 619 LINE",
"-10 619 LINE",
"-10 523 LINE"
);
}
);
width = 644;
},
{
layerId = "F3BFA7D7-9187-4567-9958-41DFD36DE2A0";
width = 600;
},
{
layerId = "B0A33A77-4F7C-4BAD-AD90-E13C10AC4CE8";
width = 600;
}
);
},
{
glyphname = dvDDHA;
lastChange = "2018-05-04 20:49:20 +0000";
layers = (
{
anchors = (
{
name = abvm.bindu;
position = "{431, 619}";
},
{
name = abvm.e;
position = "{420, 619}";
},
{
name = blwm.u;
position = "{309, -19}";
},
{
name = blwm.virama;
position = "{289, -13}";
}
);
layerId = UUID0;
paths = (
{
closed = 1;
nodes = (
"349 523 LINE",
"349 468 LINE",
"165 457 LINE",
"88 449 OFFCURVE",
"10 261 OFFCURVE",
"60 187 CURVE SMOOTH",
"102 125 OFFCURVE",
"164 75 OFFCURVE",
"228 23 CURVE SMOOTH",
"306 -41 OFFCURVE",
"401 -30 OFFCURVE",
"481 35 CURVE SMOOTH",
"531 76 OFFCURVE",
"581 133 OFFCURVE",
"572 169 CURVE SMOOTH",
"566 190 OFFCURVE",
"440 319 OFFCURVE",
"415 319 CURVE SMOOTH",
"390 319 OFFCURVE",
"255 232 OFFCURVE",
"285 162 CURVE SMOOTH",
"296 137 OFFCURVE",
"320 107 OFFCURVE",
"340 85 CURVE",
"322 80 OFFCURVE",
"301 78 OFFCURVE",
"278 80 CURVE SMOOTH",
"121 92 OFFCURVE",
"164 382 OFFCURVE",
"269 382 CURVE SMOOTH",
"460 382 LINE",
"460 523 LINE",
"620 523 LINE",
"620 619 LINE",
"-8 619 LINE",
"-8 523 LINE"
);
},
{
closed = 1;
nodes = (
"337 198 OFFCURVE",
"441 252 OFFCURVE",
"467 228 CURVE SMOOTH",
"490 205 OFFCURVE",
"426 122 OFFCURVE",
"372 98 CURVE"
);
}
);
width = 617;
},
{
layerId = "F3BFA7D7-9187-4567-9958-41DFD36DE2A0";
width = 600;
},
{
layerId = "B0A33A77-4F7C-4BAD-AD90-E13C10AC4CE8";
width = 600;
}
);
},
{
glyphname = dvNNA;
lastChange = "2018-05-04 20:49:20 +0000";
layers = (
{
layerId = UUID0;
paths = (
{
closed = 1;
nodes = (
"52 523 LINE",
"52 466 OFFCURVE",
"56 253 OFFCURVE",
"64 245 CURVE SMOOTH",
"128 177 OFFCURVE",
"240 71 OFFCURVE",
"299 71 CURVE SMOOTH",
"398 71 OFFCURVE",
"505 176 OFFCURVE",
"505 224 CURVE SMOOTH",
"505 523 LINE",
"588 523 LINE",
"588 1 LINE",
"712 -55 LINE",
"712 523 LINE",
"784 523 LINE",
"784 619 LINE",
"-2 619 LINE",
"-2 523 LINE"
);
},
{
closed = 1;
nodes = (
"174 523 LINE",
"381 523 LINE",
"381 281 LINE",
"345 191 OFFCURVE",
"230 147 OFFCURVE",
"176 205 CURVE"
);
}
);
width = 781;
},
{
layerId = "F3BFA7D7-9187-4567-9958-41DFD36DE2A0";
width = 600;
},
{
layerId = "B0A33A77-4F7C-4BAD-AD90-E13C10AC4CE8";
width = 600;
}
);
},
{
glyphname = dvTA;
lastChange = "2018-05-04 20:49:21 +0000";
layers = (
{
layerId = UUID0;
paths = (
{
closed = 1;
nodes = (
"562 -55 LINE",
"562 523 LINE",
"639 523 LINE",
"639 619 LINE",
"-46 619 LINE",
"-46 523 LINE",
"438 523 LINE",
"438 403 LINE",
"188 405 LINE SMOOTH",
"75 406 OFFCURVE",
"8 235 OFFCURVE",
"15 195 CURVE",
"24 133 OFFCURVE",
"142 31 OFFCURVE",
"241 -56 CURVE",
"276 -27 LINE",
"227 20 OFFCURVE",
"217 32 OFFCURVE",
"190 62 CURVE SMOOTH",
"83 182 OFFCURVE",
"137 313 OFFCURVE",
"259 310 CURVE",
"438 307 LINE",
"438 1 LINE"
);
}
);
width = 625;
},
{
layerId = "F3BFA7D7-9187-4567-9958-41DFD36DE2A0";
width = 600;
},
{
layerId = "B0A33A77-4F7C-4BAD-AD90-E13C10AC4CE8";
width = 600;
}
);
},
{
glyphname = dvTHA;
lastChange = "2018-05-04 20:49:21 +0000";
layers = (
{
layerId = UUID0;
paths = (
{
closed = 1;
nodes = (
"477 523 LINE",
"477 303 LINE",
"407 179 OFFCURVE",
"252 117 OFFCURVE",
"140 224 CURVE",
"230 284 OFFCURVE",
"394 375 OFFCURVE",
"362 465 CURVE SMOOTH",
"350 498 OFFCURVE",
"282 575 OFFCURVE",
"213 617 CURVE SMOOTH",
"155 652 OFFCURVE",
"26 595 OFFCURVE",
"26 511 CURVE SMOOTH",
"26 452 OFFCURVE",
"104 402 OFFCURVE",
"180 379 CURVE",
"142 348 OFFCURVE",
"22 299 OFFCURVE",
"26 288 CURVE SMOOTH",
"34 263 OFFCURVE",
"211 72 OFFCURVE",
"314 72 CURVE SMOOTH",
"391 72 OFFCURVE",
"442 108 OFFCURVE",
"477 143 CURVE",
"477 1 LINE",
"601 -55 LINE",
"601 523 LINE",
"672 523 LINE",
"672 619 LINE",
"345 619 LINE",
"384 523 LINE"
);
},
{
closed = 1;
nodes = (
"146 408 OFFCURVE",
"76 495 OFFCURVE",
"180 550 CURVE SMOOTH",
"238 580 OFFCURVE",
"280 524 OFFCURVE",
"271 466 CURVE SMOOTH",
"269 454 OFFCURVE",
"224 408 OFFCURVE",
"209 408 CURVE SMOOTH"
);
}
);
width = 661;
},
{
layerId = "F3BFA7D7-9187-4567-9958-41DFD36DE2A0";
width = 600;
},
{
layerId = "B0A33A77-4F7C-4BAD-AD90-E13C10AC4CE8";
width = 600;
}
);
},
{
glyphname = dvDA;
lastChange = "2018-05-04 20:49:21 +0000";
layers = (
{
anchors = (
{
name = abvm.bindu;
position = "{408, 619}";
},
{
name = abvm.e;
position = "{405, 619}";
},
{
name = blwm.u;
position = "{573, -111}";
},
{
name = blwm.virama;
position = "{572, -107}";
}
);
layerId = UUID0;
paths = (
{
closed = 1;
nodes = (
"619 -92 LINE",
"504 51 LINE",
"557 104 LINE SMOOTH",
"587 134 OFFCURVE",
"570 180 OFFCURVE",
"543 212 CURVE SMOOTH",
"511 250 OFFCURVE",
"476 278 OFFCURVE",
"429 248 CURVE SMOOTH",
"411 237 OFFCURVE",
"374 209 OFFCURVE",
"359 179 CURVE SMOOTH",
"355 171 OFFCURVE",
"360 160 OFFCURVE",
"396 113 CURVE",
"367 90 OFFCURVE",
"332 75 OFFCURVE",
"286 79 CURVE SMOOTH",
"121 92 OFFCURVE",
"164 380 OFFCURVE",
"269 381 CURVE",
"460 381 LINE",
"460 523 LINE",
"610 523 LINE",
"610 619 LINE",
"-8 619 LINE",
"-8 523 LINE",
"349 523 LINE",
"349 468 LINE",
"165 457 LINE",
"88 449 OFFCURVE",
"10 261 OFFCURVE",
"60 187 CURVE SMOOTH",
"102 125 OFFCURVE",
"164 75 OFFCURVE",
"228 23 CURVE SMOOTH",
"261 -4 OFFCURVE",
"293 -24 OFFCURVE",
"343 -20 CURVE SMOOTH",
"394 -15 OFFCURVE",
"433 1 OFFCURVE",
"466 24 CURVE",
"580 -119 LINE"
);
}
);
width = 605;
},
{
layerId = "F3BFA7D7-9187-4567-9958-41DFD36DE2A0";
width = 600;
},
{
layerId = "B0A33A77-4F7C-4BAD-AD90-E13C10AC4CE8";
width = 600;
}
);
},
{
glyphname = dvDHA;
lastChange = "2018-05-04 20:49:21 +0000";
layers = (
{
layerId = UUID0;
paths = (
{
closed = 1;
nodes = (
"613 -54 LINE",
"613 523 LINE",
"697 523 LINE",
"697 619 LINE",
"375 619 LINE",
"414 523 LINE",
"489 523 LINE",
"489 296 LINE",
"436 181 OFFCURVE",
"260 73 OFFCURVE",
"204 127 CURVE SMOOTH",
"141 187 OFFCURVE",
"274 268 OFFCURVE",
"382 287 CURVE",
"308 364 LINE",
"284 366 OFFCURVE",
"246 354 OFFCURVE",
"209 334 CURVE",
"189 348 OFFCURVE",
"173 362 OFFCURVE",
"161 376 CURVE",
"266 367 OFFCURVE",
"383 471 OFFCURVE",
"333 532 CURVE SMOOTH",
"306 565 OFFCURVE",
"269 597 OFFCURVE",
"214 625 CURVE SMOOTH",
"177 644 OFFCURVE",
"-51 521 OFFCURVE",
"35 429 CURVE SMOOTH",
"64 398 OFFCURVE",
"135 340 OFFCURVE",
"173 314 CURVE",
"109 272 OFFCURVE",
"56 215 OFFCURVE",
"88 178 CURVE SMOOTH",
"130 128 OFFCURVE",
"178 88 OFFCURVE",
"220 50 CURVE SMOOTH",
"265 8 OFFCURVE",
"395 29 OFFCURVE",
"489 114 CURVE",
"489 2 LINE"
);
},
{
closed = 1;
nodes = (
"276 519 OFFCURVE",
"205 444 OFFCURVE",
"125 444 CURVE",
"118 520 OFFCURVE",
"226 562 OFFCURVE",
"256 537 CURVE SMOOTH"
);
}
);
width = 692;
},
{
layerId = "F3BFA7D7-9187-4567-9958-41DFD36DE2A0";
width = 600;
},
{
layerId = "B0A33A77-4F7C-4BAD-AD90-E13C10AC4CE8";
width = 600;
}
);
},
{
glyphname = dvNA;
lastChange = "2018-05-04 20:49:22 +0000";
layers = (
{
layerId = UUID0;
paths = (
{
closed = 1;
nodes = (
"590 -55 LINE",
"590 523 LINE",
"667 523 LINE",
"667 619 LINE",
"-50 619 LINE",
"-50 523 LINE",
"466 523 LINE",
"466 405 LINE",
"106 406 OFFCURVE",
"107 408 OFFCURVE",
"95 405 CURVE SMOOTH",
"28 384 OFFCURVE",
"10 275 OFFCURVE",
"70 219 CURVE SMOOTH",
"112 180 OFFCURVE",
"148 152 OFFCURVE",
"196 111 CURVE SMOOTH",
"241 73 OFFCURVE",
"412 169 OFFCURVE",
"310 311 CURVE",
"466 309 LINE",
"466 1 LINE"
);
},
{
closed = 1;
nodes = (
"253 312 LINE",
"256 48 OFFCURVE",
"-27 315 OFFCURVE",
"235 312 CURVE"
);
}
);
width = 651;
},
{
layerId = "F3BFA7D7-9187-4567-9958-41DFD36DE2A0";
width = 600;
},
{
layerId = "B0A33A77-4F7C-4BAD-AD90-E13C10AC4CE8";
width = 600;
}
);
},
{
glyphname = dvPA;
lastChange = "2018-05-04 20:49:22 +0000";
layers = (
{
layerId = UUID0;
paths = (
{
closed = 1;
nodes = (
"60 523 LINE",
"60 467 OFFCURVE",
"58 256 OFFCURVE",
"66 248 CURVE SMOOTH",
"130 180 OFFCURVE",
"221 71 OFFCURVE",
"297 71 CURVE SMOOTH",
"336 71 OFFCURVE",
"378 95 OFFCURVE",
"415 125 CURVE",
"415 1 LINE",
"539 -55 LINE",
"539 523 LINE",
"616 523 LINE",
"616 619 LINE",
"-3 619 LINE",
"-3 523 LINE"
);
},
{
closed = 1;
nodes = (
"183 523 LINE",
"415 523 LINE",
"415 292 LINE",
"365 207 OFFCURVE",
"240 149 OFFCURVE",
"185 208 CURVE"
);
}
);
width = 607;
},
{
layerId = "F3BFA7D7-9187-4567-9958-41DFD36DE2A0";
width = 600;
},
{
layerId = "B0A33A77-4F7C-4BAD-AD90-E13C10AC4CE8";
width = 600;
}
);
},
{
glyphname = dvPHA;
lastChange = "2018-05-04 20:49:22 +0000";
layers = (
{
anchors = (
{
name = abvm.bindu;
position = "{508, 620}";
},
{
name = abvm.e;
position = "{491, 619}";
},
{
name = blwm.u;
position = "{467, -14}";
},
{
name = blwm.virama;
position = "{444, -1}";
}
);
layerId = UUID0;
paths = (
{
closed = 1;
nodes = (
"60 523 LINE",
"60 467 OFFCURVE",
"58 256 OFFCURVE",
"66 248 CURVE SMOOTH",
"130 180 OFFCURVE",
"221 71 OFFCURVE",
"297 71 CURVE SMOOTH",
"338 71 OFFCURVE",
"379 99 OFFCURVE",
"415 133 CURVE",
"415 1 LINE",
"539 -55 LINE",
"539 250 LINE",
"565 277 OFFCURVE",
"591 297 OFFCURVE",
"623 308 CURVE",
"825 372 OFFCURVE",
"730 122 OFFCURVE",
"624 68 CURVE",
"722 -5 LINE",
"797 42 OFFCURVE",
"880 188 OFFCURVE",
"833 260 CURVE SMOOTH",
"800 309 OFFCURVE",
"682 424 OFFCURVE",
"641 426 CURVE SMOOTH",
"602 427 OFFCURVE",
"568 408 OFFCURVE",
"539 385 CURVE",
"539 523 LINE",
"886 523 LINE",
"886 619 LINE",
"-3 619 LINE",
"-3 523 LINE"
);
},
{
closed = 1;
nodes = (
"183 523 LINE",
"415 523 LINE",
"415 292 LINE",
"365 207 OFFCURVE",
"240 149 OFFCURVE",
"185 208 CURVE"
);
}
);
width = 882;
},
{
layerId = "F3BFA7D7-9187-4567-9958-41DFD36DE2A0";
width = 600;
},
{
layerId = "B0A33A77-4F7C-4BAD-AD90-E13C10AC4CE8";
width = 600;
}
);
},
{
glyphname = dvBA;
lastChange = "2018-05-04 20:49:23 +0000";
layers = (
{
layerId = UUID0;
paths = (
{
closed = 1;
nodes = (
"519 -55 LINE",
"519 523 LINE",
"594 523 LINE",
"594 619 LINE",
"-8 619 LINE",
"-8 523 LINE",
"394 523 LINE",
"394 387 LINE",
"358 410 OFFCURVE",
"313 441 OFFCURVE",
"287 460 CURVE",
"228 500 OFFCURVE",
"9 348 OFFCURVE",
"54 263 CURVE SMOOTH",
"91 191 OFFCURVE",
"166 71 OFFCURVE",
"272 71 CURVE SMOOTH",
"322 71 OFFCURVE",
"364 106 OFFCURVE",
"394 141 CURVE",
"394 1 LINE"
);
},
{
closed = 1;
nodes = (
"127 226 OFFCURVE",
"148 277 OFFCURVE",
"192 315 CURVE",
"316 196 LINE",
"238 148 OFFCURVE",
"170 180 OFFCURVE",
"151 201 CURVE SMOOTH"
);
},
{
closed = 1;
nodes = (
"223 336 LINE",
"271 363 OFFCURVE",
"333 372 OFFCURVE",
"394 334 CURVE",
"394 271 LINE",
"378 249 OFFCURVE",
"361 232 OFFCURVE",
"345 218 CURVE"
);
}
);
width = 588;
},
{
layerId = "F3BFA7D7-9187-4567-9958-41DFD36DE2A0";
width = 600;
},
{
layerId = "B0A33A77-4F7C-4BAD-AD90-E13C10AC4CE8";
width = 600;
}
);
},
{
glyphname = dvBHA;
lastChange = "2018-05-04 20:49:23 +0000";
layers = (
{
layerId = UUID0;
paths = (
{
closed = 1;
nodes = (
"624 -56 LINE",
"624 523 LINE",
"699 523 LINE",
"699 619 LINE",
"318 619 LINE",
"356 523 LINE",
"500 523 LINE",
"500 271 LINE",
"344 270 LINE",
"344 384 LINE",
"346 467 LINE",
"308 510 OFFCURVE",
"250 554 OFFCURVE",
"187 607 CURVE SMOOTH",
"101 679 OFFCURVE",
"-21 519 OFFCURVE",
"42 462 CURVE",
"93 414 OFFCURVE",
"119 400 OFFCURVE",
"174 345 CURVE SMOOTH",
"178 340 OFFCURVE",
"197 338 OFFCURVE",
"220 340 CURVE",
"220 273 LINE",
"62 280 OFFCURVE",
"51 156 OFFCURVE",
"82 119 CURVE SMOOTH",
"115 80 OFFCURVE",
"166 41 OFFCURVE",
"188 26 CURVE SMOOTH",
"216 7 OFFCURVE",
"344 -9 OFFCURVE",
"344 172 CURVE",
"500 172 LINE",
"500 0 LINE"
);
},
{
closed = 1;
nodes = (
"183 426 OFFCURVE",
"138 426 OFFCURVE",
"124 437 CURVE SMOOTH",
"90 465 OFFCURVE",
"163 580 OFFCURVE",
"214 528 CURVE SMOOTH",
"221 521 OFFCURVE",
"220 472 OFFCURVE",
"220 432 CURVE"
);
},
{
closed = 1;
nodes = (
"220 99 OFFCURVE",
"173 97 OFFCURVE",
"157 115 CURVE SMOOTH",
"137 138 OFFCURVE",
"153 184 OFFCURVE",
"219 176 CURVE"
);
}
);
width = 695;
},
{
layerId = "F3BFA7D7-9187-4567-9958-41DFD36DE2A0";
width = 600;
},
{
layerId = "B0A33A77-4F7C-4BAD-AD90-E13C10AC4CE8";
width = 600;
}
);
},
{
glyphname = dvMA;
lastChange = "2018-05-04 20:49:23 +0000";
layers = (
{
layerId = UUID0;
paths = (
{
closed = 1;
nodes = (
"173 523 LINE",
"173 273 LINE",
"15 280 OFFCURVE",
"4 156 OFFCURVE",
"35 119 CURVE SMOOTH",
"68 80 OFFCURVE",
"119 41 OFFCURVE",
"141 26 CURVE SMOOTH",
"169 7 OFFCURVE",
"297 -9 OFFCURVE",
"297 172 CURVE",
"504 172 LINE",
"504 0 LINE",
"628 -56 LINE",
"628 523 LINE",
"703 523 LINE",
"703 619 LINE",
"-7 619 LINE",
"-7 523 LINE"
);
},
{
closed = 1;
nodes = (
"297 523 LINE",
"504 523 LINE",
"504 271 LINE",
"297 270 LINE"
);
},
{
closed = 1;
nodes = (
"173 99 OFFCURVE",
"126 97 OFFCURVE",
"110 115 CURVE SMOOTH",
"90 138 OFFCURVE",
"106 184 OFFCURVE",
"172 176 CURVE"
);
}
);
width = 687;
},
{
layerId = "F3BFA7D7-9187-4567-9958-41DFD36DE2A0";
width = 600;
},
{
layerId = "B0A33A77-4F7C-4BAD-AD90-E13C10AC4CE8";
width = 600;
}
);
},
{
glyphname = dvYA;
lastChange = "2018-05-04 20:49:24 +0000";
layers = (
{
layerId = UUID0;
paths = (
{
closed = 1;
nodes = (
"607 -55 LINE",
"607 523 LINE",
"683 523 LINE",
"683 619 LINE",
"-7 619 LINE",
"-7 523 LINE",
"164 523 LINE",
"204 480 OFFCURVE",
"200 442 OFFCURVE",
"121 370 CURVE SMOOTH",
"87 338 OFFCURVE",
"21 295 OFFCURVE",
"24 284 CURVE SMOOTH",
"32 259 OFFCURVE",
"200 71 OFFCURVE",
"322 71 CURVE SMOOTH",
"388 71 OFFCURVE",
"446 124 OFFCURVE",
"483 167 CURVE",
"483 1 LINE"
);
},
{
closed = 1;
nodes = (
"227 309 OFFCURVE",
"300 364 OFFCURVE",
"295 426 CURVE SMOOTH",
"292 455 OFFCURVE",
"267 492 OFFCURVE",
"230 523 CURVE",
"483 523 LINE",
"483 339 LINE",
"416 209 OFFCURVE",
"264 101 OFFCURVE",
"139 231 CURVE"
);
}
);
width = 679;
},
{
layerId = "F3BFA7D7-9187-4567-9958-41DFD36DE2A0";
width = 600;
},
{
layerId = "B0A33A77-4F7C-4BAD-AD90-E13C10AC4CE8";
width = 600;
}
);
},
